  0
SECTION
  2
HEADER
  9
$ACADVER
  1
AC1014
  9
$HANDSEED
  5
FFFF
  9
$MEASUREMENT
 70
     1
  0
ENDSEC
  0
SECTION
  2
TABLES
  0
TABLE
  2
VPORT
  5
8
330
0
100
AcDbSymbolTable
 70
     4
  0
VPORT
  5
2E
330
8
100
AcDbSymbolTableRecord
100
AcDbViewportTableRecord
  2
*ACTIVE
 70
     0
 10
0.0
 20
0.0
 11
1.0
 21
1.0
 12
210.0
 22
148.5
 13
0.0
 23
0.0
 14
10.0
 24
10.0
 15
10.0
 25
10.0
 16
0.0
 26
0.0
 36
1.0
 17
0.0
 27
0.0
 37
0.0
 40
341.0
 41
1.24
 42
50.0
 43
0.0
 44
0.0
 50
0.0
 51
0.0
 71
     0
 72
   100
 73
     1
 74
     3
 75
     0
 76
     0
 77
     0
 78
     0
  0
ENDTAB
  0
TABLE
  2
LTYPE
  5
5
330
0
100
AcDbSymbolTable
 70
     1
  0
LTYPE
  5
14
330
5
100
AcDbSymbolTableRecord
100
AcDbLinetypeTableRecord
  2
BYBLOCK
 70
     0
  3

 72
    65
 73
     0
 40
0.0
  0
LTYPE
  5
15
330
5
100
AcDbSymbolTableRecord
100
AcDbLinetypeTableRecord
  2
BYLAYER
 70
     0
  3

 72
    65
 73
     0
 40
0.0
  0
LTYPE
  5
16
330
5
100
AcDbSymbolTableRecord
100
AcDbLinetypeTableRecord
  2
CONTINUOUS
 70
     0
  3
Solid line
 72
    65
 73
     0
 40
0.0
  0
ENDTAB
  0
TABLE
  2
LAYER
  5
2
100
AcDbSymbolTable
 70
2
  0
LAYER
  5
50
100
AcDbSymbolTableRecord
100
AcDbLayerTableRecord
  2
0
 70
0
  6
CONTINUOUS
  0
LAYER
  5
51
100
AcDbSymbolTableRecord
100
AcDbLayerTableRecord
  2
Layer_1
 70
0
  6
CONTINUOUS
  0
ENDTAB
  0
TABLE
  2
STYLE
  5
3
330
0
100
AcDbSymbolTable
 70
     1
  0
STYLE
  5
11
330
3
100
AcDbSymbolTableRecord
100
AcDbTextStyleTableRecord
  2
STANDARD
 70
     0
 40
0.0
 41
1.0
 50
0.0
 71
     0
 42
2.5
  3
txt
  4

  0
ENDTAB
  0
TABLE
  2
VIEW
  5
6
330
0
100
AcDbSymbolTable
 70
     0
  0
ENDTAB
  0
TABLE
  2
UCS
  5
7
330
0
100
AcDbSymbolTable
 70
     0
  0
ENDTAB
  0
TABLE
  2
APPID
  5
9
330
0
100
AcDbSymbolTable
 70
     2
  0
APPID
  5
12
330
9
100
AcDbSymbolTableRecord
100
AcDbRegAppTableRecord
  2
ACAD
 70
     0
  0
ENDTAB
  0
TABLE
  2
DIMSTYLE
  5
A
330
0
100
AcDbSymbolTable
 70
     1
  0
DIMSTYLE
105
27
330
A
100
AcDbSymbolTableRecord
100
AcDbDimStyleTableRecord
  2
ISO-25
 70
     0
  3

  4

  5

  6

  7

 40
1.0
 41
2.5
 42
0.625
 43
3.75
 44
1.25
 45
0.0
 46
0.0
 47
0.0
 48
0.0
140
2.5
141
2.5
142
0.0
143
0.03937007874016
144
1.0
145
0.0
146
1.0
147
0.625
 71
     0
 72
     0
 73
     0
 74
     0
 75
     0
 76
     0
 77
     1
 78
     8
170
     0
171
     3
172
     1
173
     0
174
     0
175
     0
176
     0
177
     0
178
     0
270
     2
271
     2
272
     2
273
     2
274
     3
340
11
275
     0
280
     0
281
     0
282
     0
283
     0
284
     8
285
     0
286
     0
287
     3
288
     0
  0
ENDTAB
  0
TABLE
  2
BLOCK_RECORD
  5
1
330
0
100
AcDbSymbolTable
 70
     1
  0
BLOCK_RECORD
  5
1F
330
1
100
AcDbSymbolTableRecord
100
AcDbBlockTableRecord
  2
*MODEL_SPACE
  0
BLOCK_RECORD
  5
1B
330
1
100
AcDbSymbolTableRecord
100
AcDbBlockTableRecord
  2
*PAPER_SPACE
  0
ENDTAB
  0
ENDSEC
  0
SECTION
  2
BLOCKS
  0
BLOCK
  5
20
330
1F
100
AcDbEntity
  8
0
100
AcDbBlockBegin
  2
*MODEL_SPACE
 70
     0
 10
0.0
 20
0.0
 30
0.0
  3
*MODEL_SPACE
  1

  0
ENDBLK
  5
21
330
1F
100
AcDbEntity
  8
0
100
AcDbBlockEnd
  0
BLOCK
  5
1C
330
1B
100
AcDbEntity
 67
     1
  8
0
100
AcDbBlockBegin
  2
*PAPER_SPACE
  1

  0
ENDBLK
  5
1D
330
1B
100
AcDbEntity
 67
     1
  8
0
100
AcDbBlockEnd
  0
ENDSEC
  0
SECTION
  2
ENTITIES
  0
SPLINE
  5
100
100
AcDbEntity
  8
Layer_1
 62
7
100
AcDbSpline
 70
8
 71
3
 72
8
 73
4
 74
0
 40
0
 40
0
 40
0
 40
0
 40
1
 40
1
 40
1
 40
1
 10
60.832593
 20
327.374339
 30
0.0
 10
59.910806
 20
329.928752
 30
0.0
 10
47.546351
 20
326.457553
 30
0.0
 10
60.564257
 20
336.826593
 30
0.0
  0
SPLINE
  5
101
100
AcDbEntity
  8
Layer_1
 62
7
100
AcDbSpline
 70
8
 71
3
 72
8
 73
4
 74
0
 40
0
 40
0
 40
0
 40
0
 40
1
 40
1
 40
1
 40
1
 10
60.564257
 20
336.826593
 30
0.0
 10
75.643033
 20
348.837066
 30
0.0
 10
80.890024
 20
353.797583
 30
0.0
 10
88.770028
 20
363.492454
 30
0.0
  0
SPLINE
  5
102
100
AcDbEntity
  8
Layer_1
 62
7
100
AcDbSpline
 70
8
 71
3
 72
8
 73
4
 74
0
 40
0
 40
0
 40
0
 40
0
 40
1
 40
1
 40
1
 40
1
 10
88.770028
 20
363.492454
 30
0.0
 10
92.786383
 20
368.433814
 30
0.0
 10
96.717138
 20
373.462469
 30
0.0
 10
97.505033
 20
374.667179
 30
0.0
  0
SPLINE
  5
103
100
AcDbEntity
  8
Layer_1
 62
7
100
AcDbSpline
 70
8
 71
3
 72
8
 73
4
 74
0
 40
0
 40
0
 40
0
 40
0
 40
1
 40
1
 40
1
 40
1
 10
97.505033
 20
374.667179
 30
0.0
 10
99.280766
 20
377.382359
 30
0.0
 10
99.376308
 20
379.346641
 30
0.0
 10
97.753286
 20
379.772433
 30
0.0
  0
SPLINE
  5
104
100
AcDbEntity
  8
Layer_1
 62
7
100
AcDbSpline
 70
8
 71
3
 72
8
 73
4
 74
0
 40
0
 40
0
 40
0
 40
0
 40
1
 40
1
 40
1
 40
1
 10
97.753286
 20
379.772433
 30
0.0
 10
94.734983
 20
380.564363
 30
0.0
 10
89.457287
 20
381.304352
 30
0.0
 10
86.797258
 20
381.308499
 30
0.0
  0
SPLINE
  5
105
100
AcDbEntity
  8
Layer_1
 62
7
100
AcDbSpline
 70
8
 71
3
 72
8
 73
4
 74
0
 40
0
 40
0
 40
0
 40
0
 40
1
 40
1
 40
1
 40
1
 10
86.797258
 20
381.308499
 30
0.0
 10
79.842271
 20
381.319129
 30
0.0
 10
69.628527
 20
384.656754
 30
0.0
 10
66.907421
 20
387.807463
 30
0.0
  0
SPLINE
  5
106
100
AcDbEntity
  8
Layer_1
 62
7
100
AcDbSpline
 70
8
 71
3
 72
8
 73
4
 74
0
 40
0
 40
0
 40
0
 40
0
 40
1
 40
1
 40
1
 40
1
 10
66.883604
 20
392.017102
 30
0.0
 10
68.595508
 20
393.999242
 30
0.0
 10
75.335998
 20
399.637247
 30
0.0
 10
85.249216
 20
407.378764
 30
0.0
  0
SPLINE
  5
107
100
AcDbEntity
  8
Layer_1
 62
7
100
AcDbSpline
 70
8
 71
3
 72
8
 73
4
 74
0
 40
0
 40
0
 40
0
 40
0
 40
1
 40
1
 40
1
 40
1
 10
85.249216
 20
407.378764
 30
0.0
 10
91.944422
 20
412.607240
 30
0.0
 10
99.189363
 20
419.288306
 30
0.0
 10
106.966786
 20
427.406099
 30
0.0
  0
SPLINE
  5
108
100
AcDbEntity
  8
Layer_1
 62
7
100
AcDbSpline
 70
8
 71
3
 72
8
 73
4
 74
0
 40
0
 40
0
 40
0
 40
0
 40
1
 40
1
 40
1
 40
1
 10
106.966786
 20
427.406099
 30
0.0
 10
110.800738
 20
431.407905
 30
0.0
 10
115.595527
 20
436.214625
 30
0.0
 10
117.621862
 20
438.087750
 30
0.0
  0
SPLINE
  5
109
100
AcDbEntity
  8
Layer_1
 62
7
100
AcDbSpline
 70
8
 71
3
 72
8
 73
4
 74
0
 40
0
 40
0
 40
0
 40
0
 40
1
 40
1
 40
1
 40
1
 10
117.621862
 20
438.087750
 30
0.0
 10
121.948197
 20
442.086974
 30
0.0
 10
123.924526
 20
444.440603
 30
0.0
 10
123.319361
 20
444.873008
 30
0.0
  0
SPLINE
  5
10a
100
AcDbEntity
  8
Layer_1
 62
7
100
AcDbSpline
 70
8
 71
3
 72
8
 73
4
 74
0
 40
0
 40
0
 40
0
 40
0
 40
1
 40
1
 40
1
 40
1
 10
123.319361
 20
444.873008
 30
0.0
 10
123.080445
 20
445.043724
 30
0.0
 10
120.184276
 20
445.495774
 30
0.0
 10
116.883337
 20
445.877714
 30
0.0
  0
SPLINE
  5
10b
100
AcDbEntity
  8
Layer_1
 62
7
100
AcDbSpline
 70
8
 71
3
 72
8
 73
4
 74
0
 40
0
 40
0
 40
0
 40
0
 40
1
 40
1
 40
1
 40
1
 10
116.883337
 20
445.877714
 30
0.0
 10
112.500454
 20
446.384801
 30
0.0
 10
110.132274
 20
446.982568
 30
0.0
 10
108.103342
 20
448.093905
 30
0.0
  0
SPLINE
  5
10c
100
AcDbEntity
  8
Layer_1
 62
7
100
AcDbSpline
 70
8
 71
3
 72
8
 73
4
 74
0
 40
0
 40
0
 40
0
 40
0
 40
1
 40
1
 40
1
 40
1
 10
108.103342
 20
448.093905
 30
0.0
 10
105.521803
 20
449.507960
 30
0.0
 10
102.095425
 20
453.131042
 30
0.0
 10
102.095425
 20
454.446757
 30
0.0
  0
SPLINE
  5
10d
100
AcDbEntity
  8
Layer_1
 62
7
100
AcDbSpline
 70
8
 71
3
 72
8
 73
4
 74
0
 40
0
 40
0
 40
0
 40
0
 40
1
 40
1
 40
1
 40
1
 10
102.095425
 20
454.446757
 30
0.0
 10
102.095425
 20
454.761352
 30
0.0
 10
103.268789
 20
455.933676
 30
0.0
 10
104.702899
 20
457.051943
 30
0.0
  0
SPLINE
  5
10e
100
AcDbEntity
  8
Layer_1
 62
7
100
AcDbSpline
 70
8
 71
3
 72
8
 73
4
 74
0
 40
0
 40
0
 40
0
 40
0
 40
1
 40
1
 40
1
 40
1
 10
104.702899
 20
457.051943
 30
0.0
 10
108.609735
 20
460.098312
 30
0.0
 10
120.444565
 20
473.613772
 30
0.0
 10
123.762283
 20
478.817952
 30
0.0
  0
SPLINE
  5
10f
100
AcDbEntity
  8
Layer_1
 62
7
100
AcDbSpline
 70
8
 71
3
 72
8
 73
4
 74
0
 40
0
 40
0
 40
0
 40
0
 40
1
 40
1
 40
1
 40
1
 10
123.762283
 20
478.817952
 30
0.0
 10
127.387562
 20
484.504552
 30
0.0
 10
131.569322
 20
492.243985
 30
0.0
 10
131.569322
 20
493.266914
 30
0.0
  0
SPLINE
  5
110
100
AcDbEntity
  8
Layer_1
 62
7
100
AcDbSpline
 70
8
 71
3
 72
8
 73
4
 74
0
 40
0
 40
0
 40
0
 40
0
 40
1
 40
1
 40
1
 40
1
 10
131.569322
 20
493.266914
 30
0.0
 10
131.569322
 20
493.689785
 30
0.0
 10
130.633608
 20
494.752757
 30
0.0
 10
129.489985
 20
495.629030
 30
0.0
  0
SPLINE
  5
111
100
AcDbEntity
  8
Layer_1
 62
7
100
AcDbSpline
 70
8
 71
3
 72
8
 73
4
 74
0
 40
0
 40
0
 40
0
 40
0
 40
1
 40
1
 40
1
 40
1
 10
129.489985
 20
495.629030
 30
0.0
 10
127.291442
 20
497.313632
 30
0.0
 10
125.779808
 20
499.505516
 30
0.0
 10
125.779808
 20
501.008797
 30
0.0
  0
SPLINE
  5
112
100
AcDbEntity
  8
Layer_1
 62
7
100
AcDbSpline
 70
8
 71
3
 72
8
 73
4
 74
0
 40
0
 40
0
 40
0
 40
0
 40
1
 40
1
 40
1
 40
1
 10
125.779808
 20
501.008797
 30
0.0
 10
125.779808
 20
502.286445
 30
0.0
 10
128.693608
 20
504.697031
 30
0.0
 10
132.095622
 20
506.233905
 30
0.0
  0
SPLINE
  5
113
100
AcDbEntity
  8
Layer_1
 62
7
100
AcDbSpline
 70
8
 71
3
 72
8
 73
4
 74
0
 40
0
 40
0
 40
0
 40
0
 40
1
 40
1
 40
1
 40
1
 10
132.095622
 20
506.233905
 30
0.0
 10
138.894916
 20
509.305487
 30
0.0
 10
147.449716
 20
515.714225
 30
0.0
 10
151.171251
 20
520.524179
 30
0.0
  0
SPLINE
  5
114
100
AcDbEntity
  8
Layer_1
 62
7
100
AcDbSpline
 70
8
 71
3
 72
8
 73
4
 74
0
 40
0
 40
0
 40
0
 40
0
 40
1
 40
1
 40
1
 40
1
 10
151.171251
 20
520.524179
 30
0.0
 10
151.965403
 20
521.550635
 30
0.0
 10
153.386470
 20
524.119658
 30
0.0
 10
154.329171
 20
526.233138
 30
0.0
  0
SPLINE
  5
115
100
AcDbEntity
  8
Layer_1
 62
7
100
AcDbSpline
 70
8
 71
3
 72
8
 73
4
 74
0
 40
0
 40
0
 40
0
 40
0
 40
1
 40
1
 40
1
 40
1
 10
154.329171
 20
526.233138
 30
0.0
 10
156.003131
 20
529.986076
 30
0.0
 10
156.019303
 20
530.096378
 30
0.0
 10
155.021499
 20
530.956029
 30
0.0
  0
SPLINE
  5
116
100
AcDbEntity
  8
Layer_1
 62
7
100
AcDbSpline
 70
8
 71
3
 72
8
 73
4
 74
0
 40
0
 40
0
 40
0
 40
0
 40
1
 40
1
 40
1
 40
1
 10
155.021499
 20
530.956029
 30
0.0
 10
154.459582
 20
531.440150
 30
0.0
 10
153.481938
 20
531.836223
 30
0.0
 10
152.848919
 20
531.836223
 30
0.0
  0
SPLINE
  5
117
100
AcDbEntity
  8
Layer_1
 62
7
100
AcDbSpline
 70
8
 71
3
 72
8
 73
4
 74
0
 40
0
 40
0
 40
0
 40
0
 40
1
 40
1
 40
1
 40
1
 10
152.848919
 20
531.836223
 30
0.0
 10
149.706590
 20
531.836223
 30
0.0
 10
145.253600
 20
536.170779
 30
0.0
 10
145.253600
 20
539.229554
 30
0.0
  0
SPLINE
  5
118
100
AcDbEntity
  8
Layer_1
 62
7
100
AcDbSpline
 70
8
 71
3
 72
8
 73
4
 74
0
 40
0
 40
0
 40
0
 40
0
 40
1
 40
1
 40
1
 40
1
 10
145.253600
 20
539.229554
 30
0.0
 10
145.253600
 20
539.832272
 30
0.0
 10
146.913653
 20
541.469934
 30
0.0
 10
149.332572
 20
543.253516
 30
0.0
  0
SPLINE
  5
119
100
AcDbEntity
  8
Layer_1
 62
7
100
AcDbSpline
 70
8
 71
3
 72
8
 73
4
 74
0
 40
0
 40
0
 40
0
 40
0
 40
1
 40
1
 40
1
 40
1
 10
149.332572
 20
543.253516
 30
0.0
 10
153.083092
 20
546.018950
 30
0.0
 10
163.476292
 20
554.860083
 30
0.0
 10
168.801316
 20
559.814956
 30
0.0
  0
SPLINE
  5
11a
100
AcDbEntity
  8
Layer_1
 62
7
100
AcDbSpline
 70
8
 71
3
 72
8
 73
4
 74
0
 40
0
 40
0
 40
0
 40
0
 40
1
 40
1
 40
1
 40
1
 10
168.801316
 20
559.814956
 30
0.0
 10
170.943423
 20
561.808123
 30
0.0
 10
176.306494
 20
570.065420
 30
0.0
 10
176.306494
 20
571.370338
 30
0.0
  0
SPLINE
  5
11b
100
AcDbEntity
  8
Layer_1
 62
7
100
AcDbSpline
 70
8
 71
3
 72
8
 73
4
 74
0
 40
0
 40
0
 40
0
 40
0
 40
1
 40
1
 40
1
 40
1
 10
176.306494
 20
571.370338
 30
0.0
 10
176.306494
 20
571.721077
 30
0.0
 10
175.299914
 20
572.316287
 30
0.0
 10
174.069629
 20
572.693057
 30
0.0
  0
SPLINE
  5
11c
100
AcDbEntity
  8
Layer_1
 62
7
100
AcDbSpline
 70
8
 71
3
 72
8
 73
4
 74
0
 40
0
 40
0
 40
0
 40
0
 40
1
 40
1
 40
1
 40
1
 10
174.069629
 20
572.693057
 30
0.0
 10
169.536662
 20
574.081214
 30
0.0
 10
167.359059
 20
576.045910
 30
0.0
 10
167.359059
 20
578.747492
 30
0.0
  0
SPLINE
  5
11d
100
AcDbEntity
  8
Layer_1
 62
7
100
AcDbSpline
 70
8
 71
3
 72
8
 73
4
 74
0
 40
0
 40
0
 40
0
 40
0
 40
1
 40
1
 40
1
 40
1
 10
167.359059
 20
578.747492
 30
0.0
 10
167.359059
 20
579.031926
 30
0.0
 10
169.668309
 20
580.703145
 30
0.0
 10
172.490680
 20
582.461328
 30
0.0
  0
SPLINE
  5
11e
100
AcDbEntity
  8
Layer_1
 62
7
100
AcDbSpline
 70
8
 71
3
 72
8
 73
4
 74
0
 40
0
 40
0
 40
0
 40
0
 40
1
 40
1
 40
1
 40
1
 10
172.490680
 20
582.461328
 30
0.0
 10
180.494683
 20
587.447339
 30
0.0
 10
186.274153
 20
591.801149
 30
0.0
 10
189.883395
 20
595.563622
 30
0.0
  0
SPLINE
  5
11f
100
AcDbEntity
  8
Layer_1
 62
7
100
AcDbSpline
 70
8
 71
3
 72
8
 73
4
 74
0
 40
0
 40
0
 40
0
 40
0
 40
1
 40
1
 40
1
 40
1
 10
189.883395
 20
595.563622
 30
0.0
 10
193.416846
 20
599.247164
 30
0.0
 10
193.779258
 20
600.204183
 30
0.0
 10
191.013563
 20
598.548240
 30
0.0
  0
SPLINE
  5
120
100
AcDbEntity
  8
Layer_1
 62
7
100
AcDbSpline
 70
8
 71
3
 72
8
 73
4
 74
0
 40
0
 40
0
 40
0
 40
0
 40
1
 40
1
 40
1
 40
1
 10
191.013563
 20
598.548240
 30
0.0
 10
190.074943
 20
597.986221
 30
0.0
 10
187.697200
 20
596.767873
 30
0.0
 10
185.729749
 20
595.840808
 30
0.0
  0
SPLINE
  5
121
100
AcDbEntity
  8
Layer_1
 62
7
100
AcDbSpline
 70
8
 71
3
 72
8
 73
4
 74
0
 40
0
 40
0
 40
0
 40
0
 40
1
 40
1
 40
1
 40
1
 10
185.729749
 20
595.840808
 30
0.0
 10
182.730283
 20
594.427493
 30
0.0
 10
181.956699
 20
594.271432
 30
0.0
 10
180.940051
 20
594.874703
 30
0.0
  0
SPLINE
  5
122
100
AcDbEntity
  8
Layer_1
 62
7
100
AcDbSpline
 70
8
 71
3
 72
8
 73
4
 74
0
 40
0
 40
0
 40
0
 40
0
 40
1
 40
1
 40
1
 40
1
 10
180.940051
 20
594.874703
 30
0.0
 10
179.234606
 20
595.886675
 30
0.0
 10
179.518728
 20
597.516248
 30
0.0
 10
182.608617
 20
604.445032
 30
0.0
  0
LWPOLYLINE
  5
123
100
AcDbEntity
  8
Layer_1
 62
7
100
AcDbPolyline
 90
5
 70
0
 10
60.832593
 20
327.374339
 30
0.0
 10
60.832593
 20
45.360000
 30
0.0
 10
329.192929
 20
45.360000
 30
0.0
 10
329.192929
 20
327.374339
 30
0.0
 10
328.186806
 20
337.114622
 30
0.0
  0
SPLINE
  5
124
100
AcDbEntity
  8
Layer_1
 62
7
100
AcDbSpline
 70
8
 71
3
 72
8
 73
4
 74
0
 40
0
 40
0
 40
0
 40
0
 40
1
 40
1
 40
1
 40
1
 10
182.412343
 20
613.333233
 30
0.0
 10
179.265081
 20
616.694159
 30
0.0
 10
178.411763
 20
618.201161
 30
0.0
 10
178.411763
 20
620.398559
 30
0.0
  0
SPLINE
  5
125
100
AcDbEntity
  8
Layer_1
 62
7
100
AcDbSpline
 70
8
 71
3
 72
8
 73
4
 74
0
 40
0
 40
0
 40
0
 40
0
 40
1
 40
1
 40
1
 40
1
 10
178.411763
 20
620.398559
 30
0.0
 10
178.411763
 20
622.159404
 30
0.0
 10
178.973691
 20
622.378531
 30
0.0
 10
184.998818
 20
622.967236
 30
0.0
  0
LWPOLYLINE
  5
126
100
AcDbEntity
  8
Layer_1
 62
7
100
AcDbPolyline
 90
3
 70
0
 10
66.907421
 20
387.807463
 30
0.0
 10
65.077648
 20
389.926091
 30
0.0
 10
66.883604
 20
392.017102
 30
0.0
  0
SPLINE
  5
127
100
AcDbEntity
  8
Layer_1
 62
7
100
AcDbSpline
 70
8
 71
3
 72
8
 73
4
 74
0
 40
0
 40
0
 40
0
 40
0
 40
1
 40
1
 40
1
 40
1
 10
191.132280
 20
627.122027
 30
0.0
 10
192.185453
 20
629.180427
 30
0.0
 10
193.546720
 20
632.026058
 30
0.0
 10
194.157343
 20
633.445640
 30
0.0
  0
SPLINE
  5
128
100
AcDbEntity
  8
Layer_1
 62
7
100
AcDbSpline
 70
8
 71
3
 72
8
 73
4
 74
0
 40
0
 40
0
 40
0
 40
0
 40
1
 40
1
 40
1
 40
1
 10
194.157343
 20
633.445640
 30
0.0
 10
194.767945
 20
634.865225
 30
0.0
 10
195.865379
 20
636.480269
 30
0.0
 10
196.596148
 20
637.034663
 30
0.0
  0
SPLINE
  5
129
100
AcDbEntity
  8
Layer_1
 62
7
100
AcDbSpline
 70
8
 71
3
 72
8
 73
4
 74
0
 40
0
 40
0
 40
0
 40
0
 40
1
 40
1
 40
1
 40
1
 10
196.596148
 20
637.034663
 30
0.0
 10
197.862614
 20
637.995501
 30
0.0
 10
197.984925
 20
637.977113
 30
0.0
 10
199.213149
 20
636.641144
 30
0.0
  0
SPLINE
  5
12a
100
AcDbEntity
  8
Layer_1
 62
7
100
AcDbSpline
 70
8
 71
3
 72
8
 73
4
 74
0
 40
0
 40
0
 40
0
 40
0
 40
1
 40
1
 40
1
 40
1
 10
199.213149
 20
636.641144
 30
0.0
 10
199.921802
 20
635.870324
 30
0.0
 10
201.249754
 20
632.944418
 30
0.0
 10
202.164182
 20
630.139119
 30
0.0
  0
SPLINE
  5
12b
100
AcDbEntity
  8
Layer_1
 62
7
100
AcDbSpline
 70
8
 71
3
 72
8
 73
4
 74
0
 40
0
 40
0
 40
0
 40
0
 40
1
 40
1
 40
1
 40
1
 10
202.164182
 20
630.139119
 30
0.0
 10
203.078594
 20
627.333860
 30
0.0
 10
204.087903
 20
624.851774
 30
0.0
 10
204.407056
 20
624.623357
 30
0.0
  0
SPLINE
  5
12c
100
AcDbEntity
  8
Layer_1
 62
7
100
AcDbSpline
 70
8
 71
3
 72
8
 73
4
 74
0
 40
0
 40
0
 40
0
 40
0
 40
1
 40
1
 40
1
 40
1
 10
204.407056
 20
624.623357
 30
0.0
 10
204.726206
 20
624.394961
 30
0.0
 10
207.534337
 20
624.034247
 30
0.0
 10
210.647305
 20
623.821734
 30
0.0
  0
SPLINE
  5
12d
100
AcDbEntity
  8
Layer_1
 62
7
100
AcDbSpline
 70
8
 71
3
 72
8
 73
4
 74
0
 40
0
 40
0
 40
0
 40
0
 40
1
 40
1
 40
1
 40
1
 10
210.647305
 20
623.821734
 30
0.0
 10
215.014501
 20
623.523586
 30
0.0
 10
216.544932
 20
623.186339
 30
0.0
 10
217.347661
 20
622.345215
 30
0.0
  0
SPLINE
  5
12e
100
AcDbEntity
  8
Layer_1
 62
7
100
AcDbSpline
 70
8
 71
3
 72
8
 73
4
 74
0
 40
0
 40
0
 40
0
 40
0
 40
1
 40
1
 40
1
 40
1
 10
217.347661
 20
622.345215
 30
0.0
 10
218.347534
 20
621.297510
 30
0.0
 10
218.352637
 20
621.183473
 30
0.0
 10
217.479047
 20
619.416185
 30
0.0
  0
SPLINE
  5
12f
100
AcDbEntity
  8
Layer_1
 62
7
100
AcDbSpline
 70
8
 71
3
 72
8
 73
4
 74
0
 40
0
 40
0
 40
0
 40
0
 40
1
 40
1
 40
1
 40
1
 10
217.479047
 20
619.416185
 30
0.0
 10
216.979081
 20
618.404789
 30
0.0
 10
214.852927
 20
615.934352
 30
0.0
 10
212.754217
 20
613.926341
 30
0.0
  0
SPLINE
  5
130
100
AcDbEntity
  8
Layer_1
 62
7
100
AcDbSpline
 70
8
 71
3
 72
8
 73
4
 74
0
 40
0
 40
0
 40
0
 40
0
 40
1
 40
1
 40
1
 40
1
 10
212.754217
 20
613.926341
 30
0.0
 10
210.655485
 20
611.918348
 30
0.0
 10
208.938393
 20
610.161732
 30
0.0
 10
208.938393
 20
610.022798
 30
0.0
  0
SPLINE
  5
131
100
AcDbEntity
  8
Layer_1
 62
7
100
AcDbSpline
 70
8
 71
3
 72
8
 73
4
 74
0
 40
0
 40
0
 40
0
 40
0
 40
1
 40
1
 40
1
 40
1
 10
208.938393
 20
610.022798
 30
0.0
 10
208.938393
 20
609.781223
 30
0.0
 10
212.730088
 20
603.378714
 30
0.0
 10
214.867913
 20
600.010345
 30
0.0
  0
SPLINE
  5
132
100
AcDbEntity
  8
Layer_1
 62
7
100
AcDbSpline
 70
8
 71
3
 72
8
 73
4
 74
0
 40
0
 40
0
 40
0
 40
0
 40
1
 40
1
 40
1
 40
1
 10
214.867913
 20
600.010345
 30
0.0
 10
215.711866
 20
598.680615
 30
0.0
 10
215.778812
 20
598.177528
 30
0.0
 10
215.260903
 20
597.057023
 30
0.0
  0
SPLINE
  5
133
100
AcDbEntity
  8
Layer_1
 62
7
100
AcDbSpline
 70
8
 71
3
 72
8
 73
4
 74
0
 40
0
 40
0
 40
0
 40
0
 40
1
 40
1
 40
1
 40
1
 10
215.260903
 20
597.057023
 30
0.0
 10
214.675554
 20
595.790702
 30
0.0
 10
214.343986
 20
595.719626
 30
0.0
 10
209.945109
 20
595.917470
 30
0.0
  0
SPLINE
  5
134
100
AcDbEntity
  8
Layer_1
 62
7
100
AcDbSpline
 70
8
 71
3
 72
8
 73
4
 74
0
 40
0
 40
0
 40
0
 40
0
 40
1
 40
1
 40
1
 40
1
 10
209.945109
 20
595.917470
 30
0.0
 10
206.972813
 20
596.051025
 30
0.0
 10
205.317417
 20
595.904290
 30
0.0
 10
205.427863
 20
595.519073
 30
0.0
  0
SPLINE
  5
135
100
AcDbEntity
  8
Layer_1
 62
7
100
AcDbSpline
 70
8
 71
3
 72
8
 73
4
 74
0
 40
0
 40
0
 40
0
 40
0
 40
1
 40
1
 40
1
 40
1
 10
205.427863
 20
595.519073
 30
0.0
 10
205.787942
 20
594.260368
 30
0.0
 10
214.849077
 20
586.859843
 30
0.0
 10
220.082423
 20
583.550280
 30
0.0
  0
SPLINE
  5
136
100
AcDbEntity
  8
Layer_1
 62
7
100
AcDbSpline
 70
8
 71
3
 72
8
 73
4
 74
0
 40
0
 40
0
 40
0
 40
0
 40
1
 40
1
 40
1
 40
1
 10
220.082423
 20
583.550280
 30
0.0
 10
223.071662
 20
581.659847
 30
0.0
 10
225.590465
 20
579.693155
 30
0.0
 10
225.679672
 20
579.179818
 30
0.0
  0
SPLINE
  5
137
100
AcDbEntity
  8
Layer_1
 62
7
100
AcDbSpline
 70
8
 71
3
 72
8
 73
4
 74
0
 40
0
 40
0
 40
0
 40
0
 40
1
 40
1
 40
1
 40
1
 10
225.679672
 20
579.179818
 30
0.0
 10
225.904218
 20
577.887974
 30
0.0
 10
221.467904
 20
572.666372
 30
0.0
 10
220.145754
 20
572.666372
 30
0.0
  0
SPLINE
  5
138
100
AcDbEntity
  8
Layer_1
 62
7
100
AcDbSpline
 70
8
 71
3
 72
8
 73
4
 74
0
 40
0
 40
0
 40
0
 40
0
 40
1
 40
1
 40
1
 40
1
 10
220.145754
 20
572.666372
 30
0.0
 10
218.653336
 20
572.666372
 30
0.0
 10
217.719221
 20
571.187171
 30
0.0
 10
218.170908
 20
569.539287
 30
0.0
  0
SPLINE
  5
139
100
AcDbEntity
  8
Layer_1
 62
7
100
AcDbSpline
 70
8
 71
3
 72
8
 73
4
 74
0
 40
0
 40
0
 40
0
 40
0
 40
1
 40
1
 40
1
 40
1
 10
218.170908
 20
569.539287
 30
0.0
 10
219.180473
 20
565.856396
 30
0.0
 10
227.595098
 20
554.316293
 30
0.0
 10
231.132013
 20
551.764086
 30
0.0
  0
SPLINE
  5
13a
100
AcDbEntity
  8
Layer_1
 62
7
100
AcDbSpline
 70
8
 71
3
 72
8
 73
4
 74
0
 40
0
 40
0
 40
0
 40
0
 40
1
 40
1
 40
1
 40
1
 10
231.132013
 20
551.764086
 30
0.0
 10
231.807203
 20
551.276858
 30
0.0
 10
234.017504
 20
549.647363
 30
0.0
 10
236.043779
 20
548.142945
 30
0.0
  0
SPLINE
  5
13b
100
AcDbEntity
  8
Layer_1
 62
7
100
AcDbSpline
 70
8
 71
3
 72
8
 73
4
 74
0
 40
0
 40
0
 40
0
 40
0
 40
1
 40
1
 40
1
 40
1
 10
236.043779
 20
548.142945
 30
0.0
 10
238.070120
 20
546.638556
 30
0.0
 10
241.865215
 20
544.177681
 30
0.0
 10
244.477327
 20
542.674397
 30
0.0
  0
SPLINE
  5
13c
100
AcDbEntity
  8
Layer_1
 62
7
100
AcDbSpline
 70
8
 71
3
 72
8
 73
4
 74
0
 40
0
 40
0
 40
0
 40
0
 40
1
 40
1
 40
1
 40
1
 10
244.477327
 20
542.674397
 30
0.0
 10
250.715963
 20
539.083979
 30
0.0
 10
251.570205
 20
538.433000
 30
0.0
 10
251.570205
 20
537.269048
 30
0.0
  0
SPLINE
  5
13d
100
AcDbEntity
  8
Layer_1
 62
7
100
AcDbSpline
 70
8
 71
3
 72
8
 73
4
 74
0
 40
0
 40
0
 40
0
 40
0
 40
1
 40
1
 40
1
 40
1
 10
251.570205
 20
537.269048
 30
0.0
 10
251.570205
 20
535.582574
 30
0.0
 10
249.317788
 20
533.179310
 30
0.0
 10
246.185447
 20
531.523630
 30
0.0
  0
SPLINE
  5
13e
100
AcDbEntity
  8
Layer_1
 62
7
100
AcDbSpline
 70
8
 71
3
 72
8
 73
4
 74
0
 40
0
 40
0
 40
0
 40
0
 40
1
 40
1
 40
1
 40
1
 10
246.185447
 20
531.523630
 30
0.0
 10
244.526564
 20
530.646778
 30
0.0
 10
243.042585
 20
529.692080
 30
0.0
 10
242.887813
 20
529.402139
 30
0.0
  0
SPLINE
  5
13f
100
AcDbEntity
  8
Layer_1
 62
7
100
AcDbSpline
 70
8
 71
3
 72
8
 73
4
 74
0
 40
0
 40
0
 40
0
 40
0
 40
1
 40
1
 40
1
 40
1
 10
242.887813
 20
529.402139
 30
0.0
 10
242.407256
 20
528.501841
 30
0.0
 10
245.803237
 20
522.321585
 30
0.0
 10
251.690258
 20
513.382847
 30
0.0
  0
SPLINE
  5
140
100
AcDbEntity
  8
Layer_1
 62
7
100
AcDbSpline
 70
8
 71
3
 72
8
 73
4
 74
0
 40
0
 40
0
 40
0
 40
0
 40
1
 40
1
 40
1
 40
1
 10
251.690258
 20
513.382847
 30
0.0
 10
254.908808
 20
508.495779
 30
0.0
 10
262.364996
 20
500.147121
 30
0.0
 10
263.511028
 20
500.147121
 30
0.0
  0
SPLINE
  5
141
100
AcDbEntity
  8
Layer_1
 62
7
100
AcDbSpline
 70
8
 71
3
 72
8
 73
4
 74
0
 40
0
 40
0
 40
0
 40
0
 40
1
 40
1
 40
1
 40
1
 10
263.511028
 20
500.147121
 30
0.0
 10
264.582610
 20
500.147121
 30
0.0
 10
264.327152
 20
498.663674
 30
0.0
 10
263.017630
 20
497.281394
 30
0.0
  0
SPLINE
  5
142
100
AcDbEntity
  8
Layer_1
 62
7
100
AcDbSpline
 70
8
 71
3
 72
8
 73
4
 74
0
 40
0
 40
0
 40
0
 40
0
 40
1
 40
1
 40
1
 40
1
 10
263.017630
 20
497.281394
 30
0.0
 10
261.788239
 20
495.983693
 30
0.0
 10
259.560099
 20
495.039379
 30
0.0
 10
256.175470
 20
494.381498
 30
0.0
  0
SPLINE
  5
143
100
AcDbEntity
  8
Layer_1
 62
7
100
AcDbSpline
 70
8
 71
3
 72
8
 73
4
 74
0
 40
0
 40
0
 40
0
 40
0
 40
1
 40
1
 40
1
 40
1
 10
256.175470
 20
494.381498
 30
0.0
 10
253.336558
 20
493.829666
 30
0.0
 10
253.606408
 20
492.284472
 30
0.0
 10
257.228087
 20
488.353697
 30
0.0
  0
SPLINE
  5
144
100
AcDbEntity
  8
Layer_1
 62
7
100
AcDbSpline
 70
8
 71
3
 72
8
 73
4
 74
0
 40
0
 40
0
 40
0
 40
0
 40
1
 40
1
 40
1
 40
1
 10
257.228087
 20
488.353697
 30
0.0
 10
268.116506
 20
476.536167
 30
0.0
 10
270.578565
 20
474.081579
 30
0.0
 10
274.551372
 20
471.083185
 30
0.0
  0
SPLINE
  5
145
100
AcDbEntity
  8
Layer_1
 62
7
100
AcDbSpline
 70
8
 71
3
 72
8
 73
4
 74
0
 40
0
 40
0
 40
0
 40
0
 40
1
 40
1
 40
1
 40
1
 10
274.551372
 20
471.083185
 30
0.0
 10
276.991171
 20
469.241756
 30
0.0
 10
281.048868
 20
466.490783
 30
0.0
 10
283.568394
 20
464.969906
 30
0.0
  0
SPLINE
  5
146
100
AcDbEntity
  8
Layer_1
 62
7
100
AcDbSpline
 70
8
 71
3
 72
8
 73
4
 74
0
 40
0
 40
0
 40
0
 40
0
 40
1
 40
1
 40
1
 40
1
 10
283.568394
 20
464.969906
 30
0.0
 10
287.802802
 20
462.413849
 30
0.0
 10
293.627488
 20
458.217394
 30
0.0
 10
295.976381
 20
456.030414
 30
0.0
  0
SPLINE
  5
147
100
AcDbEntity
  8
Layer_1
 62
7
100
AcDbSpline
 70
8
 71
3
 72
8
 73
4
 74
0
 40
0
 40
0
 40
0
 40
0
 40
1
 40
1
 40
1
 40
1
 10
295.976381
 20
456.030414
 30
0.0
 10
297.287051
 20
454.810116
 30
0.0
 10
296.768523
 20
452.450772
 30
0.0
 10
294.858709
 20
450.944538
 30
0.0
  0
SPLINE
  5
148
100
AcDbEntity
  8
Layer_1
 62
7
100
AcDbSpline
 70
8
 71
3
 72
8
 73
4
 74
0
 40
0
 40
0
 40
0
 40
0
 40
1
 40
1
 40
1
 40
1
 10
294.858709
 20
450.944538
 30
0.0
 10
294.063335
 20
450.317265
 30
0.0
 10
291.636227
 20
448.873234
 30
0.0
 10
289.465152
 20
447.735578
 30
0.0
  0
SPLINE
  5
149
100
AcDbEntity
  8
Layer_1
 62
7
100
AcDbSpline
 70
8
 71
3
 72
8
 73
4
 74
0
 40
0
 40
0
 40
0
 40
0
 40
1
 40
1
 40
1
 40
1
 10
289.465152
 20
447.735578
 30
0.0
 10
286.192729
 20
446.020807
 30
0.0
 10
284.730330
 20
445.623047
 30
0.0
 10
280.912507
 20
445.409342
 30
0.0
  0
SPLINE
  5
14a
100
AcDbEntity
  8
Layer_1
 62
7
100
AcDbSpline
 70
8
 71
3
 72
8
 73
4
 74
0
 40
0
 40
0
 40
0
 40
0
 40
1
 40
1
 40
1
 40
1
 10
280.912507
 20
445.409342
 30
0.0
 10
278.379547
 20
445.267625
 30
0.0
 10
276.307200
 20
444.928751
 30
0.0
 10
276.307200
 20
444.656384
 30
0.0
  0
SPLINE
  5
14b
100
AcDbEntity
  8
Layer_1
 62
7
100
AcDbSpline
 70
8
 71
3
 72
8
 73
4
 74
0
 40
0
 40
0
 40
0
 40
0
 40
1
 40
1
 40
1
 40
1
 10
276.307200
 20
444.656384
 30
0.0
 10
276.307200
 20
440.172094
 30
0.0
 10
290.122823
 20
419.611519
 30
0.0
 10
296.044157
 20
415.283641
 30
0.0
  0
SPLINE
  5
14c
100
AcDbEntity
  8
Layer_1
 62
7
100
AcDbSpline
 70
8
 71
3
 72
8
 73
4
 74
0
 40
0
 40
0
 40
0
 40
0
 40
1
 40
1
 40
1
 40
1
 10
296.044157
 20
415.283641
 30
0.0
 10
297.202034
 20
414.437392
 30
0.0
 10
299.688925
 20
412.180299
 30
0.0
 10
301.570526
 20
410.267954
 30
0.0
  0
SPLINE
  5
14d
100
AcDbEntity
  8
Layer_1
 62
7
100
AcDbSpline
 70
8
 71
3
 72
8
 73
4
 74
0
 40
0
 40
0
 40
0
 40
0
 40
1
 40
1
 40
1
 40
1
 10
301.570526
 20
410.267954
 30
0.0
 10
303.452107
 20
408.355611
 30
0.0
 10
306.469601
 20
405.516699
 30
0.0
 10
308.276008
 20
403.959223
 30
0.0
  0
SPLINE
  5
14e
100
AcDbEntity
  8
Layer_1
 62
7
100
AcDbSpline
 70
8
 71
3
 72
8
 73
4
 74
0
 40
0
 40
0
 40
0
 40
0
 40
1
 40
1
 40
1
 40
1
 10
308.276008
 20
403.959223
 30
0.0
 10
311.833290
 20
400.892216
 30
0.0
 10
312.091130
 20
399.817148
 30
0.0
 10
309.814285
 20
397.545066
 30
0.0
  0
SPLINE
  5
14f
100
AcDbEntity
  8
Layer_1
 62
7
100
AcDbSpline
 70
8
 71
3
 72
8
 73
4
 74
0
 40
0
 40
0
 40
0
 40
0
 40
1
 40
1
 40
1
 40
1
 10
309.814285
 20
397.545066
 30
0.0
 10
307.691107
 20
395.426225
 30
0.0
 10
299.536662
 20
391.063663
 30
0.0
 10
297.699429
 20
391.063663
 30
0.0
  0
SPLINE
  5
150
100
AcDbEntity
  8
Layer_1
 62
7
100
AcDbSpline
 70
8
 71
3
 72
8
 73
4
 74
0
 40
0
 40
0
 40
0
 40
0
 40
1
 40
1
 40
1
 40
1
 10
297.699429
 20
391.063663
 30
0.0
 10
296.716649
 20
391.063663
 30
0.0
 10
295.172419
 20
390.892096
 30
0.0
 10
294.267812
 20
390.682749
 30
0.0
  0
SPLINE
  5
151
100
AcDbEntity
  8
Layer_1
 62
7
100
AcDbSpline
 70
8
 71
3
 72
8
 73
4
 74
0
 40
0
 40
0
 40
0
 40
0
 40
1
 40
1
 40
1
 40
1
 10
294.267812
 20
390.682749
 30
0.0
 10
292.919939
 20
390.370612
 30
0.0
 10
292.626405
 20
390.013129
 30
0.0
 10
292.641712
 20
388.702182
 30
0.0
  0
SPLINE
  5
152
100
AcDbEntity
  8
Layer_1
 62
7
100
AcDbSpline
 70
8
 71
3
 72
8
 73
4
 74
0
 40
0
 40
0
 40
0
 40
0
 40
1
 40
1
 40
1
 40
1
 10
292.641712
 20
388.702182
 30
0.0
 10
292.668712
 20
386.539589
 30
0.0
 10
293.396882
 20
385.163207
 30
0.0
 10
297.068797
 20
380.354420
 30
0.0
  0
SPLINE
  5
153
100
AcDbEntity
  8
Layer_1
 62
7
100
AcDbSpline
 70
8
 71
3
 72
8
 73
4
 74
0
 40
0
 40
0
 40
0
 40
0
 40
1
 40
1
 40
1
 40
1
 10
297.068797
 20
380.354420
 30
0.0
 10
301.438715
 20
374.631506
 30
0.0
 10
311.670972
 20
366.047183
 30
0.0
 10
321.290221
 20
360.033818
 30
0.0
  0
SPLINE
  5
154
100
AcDbEntity
  8
Layer_1
 62
7
100
AcDbSpline
 70
8
 71
3
 72
8
 73
4
 74
0
 40
0
 40
0
 40
0
 40
0
 40
1
 40
1
 40
1
 40
1
 10
321.290221
 20
360.033818
 30
0.0
 10
330.093051
 20
354.530877
 30
0.0
 10
331.323888
 20
353.431934
 30
0.0
 10
330.804935
 20
351.538767
 30
0.0
  0
SPLINE
  5
155
100
AcDbEntity
  8
Layer_1
 62
7
100
AcDbSpline
 70
8
 71
3
 72
8
 73
4
 74
0
 40
0
 40
0
 40
0
 40
0
 40
1
 40
1
 40
1
 40
1
 10
330.804935
 20
351.538767
 30
0.0
 10
330.270061
 20
349.587644
 30
0.0
 10
331.347699
 20
338.983829
 30
0.0
 10
328.186701
 20
337.114622
 30
0.0
  0
LWPOLYLINE
  5
156
100
AcDbEntity
  8
Layer_1
 62
7
100
AcDbPolyline
 90
3
 70
0
 10
182.608617
 20
604.445032
 30
0.0
 10
185.230292
 20
610.323965
 30
0.0
 10
182.412343
 20
613.333233
 30
0.0
  0
SPLINE
  5
157
100
AcDbEntity
  8
Layer_1
 62
7
100
AcDbSpline
 70
8
 71
3
 72
8
 73
4
 74
0
 40
0
 40
0
 40
0
 40
0
 40
1
 40
1
 40
1
 40
1
 10
86.271324
 20
45.773121
 30
0.0
 10
192.855299
 20
185.243386
 30
0.0
 10
294.617792
 20
45.773121
 30
0.0
 10
294.617792
 20
45.773121
 30
0.0
  0
SPLINE
  5
158
100
AcDbEntity
  8
Layer_1
 62
7
100
AcDbSpline
 70
8
 71
3
 72
8
 73
4
 74
0
 40
0
 40
0
 40
0
 40
0
 40
1
 40
1
 40
1
 40
1
 10
190.705695
 20
136.080701
 30
0.0
 10
182.573872
 20
136.753406
 30
0.0
 10
174.698535
 20
140.244206
 30
0.0
 10
168.440677
 20
145.949839
 30
0.0
  0
SPLINE
  5
159
100
AcDbEntity
  8
Layer_1
 62
7
100
AcDbSpline
 70
8
 71
3
 72
8
 73
4
 74
0
 40
0
 40
0
 40
0
 40
0
 40
1
 40
1
 40
1
 40
1
 10
168.440677
 20
145.949839
 30
0.0
 10
167.278920
 20
147.009064
 30
0.0
 10
167.010780
 20
147.166496
 30
0.0
 10
165.261982
 20
147.816019
 30
0.0
  0
SPLINE
  5
15a
100
AcDbEntity
  8
Layer_1
 62
7
100
AcDbSpline
 70
8
 71
3
 72
8
 73
4
 74
0
 40
0
 40
0
 40
0
 40
0
 40
1
 40
1
 40
1
 40
1
 10
165.261982
 20
147.816019
 30
0.0
 10
158.462212
 20
150.341539
 30
0.0
 10
152.555415
 20
153.568744
 30
0.0
 10
147.225660
 20
157.670036
 30
0.0
  0
SPLINE
  5
15b
100
AcDbEntity
  8
Layer_1
 62
7
100
AcDbSpline
 70
8
 71
3
 72
8
 73
4
 74
0
 40
0
 40
0
 40
0
 40
0
 40
1
 40
1
 40
1
 40
1
 10
147.225660
 20
157.670036
 30
0.0
 10
145.927560
 20
158.668954
 30
0.0
 10
145.158810
 20
159.135191
 30
0.0
 10
144.363405
 20
159.405874
 30
0.0
  0
SPLINE
  5
15c
100
AcDbEntity
  8
Layer_1
 62
7
100
AcDbSpline
 70
8
 71
3
 72
8
 73
4
 74
0
 40
0
 40
0
 40
0
 40
0
 40
1
 40
1
 40
1
 40
1
 10
144.363405
 20
159.405874
 30
0.0
 10
138.758273
 20
161.313274
 30
0.0
 10
131.724277
 20
167.230699
 30
0.0
 10
127.920322
 20
173.238874
 30
0.0
  0
SPLINE
  5
15d
100
AcDbEntity
  8
Layer_1
 62
7
100
AcDbSpline
 70
8
 71
3
 72
8
 73
4
 74
0
 40
0
 40
0
 40
0
 40
0
 40
1
 40
1
 40
1
 40
1
 10
127.920322
 20
173.238874
 30
0.0
 10
125.522392
 20
177.026201
 30
0.0
 10
123.774825
 20
181.447894
 30
0.0
 10
123.035017
 20
185.599616
 30
0.0
  0
SPLINE
  5
15e
100
AcDbEntity
  8
Layer_1
 62
7
100
AcDbSpline
 70
8
 71
3
 72
8
 73
4
 74
0
 40
0
 40
0
 40
0
 40
0
 40
1
 40
1
 40
1
 40
1
 10
123.035018
 20
185.599616
 30
0.0
 10
122.890095
 20
186.412481
 30
0.0
 10
122.250878
 20
188.570524
 30
0.0
 10
121.614345
 20
190.395304
 30
0.0
  0
SPLINE
  5
15f
100
AcDbEntity
  8
Layer_1
 62
7
100
AcDbSpline
 70
8
 71
3
 72
8
 73
4
 74
0
 40
0
 40
0
 40
0
 40
0
 40
1
 40
1
 40
1
 40
1
 10
121.614345
 20
190.395304
 30
0.0
 10
120.263115
 20
194.269129
 30
0.0
 10
119.431477
 20
197.145664
 30
0.0
 10
118.925370
 20
199.696106
 30
0.0
  0
SPLINE
  5
160
100
AcDbEntity
  8
Layer_1
 62
7
100
AcDbSpline
 70
8
 71
3
 72
8
 73
4
 74
0
 40
0
 40
0
 40
0
 40
0
 40
1
 40
1
 40
1
 40
1
 10
118.925370
 20
199.696106
 30
0.0
 10
118.564507
 20
201.515749
 30
0.0
 10
118.558808
 20
201.527531
 30
0.0
 10
117.531600
 20
202.733449
 30
0.0
  0
SPLINE
  5
161
100
AcDbEntity
  8
Layer_1
 62
7
100
AcDbSpline
 70
8
 71
3
 72
8
 73
4
 74
0
 40
0
 40
0
 40
0
 40
0
 40
1
 40
1
 40
1
 40
1
 10
117.531600
 20
202.733449
 30
0.0
 10
114.230722
 20
206.608376
 30
0.0
 10
111.814943
 20
211.374664
 30
0.0
 10
110.739368
 20
216.134374
 30
0.0
  0
SPLINE
  5
162
100
AcDbEntity
  8
Layer_1
 62
7
100
AcDbSpline
 70
8
 71
3
 72
8
 73
4
 74
0
 40
0
 40
0
 40
0
 40
0
 40
1
 40
1
 40
1
 40
1
 10
110.815853
 20
216.134374
 30
0.0
 10
109.866758
 20
220.902094
 30
0.0
 10
110.077515
 20
226.604006
 30
0.0
 10
111.381675
 20
231.442166
 30
0.0
  0
SPLINE
  5
163
100
AcDbEntity
  8
Layer_1
 62
7
100
AcDbSpline
 70
8
 71
3
 72
8
 73
4
 74
0
 40
0
 40
0
 40
0
 40
0
 40
1
 40
1
 40
1
 40
1
 10
111.381675
 20
231.442166
 30
0.0
 10
113.492610
 20
238.340674
 30
0.0
 10
117.994943
 20
244.868779
 30
0.0
 10
123.149528
 20
248.504681
 30
0.0
  0
SPLINE
  5
164
100
AcDbEntity
  8
Layer_1
 62
7
100
AcDbSpline
 70
8
 71
3
 72
8
 73
4
 74
0
 40
0
 40
0
 40
0
 40
0
 40
1
 40
1
 40
1
 40
1
 10
123.149527
 20
248.504681
 30
0.0
 10
124.097325
 20
249.173254
 30
0.0
 10
124.660732
 20
249.729304
 30
0.0
 10
125.282580
 20
250.609871
 30
0.0
  0
SPLINE
  5
165
100
AcDbEntity
  8
Layer_1
 62
7
100
AcDbSpline
 70
8
 71
3
 72
8
 73
4
 74
0
 40
0
 40
0
 40
0
 40
0
 40
1
 40
1
 40
1
 40
1
 10
125.282580
 20
250.609871
 30
0.0
 10
126.060803
 20
251.711824
 30
0.0
 10
126.127665
 20
251.881069
 30
0.0
 10
126.127665
 20
252.749599
 30
0.0
  0
SPLINE
  5
166
100
AcDbEntity
  8
Layer_1
 62
7
100
AcDbSpline
 70
8
 71
3
 72
8
 73
4
 74
0
 40
0
 40
0
 40
0
 40
0
 40
1
 40
1
 40
1
 40
1
 10
126.127665
 20
252.749599
 30
0.0
 10
126.127665
 20
254.192621
 30
0.0
 10
126.432165
 20
257.622581
 30
0.0
 10
126.726690
 20
259.493996
 30
0.0
  0
SPLINE
  5
167
100
AcDbEntity
  8
Layer_1
 62
7
100
AcDbSpline
 70
8
 71
3
 72
8
 73
4
 74
0
 40
0
 40
0
 40
0
 40
0
 40
1
 40
1
 40
1
 40
1
 10
126.726690
 20
259.493996
 30
0.0
 10
127.854300
 20
266.662616
 30
0.0
 10
130.602577
 20
272.211056
 30
0.0
 10
135.245557
 20
276.692764
 30
0.0
  0
SPLINE
  5
168
100
AcDbEntity
  8
Layer_1
 62
7
100
AcDbSpline
 70
8
 71
3
 72
8
 73
4
 74
0
 40
0
 40
0
 40
0
 40
0
 40
1
 40
1
 40
1
 40
1
 10
135.245557
 20
276.692764
 30
0.0
 10
137.992267
 20
279.344074
 30
0.0
 10
140.363580
 20
281.066681
 30
0.0
 10
143.952247
 20
283.017611
 30
0.0
  0
SPLINE
  5
169
100
AcDbEntity
  8
Layer_1
 62
7
100
AcDbSpline
 70
8
 71
3
 72
8
 73
4
 74
0
 40
0
 40
0
 40
0
 40
0
 40
1
 40
1
 40
1
 40
1
 10
143.952247
 20
283.017611
 30
0.0
 10
144.638595
 20
283.390924
 30
0.0
 10
145.143608
 20
283.748036
 30
0.0
 10
145.074563
 20
283.811681
 30
0.0
  0
SPLINE
  5
16a
100
AcDbEntity
  8
Layer_1
 62
7
100
AcDbSpline
 70
8
 71
3
 72
8
 73
4
 74
0
 40
0
 40
0
 40
0
 40
0
 40
1
 40
1
 40
1
 40
1
 10
145.074563
 20
283.811681
 30
0.0
 10
145.005413
 20
283.874981
 30
0.0
 10
144.459630
 20
284.046964
 30
0.0
 10
143.861513
 20
284.193589
 30
0.0
  0
SPLINE
  5
16b
100
AcDbEntity
  8
Layer_1
 62
7
100
AcDbSpline
 70
8
 71
3
 72
8
 73
4
 74
0
 40
0
 40
0
 40
0
 40
0
 40
1
 40
1
 40
1
 40
1
 10
143.861513
 20
284.193589
 30
0.0
 10
142.385632
 20
284.555134
 30
0.0
 10
140.579385
 20
285.385654
 30
0.0
 10
139.732260
 20
286.092229
 30
0.0
  0
SPLINE
  5
16c
100
AcDbEntity
  8
Layer_1
 62
7
100
AcDbSpline
 70
8
 71
3
 72
8
 73
4
 74
0
 40
0
 40
0
 40
0
 40
0
 40
1
 40
1
 40
1
 40
1
 10
139.732260
 20
286.092229
 30
0.0
 10
139.048755
 20
286.662326
 30
0.0
 10
138.006000
 20
288.366559
 30
0.0
 10
138.006000
 20
288.913511
 30
0.0
  0
SPLINE
  5
16d
100
AcDbEntity
  8
Layer_1
 62
7
100
AcDbSpline
 70
8
 71
3
 72
8
 73
4
 74
0
 40
0
 40
0
 40
0
 40
0
 40
1
 40
1
 40
1
 40
1
 10
138.006000
 20
288.913511
 30
0.0
 10
138.006000
 20
289.287259
 30
0.0
 10
137.746485
 20
289.456271
 30
0.0
 10
136.667595
 20
289.785281
 30
0.0
  0
SPLINE
  5
16e
100
AcDbEntity
  8
Layer_1
 62
7
100
AcDbSpline
 70
8
 71
3
 72
8
 73
4
 74
0
 40
0
 40
0
 40
0
 40
0
 40
1
 40
1
 40
1
 40
1
 10
136.667595
 20
289.785281
 30
0.0
 10
133.524840
 20
290.743699
 30
0.0
 10
131.620898
 20
292.377994
 30
0.0
 10
130.638330
 20
294.960724
 30
0.0
  0
SPLINE
  5
16f
100
AcDbEntity
  8
Layer_1
 62
7
100
AcDbSpline
 70
8
 71
3
 72
8
 73
4
 74
0
 40
0
 40
0
 40
0
 40
0
 40
1
 40
1
 40
1
 40
1
 10
130.638330
 20
294.960724
 30
0.0
 10
130.298325
 20
295.854596
 30
0.0
 10
130.015447
 20
296.205004
 30
0.0
 10
128.314853
 20
297.839899
 30
0.0
  0
SPLINE
  5
170
100
AcDbEntity
  8
Layer_1
 62
7
100
AcDbSpline
 70
8
 71
3
 72
8
 73
4
 74
0
 40
0
 40
0
 40
0
 40
0
 40
1
 40
1
 40
1
 40
1
 10
128.314853
 20
297.839899
 30
0.0
 10
125.949412
 20
300.113914
 30
0.0
 10
125.291152
 20
301.181771
 30
0.0
 10
125.291152
 20
302.745116
 30
0.0
  0
SPLINE
  5
171
100
AcDbEntity
  8
Layer_1
 62
7
100
AcDbSpline
 70
8
 71
3
 72
8
 73
4
 74
0
 40
0
 40
0
 40
0
 40
0
 40
1
 40
1
 40
1
 40
1
 10
125.291152
 20
302.745116
 30
0.0
 10
125.291152
 20
303.735709
 30
0.0
 10
125.281927
 20
303.757579
 30
0.0
 10
124.545608
 20
304.361224
 30
0.0
  0
SPLINE
  5
172
100
AcDbEntity
  8
Layer_1
 62
7
100
AcDbSpline
 70
8
 71
3
 72
8
 73
4
 74
0
 40
0
 40
0
 40
0
 40
0
 40
1
 40
1
 40
1
 40
1
 10
124.545608
 20
304.361224
 30
0.0
 10
122.329440
 20
306.180071
 30
0.0
 10
121.375763
 20
308.339329
 30
0.0
 10
121.766033
 20
310.654616
 30
0.0
  0
SPLINE
  5
173
100
AcDbEntity
  8
Layer_1
 62
7
100
AcDbSpline
 70
8
 71
3
 72
8
 73
4
 74
0
 40
0
 40
0
 40
0
 40
0
 40
1
 40
1
 40
1
 40
1
 10
120.864742
 20
312.724811
 30
0.0
 10
119.085060
 20
314.447066
 30
0.0
 10
118.312950
 20
316.287386
 30
0.0
 10
118.761705
 20
317.737571
 30
0.0
  0
SPLINE
  5
174
100
AcDbEntity
  8
Layer_1
 62
7
100
AcDbSpline
 70
8
 71
3
 72
8
 73
4
 74
0
 40
0
 40
0
 40
0
 40
0
 40
1
 40
1
 40
1
 40
1
 10
118.761705
 20
317.737571
 30
0.0
 10
118.874415
 20
318.102289
 30
0.0
 10
119.081828
 20
318.524554
 30
0.0
 10
119.222490
 20
318.675544
 30
0.0
  0
SPLINE
  5
175
100
AcDbEntity
  8
Layer_1
 62
7
100
AcDbSpline
 70
8
 71
3
 72
8
 73
4
 74
0
 40
0
 40
0
 40
0
 40
0
 40
1
 40
1
 40
1
 40
1
 10
119.222490
 20
318.675544
 30
0.0
 10
119.454060
 20
318.924439
 30
0.0
 10
119.430375
 20
319.021144
 30
0.0
 10
118.965338
 20
319.714564
 30
0.0
  0
SPLINE
  5
176
100
AcDbEntity
  8
Layer_1
 62
7
100
AcDbSpline
 70
8
 71
3
 72
8
 73
4
 74
0
 40
0
 40
0
 40
0
 40
0
 40
1
 40
1
 40
1
 40
1
 10
118.965338
 20
319.714564
 30
0.0
 10
117.721830
 20
321.568871
 30
0.0
 10
116.994525
 20
323.641669
 30
0.0
 10
117.196545
 20
324.755696
 30
0.0
  0
SPLINE
  5
177
100
AcDbEntity
  8
Layer_1
 62
7
100
AcDbSpline
 70
8
 71
3
 72
8
 73
4
 74
0
 40
0
 40
0
 40
0
 40
0
 40
1
 40
1
 40
1
 40
1
 10
117.196545
 20
324.755696
 30
0.0
 10
117.332010
 20
325.503281
 30
0.0
 10
117.700522
 20
326.385439
 30
0.0
 10
118.180582
 20
327.112046
 30
0.0
  0
LWPOLYLINE
  5
178
100
AcDbEntity
  8
Layer_1
 62
7
100
AcDbPolyline
 90
3
 70
0
 10
184.998818
 20
622.967236
 30
0.0
 10
189.217406
 20
623.379444
 30
0.0
 10
191.132280
 20
627.122027
 30
0.0
  0
SPLINE
  5
179
100
AcDbEntity
  8
Layer_1
 62
7
100
AcDbSpline
 70
8
 71
3
 72
8
 73
4
 74
0
 40
0
 40
0
 40
0
 40
0
 40
1
 40
1
 40
1
 40
1
 10
118.259663
 20
328.565396
 30
0.0
 10
117.557595
 20
330.267394
 30
0.0
 10
117.562282
 20
332.350691
 30
0.0
 10
118.268888
 20
333.678551
 30
0.0
  0
SPLINE
  5
17a
100
AcDbEntity
  8
Layer_1
 62
7
100
AcDbSpline
 70
8
 71
3
 72
8
 73
4
 74
0
 40
0
 40
0
 40
0
 40
0
 40
1
 40
1
 40
1
 40
1
 10
118.268918
 20
333.678551
 30
0.0
 10
119.271420
 20
335.556199
 30
0.0
 10
121.386765
 20
336.539156
 30
0.0
 10
124.432815
 20
336.542839
 30
0.0
  0
LWPOLYLINE
  5
17b
100
AcDbEntity
  8
Layer_1
 62
7
100
AcDbPolyline
 90
3
 70
0
 10
121.766033
 20
310.654616
 30
0.0
 10
121.939838
 20
311.684411
 30
0.0
 10
120.864743
 20
312.724811
 30
0.0
  0
SPLINE
  5
17c
100
AcDbEntity
  8
Layer_1
 62
7
100
AcDbSpline
 70
8
 71
3
 72
8
 73
4
 74
0
 40
0
 40
0
 40
0
 40
0
 40
1
 40
1
 40
1
 40
1
 10
126.892733
 20
337.430584
 30
0.0
 10
128.478150
 20
339.007106
 30
0.0
 10
130.851165
 20
339.741784
 30
0.0
 10
134.358240
 20
339.741784
 30
0.0
  0
SPLINE
  5
17d
100
AcDbEntity
  8
Layer_1
 62
7
100
AcDbSpline
 70
8
 71
3
 72
8
 73
4
 74
0
 40
0
 40
0
 40
0
 40
0
 40
1
 40
1
 40
1
 40
1
 10
134.358240
 20
339.741784
 30
0.0
 10
136.188870
 20
339.741784
 30
0.0
 10
136.208340
 20
339.745534
 30
0.0
 10
136.802722
 20
340.244449
 30
0.0
  0
SPLINE
  5
17e
100
AcDbEntity
  8
Layer_1
 62
7
100
AcDbSpline
 70
8
 71
3
 72
8
 73
4
 74
0
 40
0
 40
0
 40
0
 40
0
 40
1
 40
1
 40
1
 40
1
 10
136.802722
 20
340.244449
 30
0.0
 10
137.952360
 20
341.208941
 30
0.0
 10
138.695010
 20
341.419661
 30
0.0
 10
140.966730
 20
341.425901
 30
0.0
  0
SPLINE
  5
17f
100
AcDbEntity
  8
Layer_1
 62
7
100
AcDbSpline
 70
8
 71
3
 72
8
 73
4
 74
0
 40
0
 40
0
 40
0
 40
0
 40
1
 40
1
 40
1
 40
1
 10
140.966730
 20
341.425901
 30
0.0
 10
142.785667
 20
341.429651
 30
0.0
 10
143.050912
 20
341.466626
 30
0.0
 10
143.392597
 20
341.760049
 30
0.0
  0
SPLINE
  5
180
100
AcDbEntity
  8
Layer_1
 62
7
100
AcDbSpline
 70
8
 71
3
 72
8
 73
4
 74
0
 40
0
 40
0
 40
0
 40
0
 40
1
 40
1
 40
1
 40
1
 10
143.392598
 20
341.760049
 30
0.0
 10
145.354883
 20
343.438721
 30
0.0
 10
148.304280
 20
343.668169
 30
0.0
 10
151.443862
 20
342.386501
 30
0.0
  0
LWPOLYLINE
  5
181
100
AcDbEntity
  8
Layer_1
 62
7
100
AcDbPolyline
 90
3
 70
0
 10
118.180582
 20
327.112046
 30
0.0
 10
118.598272
 20
327.744146
 30
0.0
 10
118.259662
 20
328.565396
 30
0.0
  0
SPLINE
  5
182
100
AcDbEntity
  8
Layer_1
 62
7
100
AcDbSpline
 70
8
 71
3
 72
8
 73
4
 74
0
 40
0
 40
0
 40
0
 40
0
 40
1
 40
1
 40
1
 40
1
 10
153.451470
 20
342.891941
 30
0.0
 10
154.769325
 20
343.631501
 30
0.0
 10
154.861335
 20
343.657819
 30
0.0
 10
156.029775
 20
343.630601
 30
0.0
  0
SPLINE
  5
183
100
AcDbEntity
  8
Layer_1
 62
7
100
AcDbSpline
 70
8
 71
3
 72
8
 73
4
 74
0
 40
0
 40
0
 40
0
 40
0
 40
1
 40
1
 40
1
 40
1
 10
156.029775
 20
343.630601
 30
0.0
 10
157.387695
 20
343.598276
 30
0.0
 10
158.648670
 20
343.291091
 30
0.0
 10
160.231868
 20
342.605359
 30
0.0
  0
SPLINE
  5
184
100
AcDbEntity
  8
Layer_1
 62
7
100
AcDbSpline
 70
8
 71
3
 72
8
 73
4
 74
0
 40
0
 40
0
 40
0
 40
0
 40
1
 40
1
 40
1
 40
1
 10
160.231868
 20
342.605359
 30
0.0
 10
161.289915
 20
342.146944
 30
0.0
 10
161.311935
 20
342.144544
 30
0.0
 10
162.266468
 20
342.380816
 30
0.0
  0
SPLINE
  5
185
100
AcDbEntity
  8
Layer_1
 62
7
100
AcDbSpline
 70
8
 71
3
 72
8
 73
4
 74
0
 40
0
 40
0
 40
0
 40
0
 40
1
 40
1
 40
1
 40
1
 10
162.266468
 20
342.380816
 30
0.0
 10
163.470847
 20
342.679144
 30
0.0
 10
165.030840
 20
342.687731
 30
0.0
 10
165.880763
 20
342.399191
 30
0.0
  0
SPLINE
  5
186
100
AcDbEntity
  8
Layer_1
 62
7
100
AcDbSpline
 70
8
 71
3
 72
8
 73
4
 74
0
 40
0
 40
0
 40
0
 40
0
 40
1
 40
1
 40
1
 40
1
 10
165.880763
 20
342.399169
 30
0.0
 10
166.237358
 20
342.278779
 30
0.0
 10
167.131455
 20
341.829259
 30
0.0
 10
167.867572
 20
341.400064
 30
0.0
  0
SPLINE
  5
187
100
AcDbEntity
  8
Layer_1
 62
7
100
AcDbSpline
 70
8
 71
3
 72
8
 73
4
 74
0
 40
0
 40
0
 40
0
 40
0
 40
1
 40
1
 40
1
 40
1
 10
167.867572
 20
341.400064
 30
0.0
 10
169.201815
 20
340.622179
 30
0.0
 10
169.210103
 20
340.619854
 30
0.0
 10
170.544383
 20
340.656964
 30
0.0
  0
SPLINE
  5
188
100
AcDbEntity
  8
Layer_1
 62
7
100
AcDbSpline
 70
8
 71
3
 72
8
 73
4
 74
0
 40
0
 40
0
 40
0
 40
0
 40
1
 40
1
 40
1
 40
1
 10
170.544382
 20
340.656964
 30
0.0
 10
173.486970
 20
340.738999
 30
0.0
 10
175.015793
 20
340.132751
 30
0.0
 10
177.373747
 20
337.949396
 30
0.0
  0
LWPOLYLINE
  5
189
100
AcDbEntity
  8
Layer_1
 62
7
100
AcDbPolyline
 90
3
 70
0
 10
124.432815
 20
336.542839
 30
0.0
 10
126.001950
 20
336.544339
 30
0.0
 10
126.892733
 20
337.430246
 30
0.0
  0
SPLINE
  5
18a
100
AcDbEntity
  8
Layer_1
 62
7
100
AcDbSpline
 70
8
 71
3
 72
8
 73
4
 74
0
 40
0
 40
0
 40
0
 40
0
 40
1
 40
1
 40
1
 40
1
 10
180.126330
 20
336.543379
 30
0.0
 10
181.264837
 20
336.543379
 30
0.0
 10
181.449862
 20
336.493654
 30
0.0
 10
182.512702
 20
335.900441
 30
0.0
  0
SPLINE
  5
18b
100
AcDbEntity
  8
Layer_1
 62
7
100
AcDbSpline
 70
8
 71
3
 72
8
 73
4
 74
0
 40
0
 40
0
 40
0
 40
0
 40
1
 40
1
 40
1
 40
1
 10
182.512702
 20
335.900441
 30
0.0
 10
185.048198
 20
334.485499
 30
0.0
 10
187.368270
 20
332.376199
 30
0.0
 10
189.454058
 20
329.589664
 30
0.0
  0
SPLINE
  5
18c
100
AcDbEntity
  8
Layer_1
 62
7
100
AcDbSpline
 70
8
 71
3
 72
8
 73
4
 74
0
 40
0
 40
0
 40
0
 40
0
 40
1
 40
1
 40
1
 40
1
 10
189.454058
 20
329.589664
 30
0.0
 10
190.795215
 20
327.797906
 30
0.0
 10
192.961327
 20
323.665339
 30
0.0
 10
193.914578
 20
321.079751
 30
0.0
  0
SPLINE
  5
18d
100
AcDbEntity
  8
Layer_1
 62
7
100
AcDbSpline
 70
8
 71
3
 72
8
 73
4
 74
0
 40
0
 40
0
 40
0
 40
0
 40
1
 40
1
 40
1
 40
1
 10
193.914578
 20
321.079751
 30
0.0
 10
194.310960
 20
320.004079
 30
0.0
 10
194.673285
 20
319.123774
 30
0.0
 10
194.719313
 20
319.123609
 30
0.0
  0
SPLINE
  5
18e
100
AcDbEntity
  8
Layer_1
 62
7
100
AcDbSpline
 70
8
 71
3
 72
8
 73
4
 74
0
 40
0
 40
0
 40
0
 40
0
 40
1
 40
1
 40
1
 40
1
 10
194.719313
 20
319.123609
 30
0.0
 10
194.766638
 20
319.123421
 30
0.0
 10
195.059318
 20
319.715741
 30
0.0
 10
195.372697
 20
320.439971
 30
0.0
  0
SPLINE
  5
18f
100
AcDbEntity
  8
Layer_1
 62
7
100
AcDbSpline
 70
8
 71
3
 72
8
 73
4
 74
0
 40
0
 40
0
 40
0
 40
0
 40
1
 40
1
 40
1
 40
1
 10
195.372698
 20
320.439971
 30
0.0
 10
196.467593
 20
322.970231
 30
0.0
 10
198.637163
 20
326.879809
 30
0.0
 10
200.137058
 20
329.025394
 30
0.0
  0
SPLINE
  5
190
100
AcDbEntity
  8
Layer_1
 62
7
100
AcDbSpline
 70
8
 71
3
 72
8
 73
4
 74
0
 40
0
 40
0
 40
0
 40
0
 40
1
 40
1
 40
1
 40
1
 10
200.137057
 20
329.025394
 30
0.0
 10
201.897795
 20
331.544141
 30
0.0
 10
204.913822
 20
334.577794
 30
0.0
 10
206.871082
 20
335.798801
 30
0.0
  0
SPLINE
  5
191
100
AcDbEntity
  8
Layer_1
 62
7
100
AcDbSpline
 70
8
 71
3
 72
8
 73
4
 74
0
 40
0
 40
0
 40
0
 40
0
 40
1
 40
1
 40
1
 40
1
 10
206.871082
 20
335.798801
 30
0.0
 10
208.020120
 20
336.515629
 30
0.0
 10
208.111042
 20
336.543379
 30
0.0
 10
209.305582
 20
336.543379
 30
0.0
  0
LWPOLYLINE
  5
192
100
AcDbEntity
  8
Layer_1
 62
7
100
AcDbPolyline
 90
3
 70
0
 10
151.443862
 20
342.386501
 30
0.0
 10
152.084842
 20
342.125051
 30
0.0
 10
153.451470
 20
342.891941
 30
0.0
  0
SPLINE
  5
193
100
AcDbEntity
  8
Layer_1
 62
7
100
AcDbSpline
 70
8
 71
3
 72
8
 73
4
 74
0
 40
0
 40
0
 40
0
 40
0
 40
1
 40
1
 40
1
 40
1
 10
212.064870
 20
337.949396
 30
0.0
 10
214.422840
 20
340.132751
 30
0.0
 10
215.951662
 20
340.738871
 30
0.0
 10
218.894250
 20
340.656964
 30
0.0
  0
SPLINE
  5
194
100
AcDbEntity
  8
Layer_1
 62
7
100
AcDbSpline
 70
8
 71
3
 72
8
 73
4
 74
0
 40
0
 40
0
 40
0
 40
0
 40
1
 40
1
 40
1
 40
1
 10
218.894250
 20
340.656964
 30
0.0
 10
220.228477
 20
340.620814
 30
0.0
 10
220.236803
 20
340.620814
 30
0.0
 10
221.571053
 20
341.400064
 30
0.0
  0
SPLINE
  5
195
100
AcDbEntity
  8
Layer_1
 62
7
100
AcDbSpline
 70
8
 71
3
 72
8
 73
4
 74
0
 40
0
 40
0
 40
0
 40
0
 40
1
 40
1
 40
1
 40
1
 10
221.571053
 20
341.400064
 30
0.0
 10
222.307162
 20
341.829461
 30
0.0
 10
223.201223
 20
342.278869
 30
0.0
 10
223.557870
 20
342.399169
 30
0.0
  0
SPLINE
  5
196
100
AcDbEntity
  8
Layer_1
 62
7
100
AcDbSpline
 70
8
 71
3
 72
8
 73
4
 74
0
 40
0
 40
0
 40
0
 40
0
 40
1
 40
1
 40
1
 40
1
 10
223.557870
 20
342.399169
 30
0.0
 10
224.412510
 20
342.687454
 30
0.0
 10
225.969555
 20
342.677089
 30
0.0
 10
227.191943
 20
342.370519
 30
0.0
  0
LWPOLYLINE
  5
197
100
AcDbEntity
  8
Layer_1
 62
7
100
AcDbPolyline
 90
3
 70
0
 10
177.373748
 20
337.949396
 30
0.0
 10
178.892160
 20
336.543379
 30
0.0
 10
180.126330
 20
336.543379
 30
0.0
  0
SPLINE
  5
198
100
AcDbEntity
  8
Layer_1
 62
7
100
AcDbSpline
 70
8
 71
3
 72
8
 73
4
 74
0
 40
0
 40
0
 40
0
 40
0
 40
1
 40
1
 40
1
 40
1
 10
229.725585
 20
342.754811
 30
0.0
 10
231.837195
 20
343.611131
 30
0.0
 10
232.603072
 20
343.786361
 30
0.0
 10
233.741190
 20
343.673696
 30
0.0
  0
SPLINE
  5
199
100
AcDbEntity
  8
Layer_1
 62
7
100
AcDbSpline
 70
8
 71
3
 72
8
 73
4
 74
0
 40
0
 40
0
 40
0
 40
0
 40
1
 40
1
 40
1
 40
1
 10
233.741190
 20
343.673696
 30
0.0
 10
234.855277
 20
343.563394
 30
0.0
 10
235.603815
 20
343.291331
 30
0.0
 10
236.648205
 20
342.618011
 30
0.0
  0
SPLINE
  5
19a
100
AcDbEntity
  8
Layer_1
 62
7
100
AcDbSpline
 70
8
 71
3
 72
8
 73
4
 74
0
 40
0
 40
0
 40
0
 40
0
 40
1
 40
1
 40
1
 40
1
 10
236.648205
 20
342.618011
 30
0.0
 10
237.382695
 20
342.144431
 30
0.0
 10
237.406027
 20
342.140546
 30
0.0
 10
238.015552
 20
342.389861
 30
0.0
  0
SPLINE
  5
19b
100
AcDbEntity
  8
Layer_1
 62
7
100
AcDbSpline
 70
8
 71
3
 72
8
 73
4
 74
0
 40
0
 40
0
 40
0
 40
0
 40
1
 40
1
 40
1
 40
1
 10
238.015552
 20
342.389861
 30
0.0
 10
239.506710
 20
343.000076
 30
0.0
 10
240.336780
 20
343.161341
 30
0.0
 10
241.981732
 20
343.160366
 30
0.0
  0
SPLINE
  5
19c
100
AcDbEntity
  8
Layer_1
 62
7
100
AcDbSpline
 70
8
 71
3
 72
8
 73
4
 74
0
 40
0
 40
0
 40
0
 40
0
 40
1
 40
1
 40
1
 40
1
 10
241.981733
 20
343.160366
 30
0.0
 10
243.859823
 20
343.158866
 30
0.0
 10
245.153115
 20
342.838039
 30
0.0
 10
247.123793
 20
341.883679
 30
0.0
  0
LWPOLYLINE
  5
19d
100
AcDbEntity
  8
Layer_1
 62
7
100
AcDbPolyline
 90
3
 70
0
 10
209.305583
 20
336.543379
 30
0.0
 10
210.546413
 20
336.543379
 30
0.0
 10
212.064870
 20
337.949396
 30
0.0
  0
SPLINE
  5
19e
100
AcDbEntity
  8
Layer_1
 62
7
100
AcDbSpline
 70
8
 71
3
 72
8
 73
4
 74
0
 40
0
 40
0
 40
0
 40
0
 40
1
 40
1
 40
1
 40
1
 10
249.549615
 20
341.512954
 30
0.0
 10
251.964750
 20
341.838146
 30
0.0
 10
253.634415
 20
341.431654
 30
0.0
 10
254.539418
 20
340.297871
 30
0.0
  0
LWPOLYLINE
  5
19f
100
AcDbEntity
  8
Layer_1
 62
7
100
AcDbPolyline
 90
3
 70
0
 10
227.191943
 20
342.370541
 30
0.0
 10
228.176693
 20
342.126634
 30
0.0
 10
229.725585
 20
342.754811
 30
0.0
  0
SPLINE
  5
1a0
100
AcDbEntity
  8
Layer_1
 62
7
100
AcDbSpline
 70
8
 71
3
 72
8
 73
4
 74
0
 40
0
 40
0
 40
0
 40
0
 40
1
 40
1
 40
1
 40
1
 10
256.793130
 20
339.736924
 30
0.0
 10
260.242088
 20
339.736924
 30
0.0
 10
262.641480
 20
338.994499
 30
0.0
 10
264.199335
 20
337.445246
 30
0.0
  0
LWPOLYLINE
  5
1a1
100
AcDbEntity
  8
Layer_1
 62
7
100
AcDbPolyline
 90
3
 70
0
 10
247.123792
 20
341.883679
 30
0.0
 10
248.250615
 20
341.337866
 30
0.0
 10
249.549615
 20
341.512954
 30
0.0
  0
SPLINE
  5
1a2
100
AcDbEntity
  8
Layer_1
 62
7
100
AcDbSpline
 70
8
 71
3
 72
8
 73
4
 74
0
 40
0
 40
0
 40
0
 40
0
 40
1
 40
1
 40
1
 40
1
 10
266.828655
 20
336.516911
 30
0.0
 10
268.324065
 20
336.463886
 30
0.0
 10
268.726440
 20
336.389359
 30
0.0
 10
269.520607
 20
336.018214
 30
0.0
  0
SPLINE
  5
1a3
100
AcDbEntity
  8
Layer_1
 62
7
100
AcDbSpline
 70
8
 71
3
 72
8
 73
4
 74
0
 40
0
 40
0
 40
0
 40
0
 40
1
 40
1
 40
1
 40
1
 10
269.520607
 20
336.018214
 30
0.0
 10
270.743767
 20
335.446414
 30
0.0
 10
271.625835
 20
334.608761
 30
0.0
 10
272.144378
 20
333.526459
 30
0.0
  0
SPLINE
  5
1a4
100
AcDbEntity
  8
Layer_1
 62
7
100
AcDbSpline
 70
8
 71
3
 72
8
 73
4
 74
0
 40
0
 40
0
 40
0
 40
0
 40
1
 40
1
 40
1
 40
1
 10
272.144378
 20
333.526459
 30
0.0
 10
272.737042
 20
332.289559
 30
0.0
 10
272.729677
 20
330.529399
 30
0.0
 10
272.124953
 20
328.877486
 30
0.0
  0
LWPOLYLINE
  5
1a5
100
AcDbEntity
  8
Layer_1
 62
7
100
AcDbPolyline
 90
3
 70
0
 10
254.539418
 20
340.297871
 30
0.0
 10
254.987430
 20
339.736924
 30
0.0
 10
256.793130
 20
339.736924
 30
0.0
  0
SPLINE
  5
1a6
100
AcDbEntity
  8
Layer_1
 62
7
100
AcDbSpline
 70
8
 71
3
 72
8
 73
4
 74
0
 40
0
 40
0
 40
0
 40
0
 40
1
 40
1
 40
1
 40
1
 10
272.169503
 20
326.390464
 30
0.0
 10
273.190335
 20
323.626931
 30
0.0
 10
272.981378
 20
321.963911
 30
0.0
 10
271.322558
 20
319.649764
 30
0.0
  0
SPLINE
  5
1a7
100
AcDbEntity
  8
Layer_1
 62
7
100
AcDbSpline
 70
8
 71
3
 72
8
 73
4
 74
0
 40
0
 40
0
 40
0
 40
0
 40
1
 40
1
 40
1
 40
1
 10
271.322558
 20
319.649764
 30
0.0
 10
270.866070
 20
319.012661
 30
0.0
 10
270.853740
 20
318.948484
 30
0.0
 10
271.031415
 20
318.104389
 30
0.0
  0
SPLINE
  5
1a8
100
AcDbEntity
  8
Layer_1
 62
7
100
AcDbSpline
 70
8
 71
3
 72
8
 73
4
 74
0
 40
0
 40
0
 40
0
 40
0
 40
1
 40
1
 40
1
 40
1
 10
271.031415
 20
318.104389
 30
0.0
 10
271.374908
 20
316.470701
 30
0.0
 10
270.751890
 20
314.422369
 30
0.0
 10
269.253503
 20
312.256579
 30
0.0
  0
LWPOLYLINE
  5
1a9
100
AcDbEntity
  8
Layer_1
 62
7
100
AcDbPolyline
 90
3
 70
0
 10
264.199335
 20
337.445246
 30
0.0
 10
265.070438
 20
336.578944
 30
0.0
 10
266.828655
 20
336.516919
 30
0.0
  0
SPLINE
  5
1aa
100
AcDbEntity
  8
Layer_1
 62
7
100
AcDbSpline
 70
8
 71
3
 72
8
 73
4
 74
0
 40
0
 40
0
 40
0
 40
0
 40
1
 40
1
 40
1
 40
1
 10
268.426598
 20
309.459086
 30
0.0
 10
268.419022
 20
308.014211
 30
0.0
 10
268.366598
 20
307.745546
 30
0.0
 10
267.930578
 20
306.886541
 30
0.0
  0
SPLINE
  5
1ab
100
AcDbEntity
  8
Layer_1
 62
7
100
AcDbSpline
 70
8
 71
3
 72
8
 73
4
 74
0
 40
0
 40
0
 40
0
 40
0
 40
1
 40
1
 40
1
 40
1
 10
267.930578
 20
306.886541
 30
0.0
 10
267.616560
 20
306.267544
 30
0.0
 10
267.022020
 20
305.530624
 30
0.0
 10
266.254087
 20
304.808441
 30
0.0
  0
SPLINE
  5
1ac
100
AcDbEntity
  8
Layer_1
 62
7
100
AcDbSpline
 70
8
 71
3
 72
8
 73
4
 74
0
 40
0
 40
0
 40
0
 40
0
 40
1
 40
1
 40
1
 40
1
 10
266.254087
 20
304.808441
 30
0.0
 10
265.083577
 20
303.707554
 30
0.0
 10
265.060957
 20
303.670556
 30
0.0
 10
264.858360
 20
302.525944
 30
0.0
  0
SPLINE
  5
1ad
100
AcDbEntity
  8
Layer_1
 62
7
100
AcDbSpline
 70
8
 71
3
 72
8
 73
4
 74
0
 40
0
 40
0
 40
0
 40
0
 40
1
 40
1
 40
1
 40
1
 10
264.858360
 20
302.525944
 30
0.0
 10
264.567203
 20
300.881801
 30
0.0
 10
263.716987
 20
299.359601
 30
0.0
 10
262.347090
 20
298.030369
 30
0.0
  0
SPLINE
  5
1ae
100
AcDbEntity
  8
Layer_1
 62
7
100
AcDbSpline
 70
8
 71
3
 72
8
 73
4
 74
0
 40
0
 40
0
 40
0
 40
0
 40
1
 40
1
 40
1
 40
1
 10
262.347090
 20
298.030369
 30
0.0
 10
261.728977
 20
297.430601
 30
0.0
 10
260.796502
 20
296.710526
 30
0.0
 10
260.274862
 20
296.430206
 30
0.0
  0
SPLINE
  5
1af
100
AcDbEntity
  8
Layer_1
 62
7
100
AcDbSpline
 70
8
 71
3
 72
8
 73
4
 74
0
 40
0
 40
0
 40
0
 40
0
 40
1
 40
1
 40
1
 40
1
 10
260.274862
 20
296.430206
 30
0.0
 10
259.162432
 20
295.832366
 30
0.0
 10
259.116285
 20
295.782229
 30
0.0
 10
258.716460
 20
294.737464
 30
0.0
  0
SPLINE
  5
1b0
100
AcDbEntity
  8
Layer_1
 62
7
100
AcDbSpline
 70
8
 71
3
 72
8
 73
4
 74
0
 40
0
 40
0
 40
0
 40
0
 40
1
 40
1
 40
1
 40
1
 10
258.716460
 20
294.737464
 30
0.0
 10
258.283613
 20
293.606929
 30
0.0
 10
257.455973
 20
292.418944
 30
0.0
 10
256.630260
 20
291.743629
 30
0.0
  0
SPLINE
  5
1b1
100
AcDbEntity
  8
Layer_1
 62
7
100
AcDbSpline
 70
8
 71
3
 72
8
 73
4
 74
0
 40
0
 40
0
 40
0
 40
0
 40
1
 40
1
 40
1
 40
1
 10
256.630260
 20
291.743629
 30
0.0
 10
255.786952
 20
291.053899
 30
0.0
 10
254.049517
 20
290.169296
 30
0.0
 10
252.774585
 20
289.780459
 30
0.0
  0
SPLINE
  5
1b2
100
AcDbEntity
  8
Layer_1
 62
7
100
AcDbSpline
 70
8
 71
3
 72
8
 73
4
 74
0
 40
0
 40
0
 40
0
 40
0
 40
1
 40
1
 40
1
 40
1
 10
252.774585
 20
289.780459
 30
0.0
 10
251.695680
 20
289.451689
 30
0.0
 10
251.436165
 20
289.282399
 30
0.0
 10
251.436165
 20
288.908681
 30
0.0
  0
SPLINE
  5
1b3
100
AcDbEntity
  8
Layer_1
 62
7
100
AcDbSpline
 70
8
 71
3
 72
8
 73
4
 74
0
 40
0
 40
0
 40
0
 40
0
 40
1
 40
1
 40
1
 40
1
 10
251.436165
 20
288.908681
 30
0.0
 10
251.436165
 20
288.361766
 30
0.0
 10
250.393372
 20
286.657534
 30
0.0
 10
249.709920
 20
286.087406
 30
0.0
  0
SPLINE
  5
1b4
100
AcDbEntity
  8
Layer_1
 62
7
100
AcDbSpline
 70
8
 71
3
 72
8
 73
4
 74
0
 40
0
 40
0
 40
0
 40
0
 40
1
 40
1
 40
1
 40
1
 10
249.709920
 20
286.087406
 30
0.0
 10
248.862780
 20
285.380824
 30
0.0
 10
247.056525
 20
284.550304
 30
0.0
 10
245.580697
 20
284.188759
 30
0.0
  0
SPLINE
  5
1b5
100
AcDbEntity
  8
Layer_1
 62
7
100
AcDbSpline
 70
8
 71
3
 72
8
 73
4
 74
0
 40
0
 40
0
 40
0
 40
0
 40
1
 40
1
 40
1
 40
1
 10
245.580697
 20
284.188759
 30
0.0
 10
244.982557
 20
284.042306
 30
0.0
 10
244.434450
 20
283.868599
 30
0.0
 10
244.362675
 20
283.801864
 30
0.0
  0
SPLINE
  5
1b6
100
AcDbEntity
  8
Layer_1
 62
7
100
AcDbSpline
 70
8
 71
3
 72
8
 73
4
 74
0
 40
0
 40
0
 40
0
 40
0
 40
1
 40
1
 40
1
 40
1
 10
244.362675
 20
283.801864
 30
0.0
 10
244.290525
 20
283.735639
 30
0.0
 10
245.174318
 20
283.123954
 30
0.0
 10
246.325800
 20
282.442436
 30
0.0
  0
SPLINE
  5
1b7
100
AcDbEntity
  8
Layer_1
 62
7
100
AcDbSpline
 70
8
 71
3
 72
8
 73
4
 74
0
 40
0
 40
0
 40
0
 40
0
 40
1
 40
1
 40
1
 40
1
 10
246.325800
 20
282.442436
 30
0.0
 10
249.517710
 20
280.553224
 30
0.0
 10
251.647612
 20
278.965346
 30
0.0
 10
253.946340
 20
276.761141
 30
0.0
  0
SPLINE
  5
1b8
100
AcDbEntity
  8
Layer_1
 62
7
100
AcDbSpline
 70
8
 71
3
 72
8
 73
4
 74
0
 40
0
 40
0
 40
0
 40
0
 40
1
 40
1
 40
1
 40
1
 10
253.946340
 20
276.761141
 30
0.0
 10
258.160478
 20
272.720216
 30
0.0
 10
260.651865
 20
268.400104
 30
0.0
 10
262.059330
 20
262.693046
 30
0.0
  0
SPLINE
  5
1b9
100
AcDbEntity
  8
Layer_1
 62
7
100
AcDbSpline
 70
8
 71
3
 72
8
 73
4
 74
0
 40
0
 40
0
 40
0
 40
0
 40
1
 40
1
 40
1
 40
1
 10
262.059330
 20
262.693046
 30
0.0
 10
262.699725
 20
260.096329
 30
0.0
 10
262.963905
 20
258.246004
 30
0.0
 10
263.178847
 20
254.853131
 30
0.0
  0
LWPOLYLINE
  5
1ba
100
AcDbEntity
  8
Layer_1
 62
7
100
AcDbPolyline
 90
3
 70
0
 10
272.124930
 20
328.877486
 30
0.0
 10
271.689705
 20
327.689224
 30
0.0
 10
272.169502
 20
326.390464
 30
0.0
  0
SPLINE
  5
1bb
100
AcDbEntity
  8
Layer_1
 62
7
100
AcDbSpline
 70
8
 71
3
 72
8
 73
4
 74
0
 40
0
 40
0
 40
0
 40
0
 40
1
 40
1
 40
1
 40
1
 10
264.180667
 20
250.585879
 30
0.0
 10
264.763267
 20
249.752944
 30
0.0
 10
265.296840
 20
249.226054
 30
0.0
 10
266.115563
 20
248.675306
 30
0.0
  0
SPLINE
  5
1bc
100
AcDbEntity
  8
Layer_1
 62
7
100
AcDbSpline
 70
8
 71
3
 72
8
 73
4
 74
0
 40
0
 40
0
 40
0
 40
0
 40
1
 40
1
 40
1
 40
1
 10
266.115563
 20
248.675306
 30
0.0
 10
269.377515
 20
246.481031
 30
0.0
 10
272.363610
 20
243.460369
 30
0.0
 10
274.489110
 20
240.204851
 30
0.0
  0
SPLINE
  5
1bd
100
AcDbEntity
  8
Layer_1
 62
7
100
AcDbSpline
 70
8
 71
3
 72
8
 73
4
 74
0
 40
0
 40
0
 40
0
 40
0
 40
1
 40
1
 40
1
 40
1
 10
274.489110
 20
240.204851
 30
0.0
 10
279.833152
 20
232.019764
 30
0.0
 10
281.176762
 20
222.784729
 30
0.0
 10
278.262645
 20
214.268959
 30
0.0
  0
SPLINE
  5
1be
100
AcDbEntity
  8
Layer_1
 62
7
100
AcDbSpline
 70
8
 71
3
 72
8
 73
4
 74
0
 40
0
 40
0
 40
0
 40
0
 40
1
 40
1
 40
1
 40
1
 10
278.262645
 20
214.268959
 30
0.0
 10
276.860167
 20
210.170539
 30
0.0
 10
273.892388
 20
205.432849
 30
0.0
 10
270.740295
 20
202.260394
 30
0.0
  0
SPLINE
  5
1bf
100
AcDbEntity
  8
Layer_1
 62
7
100
AcDbSpline
 70
8
 71
3
 72
8
 73
4
 74
0
 40
0
 40
0
 40
0
 40
0
 40
1
 40
1
 40
1
 40
1
 10
270.740295
 20
202.260394
 30
0.0
 10
270.104377
 20
201.620321
 30
0.0
 10
269.942678
 20
201.285491
 30
0.0
 10
269.273888
 20
199.223081
 30
0.0
  0
SPLINE
  5
1c0
100
AcDbEntity
  8
Layer_1
 62
7
100
AcDbSpline
 70
8
 71
3
 72
8
 73
4
 74
0
 40
0
 40
0
 40
0
 40
0
 40
1
 40
1
 40
1
 40
1
 10
269.273888
 20
199.223081
 30
0.0
 10
268.860465
 20
197.948246
 30
0.0
 10
267.755265
 20
194.783096
 30
0.0
 10
266.817825
 20
192.189409
 30
0.0
  0
SPLINE
  5
1c1
100
AcDbEntity
  8
Layer_1
 62
7
100
AcDbSpline
 70
8
 71
3
 72
8
 73
4
 74
0
 40
0
 40
0
 40
0
 40
0
 40
1
 40
1
 40
1
 40
1
 10
266.817825
 20
192.189409
 30
0.0
 10
265.651620
 20
188.962834
 30
0.0
 10
264.993668
 20
186.867904
 30
0.0
 10
264.734303
 20
185.555351
 30
0.0
  0
SPLINE
  5
1c2
100
AcDbEntity
  8
Layer_1
 62
7
100
AcDbSpline
 70
8
 71
3
 72
8
 73
4
 74
0
 40
0
 40
0
 40
0
 40
0
 40
1
 40
1
 40
1
 40
1
 10
264.734303
 20
185.555351
 30
0.0
 10
263.293822
 20
178.265966
 30
0.0
 10
260.004607
 20
172.167004
 30
0.0
 10
254.703742
 20
166.956229
 30
0.0
  0
SPLINE
  5
1c3
100
AcDbEntity
  8
Layer_1
 62
7
100
AcDbSpline
 70
8
 71
3
 72
8
 73
4
 74
0
 40
0
 40
0
 40
0
 40
0
 40
1
 40
1
 40
1
 40
1
 10
254.703742
 20
166.956229
 30
0.0
 10
251.089875
 20
163.403749
 30
0.0
 10
246.863632
 20
160.577531
 30
0.0
 10
243.405712
 20
159.400826
 30
0.0
  0
SPLINE
  5
1c4
100
AcDbEntity
  8
Layer_1
 62
7
100
AcDbSpline
 70
8
 71
3
 72
8
 73
4
 74
0
 40
0
 40
0
 40
0
 40
0
 40
1
 40
1
 40
1
 40
1
 10
243.405712
 20
159.400826
 30
0.0
 10
242.610285
 20
159.130069
 30
0.0
 10
241.841528
 20
158.663906
 30
0.0
 10
240.543420
 20
157.664989
 30
0.0
  0
SPLINE
  5
1c5
100
AcDbEntity
  8
Layer_1
 62
7
100
AcDbSpline
 70
8
 71
3
 72
8
 73
4
 74
0
 40
0
 40
0
 40
0
 40
0
 40
1
 40
1
 40
1
 40
1
 10
240.543420
 20
157.664989
 30
0.0
 10
235.213650
 20
153.563696
 30
0.0
 10
229.306875
 20
150.336491
 30
0.0
 10
222.507195
 20
147.810971
 30
0.0
  0
SPLINE
  5
1c6
100
AcDbEntity
  8
Layer_1
 62
7
100
AcDbSpline
 70
8
 71
3
 72
8
 73
4
 74
0
 40
0
 40
0
 40
0
 40
0
 40
1
 40
1
 40
1
 40
1
 10
222.507195
 20
147.810971
 30
0.0
 10
220.758330
 20
147.161449
 30
0.0
 10
220.490242
 20
147.004024
 30
0.0
 10
219.328440
 20
145.944791
 30
0.0
  0
SPLINE
  5
1c7
100
AcDbEntity
  8
Layer_1
 62
7
100
AcDbSpline
 70
8
 71
3
 72
8
 73
4
 74
0
 40
0
 40
0
 40
0
 40
0
 40
1
 40
1
 40
1
 40
1
 10
219.328440
 20
145.944791
 30
0.0
 10
214.751227
 20
141.771506
 30
0.0
 10
208.955348
 20
138.595856
 30
0.0
 10
203.207100
 20
137.111651
 30
0.0
  0
SPLINE
  5
1c8
100
AcDbEntity
  8
Layer_1
 62
7
100
AcDbSpline
 70
8
 71
3
 72
8
 73
4
 74
0
 40
0
 40
0
 40
0
 40
0
 40
1
 40
1
 40
1
 40
1
 10
203.207100
 20
137.111651
 30
0.0
 10
199.653570
 20
136.194101
 30
0.0
 10
194.468250
 20
135.764374
 30
0.0
 10
190.706017
 20
136.075654
 30
0.0
  0
LWPOLYLINE
  5
1c9
100
AcDbEntity
  8
Layer_1
 62
7
100
AcDbPolyline
 90
3
 70
0
 10
269.253502
 20
312.256579
 30
0.0
 10
268.434150
 20
311.072546
 30
0.0
 10
268.426575
 20
309.459086
 30
0.0
  0
SPLINE
  5
1ca
100
AcDbEntity
  8
Layer_1
 62
7
100
AcDbSpline
 70
8
 71
3
 72
8
 73
4
 74
0
 40
0
 40
0
 40
0
 40
0
 40
1
 40
1
 40
1
 40
1
 10
199.154385
 20
142.795309
 30
0.0
 10
200.074538
 20
142.982974
 30
0.0
 10
201.504953
 20
143.353571
 30
0.0
 10
202.333087
 20
143.618599
 30
0.0
  0
SPLINE
  5
1cb
100
AcDbEntity
  8
Layer_1
 62
7
100
AcDbSpline
 70
8
 71
3
 72
8
 73
4
 74
0
 40
0
 40
0
 40
0
 40
0
 40
1
 40
1
 40
1
 40
1
 10
202.333087
 20
143.618599
 30
0.0
 10
204.240345
 20
144.228979
 30
0.0
 10
208.148100
 20
146.025964
 30
0.0
 10
209.968890
 20
147.129941
 30
0.0
  0
SPLINE
  5
1cc
100
AcDbEntity
  8
Layer_1
 62
7
100
AcDbSpline
 70
8
 71
3
 72
8
 73
4
 74
0
 40
0
 40
0
 40
0
 40
0
 40
1
 40
1
 40
1
 40
1
 10
209.968890
 20
147.129941
 30
0.0
 10
214.436603
 20
149.838716
 30
0.0
 10
218.549663
 20
153.688181
 30
0.0
 10
218.903895
 20
155.492261
 30
0.0
  0
SPLINE
  5
1cd
100
AcDbEntity
  8
Layer_1
 62
7
100
AcDbSpline
 70
8
 71
3
 72
8
 73
4
 74
0
 40
0
 40
0
 40
0
 40
0
 40
1
 40
1
 40
1
 40
1
 10
218.903895
 20
155.492261
 30
0.0
 10
219.631718
 20
159.199219
 30
0.0
 10
211.252358
 20
163.124494
 30
0.0
 10
200.954805
 20
163.900556
 30
0.0
  0
SPLINE
  5
1ce
100
AcDbEntity
  8
Layer_1
 62
7
100
AcDbSpline
 70
8
 71
3
 72
8
 73
4
 74
0
 40
0
 40
0
 40
0
 40
0
 40
1
 40
1
 40
1
 40
1
 10
200.954805
 20
163.900556
 30
0.0
 10
198.386917
 20
164.094304
 30
0.0
 10
192.800062
 20
163.889531
 30
0.0
 10
189.618240
 20
163.491011
 30
0.0
  0
SPLINE
  5
1cf
100
AcDbEntity
  8
Layer_1
 62
7
100
AcDbSpline
 70
8
 71
3
 72
8
 73
4
 74
0
 40
0
 40
0
 40
0
 40
0
 40
1
 40
1
 40
1
 40
1
 10
189.618240
 20
163.491011
 30
0.0
 10
184.805340
 20
162.884141
 30
0.0
 10
179.517922
 20
161.575039
 30
0.0
 10
176.150557
 20
160.156594
 30
0.0
  0
SPLINE
  5
1d0
100
AcDbEntity
  8
Layer_1
 62
7
100
AcDbSpline
 70
8
 71
3
 72
8
 73
4
 74
0
 40
0
 40
0
 40
0
 40
0
 40
1
 40
1
 40
1
 40
1
 10
176.150557
 20
160.156594
 30
0.0
 10
172.644518
 20
158.679769
 30
0.0
 10
170.462303
 20
156.768934
 30
0.0
 10
170.462303
 20
155.175641
 30
0.0
  0
SPLINE
  5
1d1
100
AcDbEntity
  8
Layer_1
 62
7
100
AcDbSpline
 70
8
 71
3
 72
8
 73
4
 74
0
 40
0
 40
0
 40
0
 40
0
 40
1
 40
1
 40
1
 40
1
 10
170.462303
 20
155.175641
 30
0.0
 10
170.462303
 20
153.360904
 30
0.0
 10
174.124905
 20
149.571829
 30
0.0
 10
178.523753
 20
146.835949
 30
0.0
  0
SPLINE
  5
1d2
100
AcDbEntity
  8
Layer_1
 62
7
100
AcDbSpline
 70
8
 71
3
 72
8
 73
4
 74
0
 40
0
 40
0
 40
0
 40
0
 40
1
 40
1
 40
1
 40
1
 10
178.523753
 20
146.835949
 30
0.0
 10
182.046270
 20
144.645086
 30
0.0
 10
186.538087
 20
142.975279
 30
0.0
 10
190.240747
 20
142.480219
 30
0.0
  0
SPLINE
  5
1d3
100
AcDbEntity
  8
Layer_1
 62
7
100
AcDbSpline
 70
8
 71
3
 72
8
 73
4
 74
0
 40
0
 40
0
 40
0
 40
0
 40
1
 40
1
 40
1
 40
1
 10
190.240747
 20
142.480219
 30
0.0
 10
192.119962
 20
142.229164
 30
0.0
 10
197.271000
 20
142.410994
 30
0.0
 10
199.154385
 20
142.795024
 30
0.0
  0
LWPOLYLINE
  5
1d4
100
AcDbEntity
  8
Layer_1
 62
7
100
AcDbPolyline
 90
3
 70
0
 10
263.178847
 20
254.853131
 30
0.0
 10
263.376172
 20
251.735936
 30
0.0
 10
264.180667
 20
250.585879
 30
0.0
  0
SPLINE
  5
1d5
100
AcDbEntity
  8
Layer_1
 62
7
100
AcDbSpline
 70
8
 71
3
 72
8
 73
4
 74
0
 40
0
 40
0
 40
0
 40
0
 40
1
 40
1
 40
1
 40
1
 10
160.286220
 20
163.726736
 30
0.0
 10
162.577357
 20
164.286656
 30
0.0
 10
163.589850
 20
165.004766
 30
0.0
 10
164.589083
 20
166.778486
 30
0.0
  0
SPLINE
  5
1d6
100
AcDbEntity
  8
Layer_1
 62
7
100
AcDbSpline
 70
8
 71
3
 72
8
 73
4
 74
0
 40
0
 40
0
 40
0
 40
0
 40
1
 40
1
 40
1
 40
1
 10
164.589083
 20
166.778486
 30
0.0
 10
167.347868
 20
171.675641
 30
0.0
 10
165.644865
 20
181.411834
 30
0.0
 10
160.798335
 20
188.450224
 30
0.0
  0
SPLINE
  5
1d7
100
AcDbEntity
  8
Layer_1
 62
7
100
AcDbSpline
 70
8
 71
3
 72
8
 73
4
 74
0
 40
0
 40
0
 40
0
 40
0
 40
1
 40
1
 40
1
 40
1
 10
160.798335
 20
188.450224
 30
0.0
 10
158.995643
 20
191.068189
 30
0.0
 10
155.117955
 20
195.055196
 30
0.0
 10
152.310203
 20
197.177636
 30
0.0
  0
SPLINE
  5
1d8
100
AcDbEntity
  8
Layer_1
 62
7
100
AcDbSpline
 70
8
 71
3
 72
8
 73
4
 74
0
 40
0
 40
0
 40
0
 40
0
 40
1
 40
1
 40
1
 40
1
 10
152.310203
 20
197.177636
 30
0.0
 10
145.556235
 20
202.283134
 30
0.0
 10
138.904178
 20
203.998136
 30
0.0
 10
134.365477
 20
201.804146
 30
0.0
  0
SPLINE
  5
1d9
100
AcDbEntity
  8
Layer_1
 62
7
100
AcDbSpline
 70
8
 71
3
 72
8
 73
4
 74
0
 40
0
 40
0
 40
0
 40
0
 40
1
 40
1
 40
1
 40
1
 10
134.365477
 20
201.804146
 30
0.0
 10
132.154560
 20
200.735389
 30
0.0
 10
130.726935
 20
198.530284
 30
0.0
 10
129.955110
 20
194.991986
 30
0.0
  0
SPLINE
  5
1da
100
AcDbEntity
  8
Layer_1
 62
7
100
AcDbSpline
 70
8
 71
3
 72
8
 73
4
 74
0
 40
0
 40
0
 40
0
 40
0
 40
1
 40
1
 40
1
 40
1
 10
129.955110
 20
194.991986
 30
0.0
 10
129.622665
 20
193.468286
 30
0.0
 10
129.706485
 20
189.407449
 30
0.0
 10
130.114717
 20
187.238921
 30
0.0
  0
SPLINE
  5
1db
100
AcDbEntity
  8
Layer_1
 62
7
100
AcDbSpline
 70
8
 71
3
 72
8
 73
4
 74
0
 40
0
 40
0
 40
0
 40
0
 40
1
 40
1
 40
1
 40
1
 10
130.114717
 20
187.238921
 30
0.0
 10
131.020373
 20
182.428901
 30
0.0
 10
133.155420
 20
177.537769
 30
0.0
 10
135.785393
 20
174.248074
 30
0.0
  0
SPLINE
  5
1dc
100
AcDbEntity
  8
Layer_1
 62
7
100
AcDbSpline
 70
8
 71
3
 72
8
 73
4
 74
0
 40
0
 40
0
 40
0
 40
0
 40
1
 40
1
 40
1
 40
1
 10
135.785393
 20
174.248074
 30
0.0
 10
140.502060
 20
168.348379
 30
0.0
 10
147.312382
 20
164.300224
 30
0.0
 10
153.983340
 20
163.431019
 30
0.0
  0
SPLINE
  5
1dd
100
AcDbEntity
  8
Layer_1
 62
7
100
AcDbSpline
 70
8
 71
3
 72
8
 73
4
 74
0
 40
0
 40
0
 40
0
 40
0
 40
1
 40
1
 40
1
 40
1
 10
153.983340
 20
163.431019
 30
0.0
 10
155.671898
 20
163.211134
 30
0.0
 10
158.770995
 20
163.356544
 30
0.0
 10
160.286378
 20
163.726849
 30
0.0
  0
LWPOLYLINE
  5
1de
100
AcDbEntity
  8
Layer_1
 62
7
100
AcDbPolyline
 90
2
 70
0
 10
190.706018
 20
136.075654
 30
0.0
 10
190.705695
 20
136.080904
 30
0.0
  0
SPLINE
  5
1df
100
AcDbEntity
  8
Layer_1
 62
7
100
AcDbSpline
 70
8
 71
3
 72
8
 73
4
 74
0
 40
0
 40
0
 40
0
 40
0
 40
1
 40
1
 40
1
 40
1
 10
237.005805
 20
163.656266
 30
0.0
 10
240.873675
 20
164.476151
 30
0.0
 10
244.533983
 20
166.198084
 30
0.0
 10
247.987433
 20
168.822341
 30
0.0
  0
SPLINE
  5
1e0
100
AcDbEntity
  8
Layer_1
 62
7
100
AcDbSpline
 70
8
 71
3
 72
8
 73
4
 74
0
 40
0
 40
0
 40
0
 40
0
 40
1
 40
1
 40
1
 40
1
 10
247.987432
 20
168.822341
 30
0.0
 10
250.464247
 20
170.704504
 30
0.0
 10
253.697475
 20
174.098959
 30
0.0
 10
255.612562
 20
176.827721
 30
0.0
  0
SPLINE
  5
1e1
100
AcDbEntity
  8
Layer_1
 62
7
100
AcDbSpline
 70
8
 71
3
 72
8
 73
4
 74
0
 40
0
 40
0
 40
0
 40
0
 40
1
 40
1
 40
1
 40
1
 10
255.612563
 20
176.827721
 30
0.0
 10
256.527202
 20
178.130944
 30
0.0
 10
257.816115
 20
180.723589
 30
0.0
 10
258.364703
 20
182.363546
 30
0.0
  0
SPLINE
  5
1e2
100
AcDbEntity
  8
Layer_1
 62
7
100
AcDbSpline
 70
8
 71
3
 72
8
 73
4
 74
0
 40
0
 40
0
 40
0
 40
0
 40
1
 40
1
 40
1
 40
1
 10
258.364703
 20
182.363546
 30
0.0
 10
260.318250
 20
188.203654
 30
0.0
 10
260.187720
 20
195.867506
 30
0.0
 10
258.033608
 20
201.797209
 30
0.0
  0
SPLINE
  5
1e3
100
AcDbEntity
  8
Layer_1
 62
7
100
AcDbSpline
 70
8
 71
3
 72
8
 73
4
 74
0
 40
0
 40
0
 40
0
 40
0
 40
1
 40
1
 40
1
 40
1
 10
258.033608
 20
201.797209
 30
0.0
 10
256.307025
 20
206.550349
 30
0.0
 10
254.808922
 20
207.795491
 30
0.0
 10
250.850070
 20
207.767854
 30
0.0
  0
SPLINE
  5
1e4
100
AcDbEntity
  8
Layer_1
 62
7
100
AcDbSpline
 70
8
 71
3
 72
8
 73
4
 74
0
 40
0
 40
0
 40
0
 40
0
 40
1
 40
1
 40
1
 40
1
 10
250.850070
 20
207.767854
 30
0.0
 10
249.304583
 20
207.756829
 30
0.0
 10
248.795348
 20
207.685076
 30
0.0
 10
247.671390
 20
207.317599
 30
0.0
  0
SPLINE
  5
1e5
100
AcDbEntity
  8
Layer_1
 62
7
100
AcDbSpline
 70
8
 71
3
 72
8
 73
4
 74
0
 40
0
 40
0
 40
0
 40
0
 40
1
 40
1
 40
1
 40
1
 10
247.671390
 20
207.317599
 30
0.0
 10
242.725222
 20
205.700231
 30
0.0
 10
237.330758
 20
201.610684
 30
0.0
 10
231.624442
 20
195.152261
 30
0.0
  0
SPLINE
  5
1e6
100
AcDbEntity
  8
Layer_1
 62
7
100
AcDbSpline
 70
8
 71
3
 72
8
 73
4
 74
0
 40
0
 40
0
 40
0
 40
0
 40
1
 40
1
 40
1
 40
1
 10
231.624442
 20
195.152261
 30
0.0
 10
229.164300
 20
192.367909
 30
0.0
 10
228.327900
 20
191.237254
 30
0.0
 10
226.879125
 20
188.737384
 30
0.0
  0
SPLINE
  5
1e7
100
AcDbEntity
  8
Layer_1
 62
7
100
AcDbSpline
 70
8
 71
3
 72
8
 73
4
 74
0
 40
0
 40
0
 40
0
 40
0
 40
1
 40
1
 40
1
 40
1
 10
226.879125
 20
188.737384
 30
0.0
 10
225.088695
 20
185.648029
 30
0.0
 10
223.511145
 20
181.658876
 30
0.0
 10
222.724095
 20
178.230581
 30
0.0
  0
SPLINE
  5
1e8
100
AcDbEntity
  8
Layer_1
 62
7
100
AcDbSpline
 70
8
 71
3
 72
8
 73
4
 74
0
 40
0
 40
0
 40
0
 40
0
 40
1
 40
1
 40
1
 40
1
 10
222.724095
 20
178.230581
 30
0.0
 10
222.157335
 20
175.761791
 30
0.0
 10
221.998635
 20
171.863906
 30
0.0
 10
222.391200
 20
170.054839
 30
0.0
  0
SPLINE
  5
1e9
100
AcDbEntity
  8
Layer_1
 62
7
100
AcDbSpline
 70
8
 71
3
 72
8
 73
4
 74
0
 40
0
 40
0
 40
0
 40
0
 40
1
 40
1
 40
1
 40
1
 10
222.391200
 20
170.054839
 30
0.0
 10
222.689055
 20
168.682421
 30
0.0
 10
223.383427
 20
167.107571
 30
0.0
 10
224.069865
 20
166.247614
 30
0.0
  0
SPLINE
  5
1ea
100
AcDbEntity
  8
Layer_1
 62
7
100
AcDbSpline
 70
8
 71
3
 72
8
 73
4
 74
0
 40
0
 40
0
 40
0
 40
0
 40
1
 40
1
 40
1
 40
1
 10
224.069865
 20
166.247614
 30
0.0
 10
225.002115
 20
165.079759
 30
0.0
 10
227.223127
 20
163.989544
 30
0.0
 10
229.686487
 20
163.490741
 30
0.0
  0
SPLINE
  5
1eb
100
AcDbEntity
  8
Layer_1
 62
7
100
AcDbSpline
 70
8
 71
3
 72
8
 73
4
 74
0
 40
0
 40
0
 40
0
 40
0
 40
1
 40
1
 40
1
 40
1
 10
229.686487
 20
163.490741
 30
0.0
 10
231.097252
 20
163.205299
 30
0.0
 10
235.327875
 20
163.300549
 30
0.0
 10
237.005558
 20
163.656094
 30
0.0
  0
SPLINE
  5
1ec
100
AcDbEntity
  8
Layer_1
 62
7
100
AcDbSpline
 70
8
 71
3
 72
8
 73
4
 74
0
 40
0
 40
0
 40
0
 40
0
 40
1
 40
1
 40
1
 40
1
 10
198.916178
 20
172.124314
 30
0.0
 10
206.157832
 20
173.045546
 30
0.0
 10
212.354655
 20
176.648209
 30
0.0
 10
216.253357
 20
182.203699
 30
0.0
  0
SPLINE
  5
1ed
100
AcDbEntity
  8
Layer_1
 62
7
100
AcDbSpline
 70
8
 71
3
 72
8
 73
4
 74
0
 40
0
 40
0
 40
0
 40
0
 40
1
 40
1
 40
1
 40
1
 10
216.253357
 20
182.203699
 30
0.0
 10
217.708222
 20
184.276789
 30
0.0
 10
219.025650
 20
187.420924
 30
0.0
 10
219.502020
 20
189.956726
 30
0.0
  0
SPLINE
  5
1ee
100
AcDbEntity
  8
Layer_1
 62
7
100
AcDbSpline
 70
8
 71
3
 72
8
 73
4
 74
0
 40
0
 40
0
 40
0
 40
0
 40
1
 40
1
 40
1
 40
1
 10
219.502020
 20
189.956726
 30
0.0
 10
219.832088
 20
191.713691
 30
0.0
 10
219.788985
 20
195.637249
 30
0.0
 10
219.421590
 20
197.310124
 30
0.0
  0
SPLINE
  5
1ef
100
AcDbEntity
  8
Layer_1
 62
7
100
AcDbSpline
 70
8
 71
3
 72
8
 73
4
 74
0
 40
0
 40
0
 40
0
 40
0
 40
1
 40
1
 40
1
 40
1
 10
219.421590
 20
197.310124
 30
0.0
 10
218.493382
 20
201.535181
 30
0.0
 10
216.557205
 20
204.925504
 30
0.0
 10
213.302160
 20
208.025411
 30
0.0
  0
SPLINE
  5
1f0
100
AcDbEntity
  8
Layer_1
 62
7
100
AcDbSpline
 70
8
 71
3
 72
8
 73
4
 74
0
 40
0
 40
0
 40
0
 40
0
 40
1
 40
1
 40
1
 40
1
 10
213.302160
 20
208.025411
 30
0.0
 10
209.230860
 20
211.902709
 30
0.0
 10
203.895007
 20
214.256854
 30
0.0
 10
197.767470
 20
214.879339
 30
0.0
  0
SPLINE
  5
1f1
100
AcDbEntity
  8
Layer_1
 62
7
100
AcDbSpline
 70
8
 71
3
 72
8
 73
4
 74
0
 40
0
 40
0
 40
0
 40
0
 40
1
 40
1
 40
1
 40
1
 10
197.767470
 20
214.879339
 30
0.0
 10
188.122072
 20
215.859101
 30
0.0
 10
179.149988
 20
212.028664
 30
0.0
 10
174.026287
 20
204.743426
 30
0.0
  0
SPLINE
  5
1f2
100
AcDbEntity
  8
Layer_1
 62
7
100
AcDbSpline
 70
8
 71
3
 72
8
 73
4
 74
0
 40
0
 40
0
 40
0
 40
0
 40
1
 40
1
 40
1
 40
1
 10
174.026288
 20
204.743426
 30
0.0
 10
172.572000
 20
202.675601
 30
0.0
 10
171.252068
 20
199.526569
 30
0.0
 10
170.776650
 20
196.990399
 30
0.0
  0
SPLINE
  5
1f3
100
AcDbEntity
  8
Layer_1
 62
7
100
AcDbSpline
 70
8
 71
3
 72
8
 73
4
 74
0
 40
0
 40
0
 40
0
 40
0
 40
1
 40
1
 40
1
 40
1
 10
170.776650
 20
196.990399
 30
0.0
 10
170.496773
 20
195.497749
 30
0.0
 10
170.497238
 20
191.504359
 30
0.0
 10
170.777400
 20
190.116611
 30
0.0
  0
SPLINE
  5
1f4
100
AcDbEntity
  8
Layer_1
 62
7
100
AcDbSpline
 70
8
 71
3
 72
8
 73
4
 74
0
 40
0
 40
0
 40
0
 40
0
 40
1
 40
1
 40
1
 40
1
 10
170.777505
 20
190.116611
 30
0.0
 10
171.356250
 20
187.249309
 30
0.0
 10
172.892325
 20
183.935921
 30
0.0
 10
174.709508
 20
181.635056
 30
0.0
  0
SPLINE
  5
1f5
100
AcDbEntity
  8
Layer_1
 62
7
100
AcDbSpline
 70
8
 71
3
 72
8
 73
4
 74
0
 40
0
 40
0
 40
0
 40
0
 40
1
 40
1
 40
1
 40
1
 10
174.709508
 20
181.635056
 30
0.0
 10
175.993125
 20
180.009716
 30
0.0
 10
178.537950
 20
177.642836
 30
0.0
 10
180.203453
 20
176.525269
 30
0.0
  0
SPLINE
  5
1f6
100
AcDbEntity
  8
Layer_1
 62
7
100
AcDbSpline
 70
8
 71
3
 72
8
 73
4
 74
0
 40
0
 40
0
 40
0
 40
0
 40
1
 40
1
 40
1
 40
1
 10
180.203452
 20
176.525269
 30
0.0
 10
185.540827
 20
172.943741
 30
0.0
 10
192.497152
 20
171.307721
 30
0.0
 10
198.916162
 20
172.124314
 30
0.0
  0
SPLINE
  5
1f7
100
AcDbEntity
  8
Layer_1
 62
7
100
AcDbSpline
 70
8
 71
3
 72
8
 73
4
 74
0
 40
0
 40
0
 40
0
 40
0
 40
1
 40
1
 40
1
 40
1
 10
126.551708
 20
204.803606
 30
0.0
 10
130.872277
 20
206.678891
 30
0.0
 10
135.010433
 20
220.373914
 30
0.0
 10
135.010665
 20
232.798136
 30
0.0
  0
SPLINE
  5
1f8
100
AcDbEntity
  8
Layer_1
 62
7
100
AcDbSpline
 70
8
 71
3
 72
8
 73
4
 74
0
 40
0
 40
0
 40
0
 40
0
 40
1
 40
1
 40
1
 40
1
 10
135.010665
 20
232.798136
 30
0.0
 10
135.010762
 20
238.820464
 30
0.0
 10
134.308882
 20
241.966789
 30
0.0
 10
132.550470
 20
243.826526
 30
0.0
  0
SPLINE
  5
1f9
100
AcDbEntity
  8
Layer_1
 62
7
100
AcDbSpline
 70
8
 71
3
 72
8
 73
4
 74
0
 40
0
 40
0
 40
0
 40
0
 40
1
 40
1
 40
1
 40
1
 10
132.550470
 20
243.826526
 30
0.0
 10
131.306348
 20
245.142364
 30
0.0
 10
130.124032
 20
245.082424
 30
0.0
 10
127.802497
 20
243.585866
 30
0.0
  0
SPLINE
  5
1fa
100
AcDbEntity
  8
Layer_1
 62
7
100
AcDbSpline
 70
8
 71
3
 72
8
 73
4
 74
0
 40
0
 40
0
 40
0
 40
0
 40
1
 40
1
 40
1
 40
1
 10
127.802498
 20
243.585866
 30
0.0
 10
122.109570
 20
239.915794
 30
0.0
 10
118.156193
 20
234.389599
 30
0.0
 10
116.852265
 20
228.279034
 30
0.0
  0
SPLINE
  5
1fb
100
AcDbEntity
  8
Layer_1
 62
7
100
AcDbSpline
 70
8
 71
3
 72
8
 73
4
 74
0
 40
0
 40
0
 40
0
 40
0
 40
1
 40
1
 40
1
 40
1
 10
116.852265
 20
228.279034
 30
0.0
 10
115.498140
 20
221.933314
 30
0.0
 10
116.814315
 20
214.678061
 30
0.0
 10
120.277890
 20
209.377039
 30
0.0
  0
SPLINE
  5
1fc
100
AcDbEntity
  8
Layer_1
 62
7
100
AcDbSpline
 70
8
 71
3
 72
8
 73
4
 74
0
 40
0
 40
0
 40
0
 40
0
 40
1
 40
1
 40
1
 40
1
 10
120.277890
 20
209.377039
 30
0.0
 10
121.513485
 20
207.486626
 30
0.0
 10
123.908708
 20
204.861199
 30
0.0
 10
124.621950
 20
204.615439
 30
0.0
  0
SPLINE
  5
1fd
100
AcDbEntity
  8
Layer_1
 62
7
100
AcDbSpline
 70
8
 71
3
 72
8
 73
4
 74
0
 40
0
 40
0
 40
0
 40
0
 40
1
 40
1
 40
1
 40
1
 10
124.621950
 20
204.615439
 30
0.0
 10
125.124218
 20
204.442181
 30
0.0
 10
125.891730
 20
204.517249
 30
0.0
 10
126.551708
 20
204.803809
 30
0.0
  0
SPLINE
  5
1fe
100
AcDbEntity
  8
Layer_1
 62
7
100
AcDbSpline
 70
8
 71
3
 72
8
 73
4
 74
0
 40
0
 40
0
 40
0
 40
0
 40
1
 40
1
 40
1
 40
1
 10
263.166420
 20
206.032616
 30
0.0
 10
269.050957
 20
211.454921
 30
0.0
 10
271.871610
 20
220.986746
 30
0.0
 10
270.080550
 20
229.397906
 30
0.0
  0
SPLINE
  5
1ff
100
AcDbEntity
  8
Layer_1
 62
7
100
AcDbSpline
 70
8
 71
3
 72
8
 73
4
 74
0
 40
0
 40
0
 40
0
 40
0
 40
1
 40
1
 40
1
 40
1
 10
270.080550
 20
229.397906
 30
0.0
 10
269.027002
 20
234.345739
 30
0.0
 10
266.211547
 20
238.993586
 30
0.0
 10
262.338705
 20
242.178379
 30
0.0
  0
SPLINE
  5
200
100
AcDbEntity
  8
Layer_1
 62
7
100
AcDbSpline
 70
8
 71
3
 72
8
 73
4
 74
0
 40
0
 40
0
 40
0
 40
0
 40
1
 40
1
 40
1
 40
1
 10
262.338705
 20
242.178379
 30
0.0
 10
260.569080
 20
243.633566
 30
0.0
 10
257.894940
 20
245.292139
 30
0.0
 10
257.092185
 20
245.432359
 30
0.0
  0
SPLINE
  5
201
100
AcDbEntity
  8
Layer_1
 62
7
100
AcDbSpline
 70
8
 71
3
 72
8
 73
4
 74
0
 40
0
 40
0
 40
0
 40
0
 40
1
 40
1
 40
1
 40
1
 10
257.092185
 20
245.432359
 30
0.0
 10
254.753078
 20
245.840996
 30
0.0
 10
252.820950
 20
243.642484
 30
0.0
 10
252.030053
 20
239.672014
 30
0.0
  0
SPLINE
  5
202
100
AcDbEntity
  8
Layer_1
 62
7
100
AcDbSpline
 70
8
 71
3
 72
8
 73
4
 74
0
 40
0
 40
0
 40
0
 40
0
 40
1
 40
1
 40
1
 40
1
 10
252.030053
 20
239.672014
 30
0.0
 10
250.256145
 20
230.766454
 30
0.0
 10
253.200585
 20
214.048564
 30
0.0
 10
257.632778
 20
207.860606
 30
0.0
  0
SPLINE
  5
203
100
AcDbEntity
  8
Layer_1
 62
7
100
AcDbSpline
 70
8
 71
3
 72
8
 73
4
 74
0
 40
0
 40
0
 40
0
 40
0
 40
1
 40
1
 40
1
 40
1
 10
257.632778
 20
207.860606
 30
0.0
 10
258.994080
 20
205.959994
 30
0.0
 10
260.078760
 20
205.257851
 30
0.0
 10
261.518738
 20
205.345144
 30
0.0
  0
SPLINE
  5
204
100
AcDbEntity
  8
Layer_1
 62
7
100
AcDbSpline
 70
8
 71
3
 72
8
 73
4
 74
0
 40
0
 40
0
 40
0
 40
0
 40
1
 40
1
 40
1
 40
1
 10
261.518737
 20
205.345144
 30
0.0
 10
262.376182
 20
205.397119
 30
0.0
 10
262.559917
 20
205.473791
 30
0.0
 10
263.166420
 20
206.032616
 30
0.0
  0
SPLINE
  5
205
100
AcDbEntity
  8
Layer_1
 62
7
100
AcDbSpline
 70
8
 71
3
 72
8
 73
4
 74
0
 40
0
 40
0
 40
0
 40
0
 40
1
 40
1
 40
1
 40
1
 10
165.777885
 20
210.651289
 30
0.0
 10
171.781913
 20
211.426376
 30
0.0
 10
177.765240
 20
214.649486
 30
0.0
 10
181.815165
 20
219.290314
 30
0.0
  0
SPLINE
  5
206
100
AcDbEntity
  8
Layer_1
 62
7
100
AcDbSpline
 70
8
 71
3
 72
8
 73
4
 74
0
 40
0
 40
0
 40
0
 40
0
 40
1
 40
1
 40
1
 40
1
 10
181.815165
 20
219.290314
 30
0.0
 10
188.562038
 20
227.021501
 30
0.0
 10
191.032605
 20
237.479944
 30
0.0
 10
188.119432
 20
245.977414
 30
0.0
  0
SPLINE
  5
207
100
AcDbEntity
  8
Layer_1
 62
7
100
AcDbSpline
 70
8
 71
3
 72
8
 73
4
 74
0
 40
0
 40
0
 40
0
 40
0
 40
1
 40
1
 40
1
 40
1
 10
188.119432
 20
245.977414
 30
0.0
 10
187.051725
 20
249.091714
 30
0.0
 10
185.676330
 20
251.232941
 30
0.0
 10
183.280725
 20
253.510429
 30
0.0
  0
SPLINE
  5
208
100
AcDbEntity
  8
Layer_1
 62
7
100
AcDbSpline
 70
8
 71
3
 72
8
 73
4
 74
0
 40
0
 40
0
 40
0
 40
0
 40
1
 40
1
 40
1
 40
1
 10
183.280725
 20
253.510429
 30
0.0
 10
180.125940
 20
256.509596
 30
0.0
 10
176.913428
 20
258.018896
 30
0.0
 10
172.573718
 20
258.540806
 30
0.0
  0
SPLINE
  5
209
100
AcDbEntity
  8
Layer_1
 62
7
100
AcDbSpline
 70
8
 71
3
 72
8
 73
4
 74
0
 40
0
 40
0
 40
0
 40
0
 40
1
 40
1
 40
1
 40
1
 10
172.573717
 20
258.540806
 30
0.0
 10
166.778498
 20
259.237789
 30
0.0
 10
159.689047
 20
256.960489
 30
0.0
 10
154.165372
 20
252.627664
 30
0.0
  0
SPLINE
  5
20a
100
AcDbEntity
  8
Layer_1
 62
7
100
AcDbSpline
 70
8
 71
3
 72
8
 73
4
 74
0
 40
0
 40
0
 40
0
 40
0
 40
1
 40
1
 40
1
 40
1
 10
154.165372
 20
252.627664
 30
0.0
 10
152.530035
 20
251.344841
 30
0.0
 10
149.936003
 20
248.799004
 30
0.0
 10
148.701405
 20
247.265171
 30
0.0
  0
SPLINE
  5
20b
100
AcDbEntity
  8
Layer_1
 62
7
100
AcDbSpline
 70
8
 71
3
 72
8
 73
4
 74
0
 40
0
 40
0
 40
0
 40
0
 40
1
 40
1
 40
1
 40
1
 10
148.701405
 20
247.265171
 30
0.0
 10
147.480967
 20
245.748941
 30
0.0
 10
145.658625
 20
242.261681
 30
0.0
 10
144.802118
 20
239.803421
 30
0.0
  0
SPLINE
  5
20c
100
AcDbEntity
  8
Layer_1
 62
7
100
AcDbSpline
 70
8
 71
3
 72
8
 73
4
 74
0
 40
0
 40
0
 40
0
 40
0
 40
1
 40
1
 40
1
 40
1
 10
144.802118
 20
239.803421
 30
0.0
 10
142.835573
 20
234.159326
 30
0.0
 10
142.708133
 20
228.347801
 30
0.0
 10
144.440325
 20
223.295674
 30
0.0
  0
SPLINE
  5
20d
100
AcDbEntity
  8
Layer_1
 62
7
100
AcDbSpline
 70
8
 71
3
 72
8
 73
4
 74
0
 40
0
 40
0
 40
0
 40
0
 40
1
 40
1
 40
1
 40
1
 10
144.440325
 20
223.295674
 30
0.0
 10
145.427678
 20
220.415704
 30
0.0
 10
146.784832
 20
218.209571
 30
0.0
 10
148.839090
 20
216.145369
 30
0.0
  0
SPLINE
  5
20e
100
AcDbEntity
  8
Layer_1
 62
7
100
AcDbSpline
 70
8
 71
3
 72
8
 73
4
 74
0
 40
0
 40
0
 40
0
 40
0
 40
1
 40
1
 40
1
 40
1
 10
148.839090
 20
216.145369
 30
0.0
 10
153.243247
 20
211.719881
 30
0.0
 10
159.168465
 20
209.798066
 30
0.0
 10
165.778043
 20
210.651289
 30
0.0
  0
SPLINE
  5
20f
100
AcDbEntity
  8
Layer_1
 62
7
100
AcDbSpline
 70
8
 71
3
 72
8
 73
4
 74
0
 40
0
 40
0
 40
0
 40
0
 40
1
 40
1
 40
1
 40
1
 10
229.184820
 20
211.867466
 30
0.0
 10
232.853078
 20
212.190146
 30
0.0
 10
236.081843
 20
213.280736
 30
0.0
 10
238.386360
 20
214.975526
 30
0.0
  0
SPLINE
  5
210
100
AcDbEntity
  8
Layer_1
 62
7
100
AcDbSpline
 70
8
 71
3
 72
8
 73
4
 74
0
 40
0
 40
0
 40
0
 40
0
 40
1
 40
1
 40
1
 40
1
 10
238.386360
 20
214.975526
 30
0.0
 10
241.404038
 20
217.194889
 30
0.0
 10
243.740085
 20
220.415171
 30
0.0
 10
245.001593
 20
224.094934
 30
0.0
  0
SPLINE
  5
211
100
AcDbEntity
  8
Layer_1
 62
7
100
AcDbSpline
 70
8
 71
3
 72
8
 73
4
 74
0
 40
0
 40
0
 40
0
 40
0
 40
1
 40
1
 40
1
 40
1
 10
245.001593
 20
224.094934
 30
0.0
 10
247.914787
 20
232.592389
 30
0.0
 10
245.444408
 20
243.050831
 30
0.0
 10
238.697362
 20
250.782019
 30
0.0
  0
SPLINE
  5
212
100
AcDbEntity
  8
Layer_1
 62
7
100
AcDbSpline
 70
8
 71
3
 72
8
 73
4
 74
0
 40
0
 40
0
 40
0
 40
0
 40
1
 40
1
 40
1
 40
1
 10
238.697362
 20
250.782019
 30
0.0
 10
232.373220
 20
258.028894
 30
0.0
 10
222.124132
 20
261.298159
 30
0.0
 10
213.709538
 20
258.752651
 30
0.0
  0
SPLINE
  5
213
100
AcDbEntity
  8
Layer_1
 62
7
100
AcDbSpline
 70
8
 71
3
 72
8
 73
4
 74
0
 40
0
 40
0
 40
0
 40
0
 40
1
 40
1
 40
1
 40
1
 10
213.709538
 20
258.752651
 30
0.0
 10
207.800595
 20
256.965221
 30
0.0
 10
203.126647
 20
252.410974
 30
0.0
 10
201.017745
 20
246.385969
 30
0.0
  0
SPLINE
  5
214
100
AcDbEntity
  8
Layer_1
 62
7
100
AcDbSpline
 70
8
 71
3
 72
8
 73
4
 74
0
 40
0
 40
0
 40
0
 40
0
 40
1
 40
1
 40
1
 40
1
 10
201.017745
 20
246.385969
 30
0.0
 10
200.125777
 20
243.837701
 30
0.0
 10
199.846223
 20
242.062736
 30
0.0
 10
199.834477
 20
238.872716
 30
0.0
  0
SPLINE
  5
215
100
AcDbEntity
  8
Layer_1
 62
7
100
AcDbSpline
 70
8
 71
3
 72
8
 73
4
 74
0
 40
0
 40
0
 40
0
 40
0
 40
1
 40
1
 40
1
 40
1
 10
199.834477
 20
238.872716
 30
0.0
 10
199.820153
 20
235.504819
 30
0.0
 10
200.074575
 20
233.844154
 30
0.0
 10
201.024187
 20
231.043504
 30
0.0
  0
SPLINE
  5
216
100
AcDbEntity
  8
Layer_1
 62
7
100
AcDbSpline
 70
8
 71
3
 72
8
 73
4
 74
0
 40
0
 40
0
 40
0
 40
0
 40
1
 40
1
 40
1
 40
1
 10
201.024187
 20
231.043504
 30
0.0
 10
202.213132
 20
227.537689
 30
0.0
 10
204.594097
 20
223.630429
 30
0.0
 10
207.431640
 20
220.528789
 30
0.0
  0
SPLINE
  5
217
100
AcDbEntity
  8
Layer_1
 62
7
100
AcDbSpline
 70
8
 71
3
 72
8
 73
4
 74
0
 40
0
 40
0
 40
0
 40
0
 40
1
 40
1
 40
1
 40
1
 10
207.431640
 20
220.528789
 30
0.0
 10
211.816665
 20
215.735569
 30
0.0
 10
218.511675
 20
212.434901
 30
0.0
 10
225.002318
 20
211.866274
 30
0.0
  0
SPLINE
  5
218
100
AcDbEntity
  8
Layer_1
 62
7
100
AcDbSpline
 70
8
 71
3
 72
8
 73
4
 74
0
 40
0
 40
0
 40
0
 40
0
 40
1
 40
1
 40
1
 40
1
 10
225.002318
 20
211.866274
 30
0.0
 10
227.087895
 20
211.683664
 30
0.0
 10
227.094450
 20
211.683664
 30
0.0
 10
229.184820
 20
211.867774
 30
0.0
  0
SPLINE
  5
219
100
AcDbEntity
  8
Layer_1
 62
7
100
AcDbSpline
 70
8
 71
3
 72
8
 73
4
 74
0
 40
0
 40
0
 40
0
 40
0
 40
1
 40
1
 40
1
 40
1
 10
253.765830
 20
251.922551
 30
0.0
 10
254.075587
 20
252.299021
 30
0.0
 10
254.112420
 20
252.561904
 30
0.0
 10
254.112420
 20
254.392166
 30
0.0
  0
SPLINE
  5
21a
100
AcDbEntity
  8
Layer_1
 62
7
100
AcDbSpline
 70
8
 71
3
 72
8
 73
4
 74
0
 40
0
 40
0
 40
0
 40
0
 40
1
 40
1
 40
1
 40
1
 10
254.112420
 20
254.392166
 30
0.0
 10
254.112420
 20
258.882259
 30
0.0
 10
253.046355
 20
263.467586
 30
0.0
 10
251.173455
 20
267.032456
 30
0.0
  0
SPLINE
  5
21b
100
AcDbEntity
  8
Layer_1
 62
7
100
AcDbSpline
 70
8
 71
3
 72
8
 73
4
 74
0
 40
0
 40
0
 40
0
 40
0
 40
1
 40
1
 40
1
 40
1
 10
251.173455
 20
267.032456
 30
0.0
 10
246.720188
 20
275.509189
 30
0.0
 10
237.881205
 20
280.292104
 30
0.0
 10
226.660470
 20
280.296926
 30
0.0
  0
SPLINE
  5
21c
100
AcDbEntity
  8
Layer_1
 62
7
100
AcDbSpline
 70
8
 71
3
 72
8
 73
4
 74
0
 40
0
 40
0
 40
0
 40
0
 40
1
 40
1
 40
1
 40
1
 10
226.660470
 20
280.296926
 30
0.0
 10
223.690140
 20
280.298426
 30
0.0
 10
219.775507
 20
279.924079
 30
0.0
 10
219.355777
 20
279.599104
 30
0.0
  0
SPLINE
  5
21d
100
AcDbEntity
  8
Layer_1
 62
7
100
AcDbSpline
 70
8
 71
3
 72
8
 73
4
 74
0
 40
0
 40
0
 40
0
 40
0
 40
1
 40
1
 40
1
 40
1
 10
219.355778
 20
279.599104
 30
0.0
 10
219.240803
 20
279.509906
 30
0.0
 10
219.146460
 20
279.216724
 30
0.0
 10
219.146460
 20
278.947654
 30
0.0
  0
SPLINE
  5
21e
100
AcDbEntity
  8
Layer_1
 62
7
100
AcDbSpline
 70
8
 71
3
 72
8
 73
4
 74
0
 40
0
 40
0
 40
0
 40
0
 40
1
 40
1
 40
1
 40
1
 10
219.146460
 20
278.947654
 30
0.0
 10
219.146460
 20
275.576726
 30
0.0
 10
235.480568
 20
260.603876
 30
0.0
 10
246.249150
 20
254.103611
 30
0.0
  0
SPLINE
  5
21f
100
AcDbEntity
  8
Layer_1
 62
7
100
AcDbSpline
 70
8
 71
3
 72
8
 73
4
 74
0
 40
0
 40
0
 40
0
 40
0
 40
1
 40
1
 40
1
 40
1
 10
246.249150
 20
254.103611
 30
0.0
 10
249.222397
 20
252.308839
 30
0.0
 10
251.146005
 20
251.516494
 30
0.0
 10
252.552585
 20
251.507119
 30
0.0
  0
SPLINE
  5
220
100
AcDbEntity
  8
Layer_1
 62
7
100
AcDbSpline
 70
8
 71
3
 72
8
 73
4
 74
0
 40
0
 40
0
 40
0
 40
0
 40
1
 40
1
 40
1
 40
1
 10
252.552585
 20
251.507119
 30
0.0
 10
253.292888
 20
251.503369
 30
0.0
 10
253.469198
 20
251.562544
 30
0.0
 10
253.765515
 20
251.922514
 30
0.0
  0
SPLINE
  5
221
100
AcDbEntity
  8
Layer_1
 62
7
100
AcDbSpline
 70
8
 71
3
 72
8
 73
4
 74
0
 40
0
 40
0
 40
0
 40
0
 40
1
 40
1
 40
1
 40
1
 10
137.349630
 20
253.127374
 30
0.0
 10
144.620460
 20
256.418314
 30
0.0
 10
160.032105
 20
268.964231
 30
0.0
 10
165.921427
 20
276.386381
 30
0.0
  0
SPLINE
  5
222
100
AcDbEntity
  8
Layer_1
 62
7
100
AcDbSpline
 70
8
 71
3
 72
8
 73
4
 74
0
 40
0
 40
0
 40
0
 40
0
 40
1
 40
1
 40
1
 40
1
 10
165.921427
 20
276.386381
 30
0.0
 10
167.623957
 20
278.532019
 30
0.0
 10
168.189975
 20
279.915521
 30
0.0
 10
167.567273
 20
280.409284
 30
0.0
  0
SPLINE
  5
223
100
AcDbEntity
  8
Layer_1
 62
7
100
AcDbSpline
 70
8
 71
3
 72
8
 73
4
 74
0
 40
0
 40
0
 40
0
 40
0
 40
1
 40
1
 40
1
 40
1
 10
167.567273
 20
280.409284
 30
0.0
 10
166.835370
 20
280.989709
 30
0.0
 10
159.573690
 20
281.268964
 30
0.0
 10
156.241785
 20
280.845034
 30
0.0
  0
SPLINE
  5
224
100
AcDbEntity
  8
Layer_1
 62
7
100
AcDbSpline
 70
8
 71
3
 72
8
 73
4
 74
0
 40
0
 40
0
 40
0
 40
0
 40
1
 40
1
 40
1
 40
1
 10
156.241785
 20
280.845034
 30
0.0
 10
142.153208
 20
279.051619
 30
0.0
 10
132.819690
 20
268.796989
 30
0.0
 10
132.819690
 20
255.111596
 30
0.0
  0
SPLINE
  5
225
100
AcDbEntity
  8
Layer_1
 62
7
100
AcDbSpline
 70
8
 71
3
 72
8
 73
4
 74
0
 40
0
 40
0
 40
0
 40
0
 40
1
 40
1
 40
1
 40
1
 10
132.819690
 20
255.111596
 30
0.0
 10
132.819690
 20
253.334111
 30
0.0
 10
132.852690
 20
253.100359
 30
0.0
 10
133.182457
 20
252.702394
 30
0.0
  0
SPLINE
  5
226
100
AcDbEntity
  8
Layer_1
 62
7
100
AcDbSpline
 70
8
 71
3
 72
8
 73
4
 74
0
 40
0
 40
0
 40
0
 40
0
 40
1
 40
1
 40
1
 40
1
 10
133.182457
 20
252.702394
 30
0.0
 10
133.527697
 20
252.282941
 30
0.0
 10
133.599195
 20
252.265286
 30
0.0
 10
134.659050
 20
252.337669
 30
0.0
  0
SPLINE
  5
227
100
AcDbEntity
  8
Layer_1
 62
7
100
AcDbSpline
 70
8
 71
3
 72
8
 73
4
 74
0
 40
0
 40
0
 40
0
 40
0
 40
1
 40
1
 40
1
 40
1
 10
134.659050
 20
252.337669
 30
0.0
 10
135.525450
 20
252.396769
 30
0.0
 10
136.123050
 20
252.572606
 30
0.0
 10
137.349547
 20
253.127501
 30
0.0
  0
LWPOLYLINE
  5
228
100
AcDbEntity
  8
Layer_1
 62
7
100
AcDbPolyline
 90
2
 70
0
 10
199.154385
 20
142.795024
 30
0.0
 10
199.154385
 20
142.795309
 30
0.0
  0
SPLINE
  5
229
100
AcDbEntity
  8
Layer_1
 62
7
100
AcDbSpline
 70
8
 71
3
 72
8
 73
4
 74
0
 40
0
 40
0
 40
0
 40
0
 40
1
 40
1
 40
1
 40
1
 10
201.500317
 20
260.273269
 30
0.0
 10
211.575855
 20
261.727211
 30
0.0
 10
217.763542
 20
266.159149
 30
0.0
 10
217.239525
 20
271.546556
 30
0.0
  0
SPLINE
  5
22a
100
AcDbEntity
  8
Layer_1
 62
7
100
AcDbSpline
 70
8
 71
3
 72
8
 73
4
 74
0
 40
0
 40
0
 40
0
 40
0
 40
1
 40
1
 40
1
 40
1
 10
217.239525
 20
271.546556
 30
0.0
 10
216.646237
 20
277.646209
 30
0.0
 10
207.270247
 20
284.041849
 30
0.0
 10
197.165527
 20
285.239711
 30
0.0
  0
SPLINE
  5
22b
100
AcDbEntity
  8
Layer_1
 62
7
100
AcDbSpline
 70
8
 71
3
 72
8
 73
4
 74
0
 40
0
 40
0
 40
0
 40
0
 40
1
 40
1
 40
1
 40
1
 10
197.165527
 20
285.239711
 30
0.0
 10
190.080915
 20
286.079554
 30
0.0
 10
180.978135
 20
283.049306
 30
0.0
 10
175.709797
 20
278.097356
 30
0.0
  0
SPLINE
  5
22c
100
AcDbEntity
  8
Layer_1
 62
7
100
AcDbSpline
 70
8
 71
3
 72
8
 73
4
 74
0
 40
0
 40
0
 40
0
 40
0
 40
1
 40
1
 40
1
 40
1
 10
175.709798
 20
278.097356
 30
0.0
 10
173.535967
 20
276.054034
 30
0.0
 10
172.130032
 20
273.521974
 30
0.0
 10
172.138837
 20
271.666256
 30
0.0
  0
SPLINE
  5
22d
100
AcDbEntity
  8
Layer_1
 62
7
100
AcDbSpline
 70
8
 71
3
 72
8
 73
4
 74
0
 40
0
 40
0
 40
0
 40
0
 40
1
 40
1
 40
1
 40
1
 10
172.138837
 20
271.666256
 30
0.0
 10
172.141087
 20
271.258069
 30
0.0
 10
172.316910
 20
270.451159
 30
0.0
 10
172.530487
 20
269.873561
 30
0.0
  0
SPLINE
  5
22e
100
AcDbEntity
  8
Layer_1
 62
7
100
AcDbSpline
 70
8
 71
3
 72
8
 73
4
 74
0
 40
0
 40
0
 40
0
 40
0
 40
1
 40
1
 40
1
 40
1
 10
172.530487
 20
269.873561
 30
0.0
 10
174.315892
 20
265.041184
 30
0.0
 10
181.366080
 20
261.140734
 30
0.0
 10
190.287150
 20
260.049829
 30
0.0
  0
SPLINE
  5
22f
100
AcDbEntity
  8
Layer_1
 62
7
100
AcDbSpline
 70
8
 71
3
 72
8
 73
4
 74
0
 40
0
 40
0
 40
0
 40
0
 40
1
 40
1
 40
1
 40
1
 10
190.287150
 20
260.049829
 30
0.0
 10
192.836385
 20
259.738249
 30
0.0
 10
198.585675
 20
259.852496
 30
0.0
 10
201.500362
 20
260.273306
 30
0.0
  0
SPLINE
  5
230
100
AcDbEntity
  8
Layer_1
 62
7
100
AcDbSpline
 70
8
 71
3
 72
8
 73
4
 74
0
 40
0
 40
0
 40
0
 40
0
 40
1
 40
1
 40
1
 40
1
 10
161.929988
 20
286.505449
 30
0.0
 10
165.903008
 20
287.180441
 30
0.0
 10
169.545097
 20
288.480701
 30
0.0
 10
172.302600
 20
290.208499
 30
0.0
  0
SPLINE
  5
231
100
AcDbEntity
  8
Layer_1
 62
7
100
AcDbSpline
 70
8
 71
3
 72
8
 73
4
 74
0
 40
0
 40
0
 40
0
 40
0
 40
1
 40
1
 40
1
 40
1
 10
172.302600
 20
290.208499
 30
0.0
 10
172.900717
 20
290.583184
 30
0.0
 10
174.067642
 20
291.542066
 30
0.0
 10
174.895778
 20
292.339106
 30
0.0
  0
SPLINE
  5
232
100
AcDbEntity
  8
Layer_1
 62
7
100
AcDbSpline
 70
8
 71
3
 72
8
 73
4
 74
0
 40
0
 40
0
 40
0
 40
0
 40
1
 40
1
 40
1
 40
1
 10
174.895778
 20
292.339106
 30
0.0
 10
176.596800
 20
293.976259
 30
0.0
 10
177.703440
 20
295.675856
 30
0.0
 10
178.435200
 20
297.774844
 30
0.0
  0
SPLINE
  5
233
100
AcDbEntity
  8
Layer_1
 62
7
100
AcDbSpline
 70
8
 71
3
 72
8
 73
4
 74
0
 40
0
 40
0
 40
0
 40
0
 40
1
 40
1
 40
1
 40
1
 10
176.325488
 20
301.415861
 30
0.0
 10
169.167465
 20
308.049941
 30
0.0
 10
159.106320
 20
314.530076
 30
0.0
 10
143.740140
 20
322.403149
 30
0.0
  0
SPLINE
  5
234
100
AcDbEntity
  8
Layer_1
 62
7
100
AcDbSpline
 70
8
 71
3
 72
8
 73
4
 74
0
 40
0
 40
0
 40
0
 40
0
 40
1
 40
1
 40
1
 40
1
 10
143.740140
 20
322.403149
 30
0.0
 10
141.879008
 20
323.356706
 30
0.0
 10
140.378640
 20
324.158276
 30
0.0
 10
140.405962
 20
324.184391
 30
0.0
  0
SPLINE
  5
235
100
AcDbEntity
  8
Layer_1
 62
7
100
AcDbSpline
 70
8
 71
3
 72
8
 73
4
 74
0
 40
0
 40
0
 40
0
 40
0
 40
1
 40
1
 40
1
 40
1
 10
140.405963
 20
324.184391
 30
0.0
 10
140.490750
 20
324.265699
 30
0.0
 10
145.652085
 20
322.562599
 30
0.0
 10
148.448512
 20
321.530584
 30
0.0
  0
SPLINE
  5
236
100
AcDbEntity
  8
Layer_1
 62
7
100
AcDbSpline
 70
8
 71
3
 72
8
 73
4
 74
0
 40
0
 40
0
 40
0
 40
0
 40
1
 40
1
 40
1
 40
1
 10
148.448512
 20
321.530584
 30
0.0
 10
160.479960
 20
317.090411
 30
0.0
 10
171.306210
 20
311.308256
 30
0.0
 10
179.902133
 20
304.731686
 30
0.0
  0
LWPOLYLINE
  5
237
100
AcDbEntity
  8
Layer_1
 62
7
100
AcDbPolyline
 90
2
 70
0
 10
253.765515
 20
251.922514
 30
0.0
 10
253.765830
 20
251.922551
 30
0.0
  0
SPLINE
  5
238
100
AcDbEntity
  8
Layer_1
 62
7
100
AcDbSpline
 70
8
 71
3
 72
8
 73
4
 74
0
 40
0
 40
0
 40
0
 40
0
 40
1
 40
1
 40
1
 40
1
 10
182.894625
 20
303.316106
 30
0.0
 10
184.122877
 20
303.907564
 30
0.0
 10
185.615235
 20
305.009696
 30
0.0
 10
186.652785
 20
306.091646
 30
0.0
  0
SPLINE
  5
239
100
AcDbEntity
  8
Layer_1
 62
7
100
AcDbSpline
 70
8
 71
3
 72
8
 73
4
 74
0
 40
0
 40
0
 40
0
 40
0
 40
1
 40
1
 40
1
 40
1
 10
186.652785
 20
306.091646
 30
0.0
 10
190.721040
 20
310.333864
 30
0.0
 10
190.189410
 20
317.015096
 30
0.0
 10
185.147355
 20
325.011409
 30
0.0
  0
SPLINE
  5
23a
100
AcDbEntity
  8
Layer_1
 62
7
100
AcDbSpline
 70
8
 71
3
 72
8
 73
4
 74
0
 40
0
 40
0
 40
0
 40
0
 40
1
 40
1
 40
1
 40
1
 10
185.147355
 20
325.011409
 30
0.0
 10
184.054725
 20
326.744239
 30
0.0
 10
182.186730
 20
329.131159
 30
0.0
 10
180.780743
 20
330.591064
 30
0.0
  0
LWPOLYLINE
  5
23b
100
AcDbEntity
  8
Layer_1
 62
7
100
AcDbPolyline
 90
3
 70
0
 10
178.435200
 20
297.774844
 30
0.0
 10
178.879410
 20
299.048869
 30
0.0
 10
176.325488
 20
301.415861
 30
0.0
  0
SPLINE
  5
23c
100
AcDbEntity
  8
Layer_1
 62
7
100
AcDbSpline
 70
8
 71
3
 72
8
 73
4
 74
0
 40
0
 40
0
 40
0
 40
0
 40
1
 40
1
 40
1
 40
1
 10
179.649577
 20
330.830876
 30
0.0
 10
179.635252
 20
329.790994
 30
0.0
 10
179.337488
 20
328.688561
 30
0.0
 10
179.046345
 20
328.595809
 30
0.0
  0
SPLINE
  5
23d
100
AcDbEntity
  8
Layer_1
 62
7
100
AcDbSpline
 70
8
 71
3
 72
8
 73
4
 74
0
 40
0
 40
0
 40
0
 40
0
 40
1
 40
1
 40
1
 40
1
 10
179.046345
 20
328.595809
 30
0.0
 10
178.939298
 20
328.559659
 30
0.0
 10
178.471103
 20
329.023391
 30
0.0
 10
178.005908
 20
329.622056
 30
0.0
  0
SPLINE
  5
23e
100
AcDbEntity
  8
Layer_1
 62
7
100
AcDbSpline
 70
8
 71
3
 72
8
 73
4
 74
0
 40
0
 40
0
 40
0
 40
0
 40
1
 40
1
 40
1
 40
1
 10
178.005907
 20
329.622056
 30
0.0
 10
177.161340
 20
330.708761
 30
0.0
 10
172.495297
 20
335.539796
 30
0.0
 10
172.261215
 20
335.569999
 30
0.0
  0
SPLINE
  5
23f
100
AcDbEntity
  8
Layer_1
 62
7
100
AcDbSpline
 70
8
 71
3
 72
8
 73
4
 74
0
 40
0
 40
0
 40
0
 40
0
 40
1
 40
1
 40
1
 40
1
 10
172.261215
 20
335.569999
 30
0.0
 10
172.193040
 20
335.581024
 30
0.0
 10
172.184962
 20
334.950739
 30
0.0
 10
172.242240
 20
334.174406
 30
0.0
  0
SPLINE
  5
240
100
AcDbEntity
  8
Layer_1
 62
7
100
AcDbSpline
 70
8
 71
3
 72
8
 73
4
 74
0
 40
0
 40
0
 40
0
 40
0
 40
1
 40
1
 40
1
 40
1
 10
172.242225
 20
334.174406
 30
0.0
 10
172.345927
 20
332.775229
 30
0.0
 10
172.342643
 20
332.758211
 30
0.0
 10
171.852000
 20
332.233361
 30
0.0
  0
LWPOLYLINE
  5
241
100
AcDbEntity
  8
Layer_1
 62
7
100
AcDbPolyline
 90
3
 70
0
 10
179.902132
 20
304.731686
 30
0.0
 10
182.193735
 20
302.978374
 30
0.0
 10
182.894625
 20
303.316106
 30
0.0
  0
SPLINE
  5
242
100
AcDbEntity
  8
Layer_1
 62
7
100
AcDbSpline
 70
8
 71
3
 72
8
 73
4
 74
0
 40
0
 40
0
 40
0
 40
0
 40
1
 40
1
 40
1
 40
1
 10
170.580368
 20
332.645779
 30
0.0
 10
169.933328
 20
333.430691
 30
0.0
 10
165.787643
 20
337.184494
 30
0.0
 10
165.567810
 20
337.184494
 30
0.0
  0
SPLINE
  5
243
100
AcDbEntity
  8
Layer_1
 62
7
100
AcDbSpline
 70
8
 71
3
 72
8
 73
4
 74
0
 40
0
 40
0
 40
0
 40
0
 40
1
 40
1
 40
1
 40
1
 10
165.567810
 20
337.184494
 30
0.0
 10
165.529860
 20
337.184494
 30
0.0
 10
165.572310
 20
336.840671
 30
0.0
 10
165.663457
 20
336.420319
 30
0.0
  0
SPLINE
  5
244
100
AcDbEntity
  8
Layer_1
 62
7
100
AcDbSpline
 70
8
 71
3
 72
8
 73
4
 74
0
 40
0
 40
0
 40
0
 40
0
 40
1
 40
1
 40
1
 40
1
 10
165.663457
 20
336.420319
 30
0.0
 10
165.883665
 20
335.392489
 30
0.0
 10
165.696757
 20
334.572604
 30
0.0
 10
165.088260
 20
333.911374
 30
0.0
  0
LWPOLYLINE
  5
245
100
AcDbEntity
  8
Layer_1
 62
7
100
AcDbPolyline
 90
3
 70
0
 10
180.780743
 20
330.591064
 30
0.0
 10
179.663925
 20
331.750684
 30
0.0
 10
179.649600
 20
330.830876
 30
0.0
  0
SPLINE
  5
246
100
AcDbEntity
  8
Layer_1
 62
7
100
AcDbSpline
 70
8
 71
3
 72
8
 73
4
 74
0
 40
0
 40
0
 40
0
 40
0
 40
1
 40
1
 40
1
 40
1
 10
162.879765
 20
334.520036
 30
0.0
 10
160.947450
 20
335.832334
 30
0.0
 10
159.642247
 20
336.602471
 30
0.0
 10
158.108348
 20
337.335551
 30
0.0
  0
SPLINE
  5
247
100
AcDbEntity
  8
Layer_1
 62
7
100
AcDbSpline
 70
8
 71
3
 72
8
 73
4
 74
0
 40
0
 40
0
 40
0
 40
0
 40
1
 40
1
 40
1
 40
1
 10
158.108347
 20
337.335551
 30
0.0
 10
156.134700
 20
338.278811
 30
0.0
 10
156.150322
 20
338.283806
 30
0.0
 10
156.997305
 20
336.983141
 30
0.0
  0
SPLINE
  5
248
100
AcDbEntity
  8
Layer_1
 62
7
100
AcDbSpline
 70
8
 71
3
 72
8
 73
4
 74
0
 40
0
 40
0
 40
0
 40
0
 40
1
 40
1
 40
1
 40
1
 10
156.997305
 20
336.983141
 30
0.0
 10
157.826857
 20
335.709461
 30
0.0
 10
157.913430
 20
335.193056
 30
0.0
 10
157.401735
 20
334.571209
 30
0.0
  0
LWPOLYLINE
  5
249
100
AcDbEntity
  8
Layer_1
 62
7
100
AcDbPolyline
 90
3
 70
0
 10
171.852000
 20
332.233361
 30
0.0
 10
171.356880
 20
331.703884
 30
0.0
 10
170.580368
 20
332.645779
 30
0.0
  0
SPLINE
  5
24a
100
AcDbEntity
  8
Layer_1
 62
7
100
AcDbSpline
 70
8
 71
3
 72
8
 73
4
 74
0
 40
0
 40
0
 40
0
 40
0
 40
1
 40
1
 40
1
 40
1
 10
155.756947
 20
335.023856
 30
0.0
 10
153.461977
 20
336.560531
 30
0.0
 10
150.619320
 20
337.635416
 30
0.0
 10
147.791963
 20
338.035601
 30
0.0
  0
LWPOLYLINE
  5
24b
100
AcDbEntity
  8
Layer_1
 62
7
100
AcDbPolyline
 90
3
 70
0
 10
165.088260
 20
333.911374
 30
0.0
 10
164.584050
 20
333.362674
 30
0.0
 10
162.879765
 20
334.520036
 30
0.0
  0
SPLINE
  5
24c
100
AcDbEntity
  8
Layer_1
 62
7
100
AcDbSpline
 70
8
 71
3
 72
8
 73
4
 74
0
 40
0
 40
0
 40
0
 40
0
 40
1
 40
1
 40
1
 40
1
 10
147.727890
 20
337.617266
 30
0.0
 10
148.060800
 20
337.335409
 30
0.0
 10
148.719495
 20
336.777686
 30
0.0
 10
149.191785
 20
336.378326
 30
0.0
  0
SPLINE
  5
24d
100
AcDbEntity
  8
Layer_1
 62
7
100
AcDbSpline
 70
8
 71
3
 72
8
 73
4
 74
0
 40
0
 40
0
 40
0
 40
0
 40
1
 40
1
 40
1
 40
1
 10
149.191785
 20
336.378326
 30
0.0
 10
150.131303
 20
335.583821
 30
0.0
 10
150.281047
 20
335.083961
 30
0.0
 10
149.757705
 20
334.489166
 30
0.0
  0
LWPOLYLINE
  5
24e
100
AcDbEntity
  8
Layer_1
 62
7
100
AcDbPolyline
 90
3
 70
0
 10
157.401735
 20
334.571209
 30
0.0
 10
157.057462
 20
334.153129
 30
0.0
 10
155.756947
 20
335.023856
 30
0.0
  0
SPLINE
  5
24f
100
AcDbEntity
  8
Layer_1
 62
7
100
AcDbSpline
 70
8
 71
3
 72
8
 73
4
 74
0
 40
0
 40
0
 40
0
 40
0
 40
1
 40
1
 40
1
 40
1
 10
147.792053
 20
334.644491
 30
0.0
 10
144.768450
 20
335.526574
 30
0.0
 10
140.398245
 20
336.542951
 30
0.0
 10
140.849085
 20
336.259279
 30
0.0
  0
SPLINE
  5
250
100
AcDbEntity
  8
Layer_1
 62
7
100
AcDbSpline
 70
8
 71
3
 72
8
 73
4
 74
0
 40
0
 40
0
 40
0
 40
0
 40
1
 40
1
 40
1
 40
1
 10
140.849085
 20
336.259279
 30
0.0
 10
141.079260
 20
336.114656
 30
0.0
 10
141.587288
 20
335.697386
 30
0.0
 10
141.978360
 20
335.332406
 30
0.0
  0
SPLINE
  5
251
100
AcDbEntity
  8
Layer_1
 62
7
100
AcDbSpline
 70
8
 71
3
 72
8
 73
4
 74
0
 40
0
 40
0
 40
0
 40
0
 40
1
 40
1
 40
1
 40
1
 10
141.978360
 20
335.332406
 30
0.0
 10
142.766235
 20
334.597031
 30
0.0
 10
142.890030
 20
334.050484
 30
0.0
 10
142.370483
 20
333.601189
 30
0.0
  0
SPLINE
  5
252
100
AcDbEntity
  8
Layer_1
 62
7
100
AcDbSpline
 70
8
 71
3
 72
8
 73
4
 74
0
 40
0
 40
0
 40
0
 40
0
 40
1
 40
1
 40
1
 40
1
 10
142.370483
 20
333.601189
 30
0.0
 10
142.067888
 20
333.339754
 30
0.0
 10
141.992093
 20
333.341899
 30
0.0
 10
140.906573
 20
333.646339
 30
0.0
  0
SPLINE
  5
253
100
AcDbEntity
  8
Layer_1
 62
7
100
AcDbSpline
 70
8
 71
3
 72
8
 73
4
 74
0
 40
0
 40
0
 40
0
 40
0
 40
1
 40
1
 40
1
 40
1
 10
140.906572
 20
333.646339
 30
0.0
 10
138.793927
 20
334.237099
 30
0.0
 10
136.276147
 20
334.517434
 30
0.0
 10
133.989795
 20
334.416589
 30
0.0
  0
SPLINE
  5
254
100
AcDbEntity
  8
Layer_1
 62
7
100
AcDbSpline
 70
8
 71
3
 72
8
 73
4
 74
0
 40
0
 40
0
 40
0
 40
0
 40
1
 40
1
 40
1
 40
1
 10
133.989795
 20
334.416589
 30
0.0
 10
130.830180
 20
334.277291
 30
0.0
 10
130.933320
 20
334.398214
 30
0.0
 10
132.413752
 20
332.532529
 30
0.0
  0
LWPOLYLINE
  5
255
100
AcDbEntity
  8
Layer_1
 62
7
100
AcDbPolyline
 90
3
 70
0
 10
147.791963
 20
338.035601
 30
0.0
 10
147.122760
 20
338.130116
 30
0.0
 10
147.727890
 20
337.617266
 30
0.0
  0
SPLINE
  5
256
100
AcDbEntity
  8
Layer_1
 62
7
100
AcDbSpline
 70
8
 71
3
 72
8
 73
4
 74
0
 40
0
 40
0
 40
0
 40
0
 40
1
 40
1
 40
1
 40
1
 10
124.853003
 20
328.672819
 30
0.0
 10
125.523488
 20
327.419944
 30
0.0
 10
126.245970
 20
325.891346
 30
0.0
 10
126.458460
 20
325.275866
 30
0.0
  0
SPLINE
  5
257
100
AcDbEntity
  8
Layer_1
 62
7
100
AcDbSpline
 70
8
 71
3
 72
8
 73
4
 74
0
 40
0
 40
0
 40
0
 40
0
 40
1
 40
1
 40
1
 40
1
 10
126.458460
 20
325.275866
 30
0.0
 10
126.671108
 20
324.660446
 30
0.0
 10
126.879458
 20
324.066971
 30
0.0
 10
126.922087
 20
323.957059
 30
0.0
  0
SPLINE
  5
258
100
AcDbEntity
  8
Layer_1
 62
7
100
AcDbSpline
 70
8
 71
3
 72
8
 73
4
 74
0
 40
0
 40
0
 40
0
 40
0
 40
1
 40
1
 40
1
 40
1
 10
126.922088
 20
323.957059
 30
0.0
 10
126.981263
 20
323.803811
 30
0.0
 10
126.506288
 20
323.757214
 30
0.0
 10
124.887150
 20
323.757214
 30
0.0
  0
LWPOLYLINE
  5
259
100
AcDbEntity
  8
Layer_1
 62
7
100
AcDbPolyline
 90
3
 70
0
 10
149.757705
 20
334.489166
 30
0.0
 10
149.465040
 20
334.156451
 30
0.0
 10
147.792053
 20
334.644491
 30
0.0
  0
SPLINE
  5
25a
100
AcDbEntity
  8
Layer_1
 62
7
100
AcDbSpline
 70
8
 71
3
 72
8
 73
4
 74
0
 40
0
 40
0
 40
0
 40
0
 40
1
 40
1
 40
1
 40
1
 10
123.187222
 20
322.980236
 30
0.0
 10
123.815647
 20
321.795229
 30
0.0
 10
125.122462
 20
320.540711
 30
0.0
 10
127.010310
 20
319.309999
 30
0.0
  0
SPLINE
  5
25b
100
AcDbEntity
  8
Layer_1
 62
7
100
AcDbSpline
 70
8
 71
3
 72
8
 73
4
 74
0
 40
0
 40
0
 40
0
 40
0
 40
1
 40
1
 40
1
 40
1
 10
127.010310
 20
319.309999
 30
0.0
 10
127.950630
 20
318.697054
 30
0.0
 10
128.900280
 20
318.010384
 30
0.0
 10
129.120727
 20
317.784109
 30
0.0
  0
LWPOLYLINE
  5
25c
100
AcDbEntity
  8
Layer_1
 62
7
100
AcDbPolyline
 90
5
 70
0
 10
132.413752
 20
332.532529
 30
0.0
 10
133.667438
 20
330.950794
 30
0.0
 10
128.650665
 20
330.950794
 30
0.0
 10
123.633938
 20
330.950794
 30
0.0
 10
124.853002
 20
328.672819
 30
0.0
  0
SPLINE
  5
25d
100
AcDbEntity
  8
Layer_1
 62
7
100
AcDbSpline
 70
8
 71
3
 72
8
 73
4
 74
0
 40
0
 40
0
 40
0
 40
0
 40
1
 40
1
 40
1
 40
1
 10
129.036960
 20
317.196971
 30
0.0
 10
127.685340
 20
316.705264
 30
0.0
 10
126.247815
 20
316.702781
 30
0.0
 10
124.909125
 20
317.189471
 30
0.0
  0
SPLINE
  5
25e
100
AcDbEntity
  8
Layer_1
 62
7
100
AcDbSpline
 70
8
 71
3
 72
8
 73
4
 74
0
 40
0
 40
0
 40
0
 40
0
 40
1
 40
1
 40
1
 40
1
 10
124.909125
 20
317.189629
 30
0.0
 10
124.463025
 20
317.352236
 30
0.0
 10
124.452128
 20
317.344346
 30
0.0
 10
124.641578
 20
317.001259
 30
0.0
  0
SPLINE
  5
25f
100
AcDbEntity
  8
Layer_1
 62
7
100
AcDbSpline
 70
8
 71
3
 72
8
 73
4
 74
0
 40
0
 40
0
 40
0
 40
0
 40
1
 40
1
 40
1
 40
1
 10
124.641578
 20
317.001259
 30
0.0
 10
125.090047
 20
316.188634
 30
0.0
 10
126.176272
 20
314.803954
 30
0.0
 10
127.366883
 20
313.526659
 30
0.0
  0
SPLINE
  5
260
100
AcDbEntity
  8
Layer_1
 62
7
100
AcDbSpline
 70
8
 71
3
 72
8
 73
4
 74
0
 40
0
 40
0
 40
0
 40
0
 40
1
 40
1
 40
1
 40
1
 10
127.366883
 20
313.526659
 30
0.0
 10
128.063505
 20
312.779374
 30
0.0
 10
129.203767
 20
311.538484
 30
0.0
 10
129.900810
 20
310.769141
 30
0.0
  0
LWPOLYLINE
  5
261
100
AcDbEntity
  8
Layer_1
 62
7
100
AcDbPolyline
 90
3
 70
0
 10
124.887150
 20
323.757214
 30
0.0
 10
122.775210
 20
323.757214
 30
0.0
 10
123.187222
 20
322.980236
 30
0.0
  0
SPLINE
  5
262
100
AcDbEntity
  8
Layer_1
 62
7
100
AcDbSpline
 70
8
 71
3
 72
8
 73
4
 74
0
 40
0
 40
0
 40
0
 40
0
 40
1
 40
1
 40
1
 40
1
 10
127.627297
 20
308.923624
 30
0.0
 10
127.946482
 20
308.686174
 30
0.0
 10
129.075952
 20
307.819159
 30
0.0
 10
130.136798
 20
306.997339
 30
0.0
  0
SPLINE
  5
263
100
AcDbEntity
  8
Layer_1
 62
7
100
AcDbSpline
 70
8
 71
3
 72
8
 73
4
 74
0
 40
0
 40
0
 40
0
 40
0
 40
1
 40
1
 40
1
 40
1
 10
130.136798
 20
306.997339
 30
0.0
 10
131.197688
 20
306.175534
 30
0.0
 10
132.573840
 20
305.141636
 30
0.0
 10
133.194922
 20
304.699759
 30
0.0
  0
SPLINE
  5
264
100
AcDbEntity
  8
Layer_1
 62
7
100
AcDbSpline
 70
8
 71
3
 72
8
 73
4
 74
0
 40
0
 40
0
 40
0
 40
0
 40
1
 40
1
 40
1
 40
1
 10
133.194923
 20
304.699759
 30
0.0
 10
133.816012
 20
304.257671
 30
0.0
 10
134.324197
 20
303.829564
 30
0.0
 10
134.324197
 20
303.747926
 30
0.0
  0
SPLINE
  5
265
100
AcDbEntity
  8
Layer_1
 62
7
100
AcDbSpline
 70
8
 71
3
 72
8
 73
4
 74
0
 40
0
 40
0
 40
0
 40
0
 40
1
 40
1
 40
1
 40
1
 10
134.324197
 20
303.747926
 30
0.0
 10
134.324197
 20
303.469661
 30
0.0
 10
133.166558
 20
303.136631
 30
0.0
 10
131.778427
 20
303.015694
 30
0.0
  0
LWPOLYLINE
  5
266
100
AcDbEntity
  8
Layer_1
 62
7
100
AcDbPolyline
 90
3
 70
0
 10
129.120727
 20
317.784109
 30
0.0
 10
129.521370
 20
317.372786
 30
0.0
 10
129.036960
 20
317.196971
 30
0.0
  0
SPLINE
  5
267
100
AcDbEntity
  8
Layer_1
 62
7
100
AcDbSpline
 70
8
 71
3
 72
8
 73
4
 74
0
 40
0
 40
0
 40
0
 40
0
 40
1
 40
1
 40
1
 40
1
 10
132.316590
 20
301.671206
 30
0.0
 10
134.207040
 20
300.468784
 30
0.0
 10
136.821292
 20
299.043934
 30
0.0
 10
139.050435
 20
298.001074
 30
0.0
  0
SPLINE
  5
268
100
AcDbEntity
  8
Layer_1
 62
7
100
AcDbSpline
 70
8
 71
3
 72
8
 73
4
 74
0
 40
0
 40
0
 40
0
 40
0
 40
1
 40
1
 40
1
 40
1
 10
139.050435
 20
298.001074
 30
0.0
 10
139.671525
 20
297.710621
 30
0.0
 10
140.179710
 20
297.431734
 30
0.0
 10
140.179710
 20
297.381671
 30
0.0
  0
SPLINE
  5
269
100
AcDbEntity
  8
Layer_1
 62
7
100
AcDbSpline
 70
8
 71
3
 72
8
 73
4
 74
0
 40
0
 40
0
 40
0
 40
0
 40
1
 40
1
 40
1
 40
1
 10
140.179710
 20
297.381671
 30
0.0
 10
140.179710
 20
297.175736
 30
0.0
 10
138.514117
 20
296.715686
 30
0.0
 10
137.453655
 20
296.628289
 30
0.0
  0
LWPOLYLINE
  5
26a
100
AcDbEntity
  8
Layer_1
 62
7
100
AcDbPolyline
 90
5
 70
0
 10
129.900810
 20
310.769141
 30
0.0
 10
131.168183
 20
309.370421
 30
0.0
 10
129.107393
 20
309.362921
 30
0.0
 10
127.046603
 20
309.355421
 30
0.0
 10
127.627298
 20
308.923309
 30
0.0
  0
SPLINE
  5
26b
100
AcDbEntity
  8
Layer_1
 62
7
100
AcDbSpline
 70
8
 71
3
 72
8
 73
4
 74
0
 40
0
 40
0
 40
0
 40
0
 40
1
 40
1
 40
1
 40
1
 10
136.752578
 20
296.099659
 30
0.0
 10
137.469705
 20
295.384451
 30
0.0
 10
140.231850
 20
294.126019
 30
0.0
 10
143.609265
 20
292.975834
 30
0.0
  0
SPLINE
  5
26c
100
AcDbEntity
  8
Layer_1
 62
7
100
AcDbSpline
 70
8
 71
3
 72
8
 73
4
 74
0
 40
0
 40
0
 40
0
 40
0
 40
1
 40
1
 40
1
 40
1
 10
143.609265
 20
292.975834
 30
0.0
 10
145.357590
 20
292.380454
 30
0.0
 10
146.820165
 20
291.868429
 30
0.0
 10
146.859427
 20
291.838024
 30
0.0
  0
SPLINE
  5
26d
100
AcDbEntity
  8
Layer_1
 62
7
100
AcDbSpline
 70
8
 71
3
 72
8
 73
4
 74
0
 40
0
 40
0
 40
0
 40
0
 40
1
 40
1
 40
1
 40
1
 10
146.859427
 20
291.838024
 30
0.0
 10
146.897452
 20
291.805699
 30
0.0
 10
146.723970
 20
291.576581
 30
0.0
 10
146.470620
 20
291.323906
 30
0.0
  0
SPLINE
  5
26e
100
AcDbEntity
  8
Layer_1
 62
7
100
AcDbSpline
 70
8
 71
3
 72
8
 73
4
 74
0
 40
0
 40
0
 40
0
 40
0
 40
1
 40
1
 40
1
 40
1
 10
146.470620
 20
291.323906
 30
0.0
 10
146.005103
 20
290.859686
 30
0.0
 10
145.195343
 20
290.465269
 30
0.0
 10
144.278370
 20
290.256199
 30
0.0
  0
LWPOLYLINE
  5
26f
100
AcDbEntity
  8
Layer_1
 62
7
100
AcDbPolyline
 90
3
 70
0
 10
131.778427
 20
303.015694
 30
0.0
 10
130.392615
 20
302.894929
 30
0.0
 10
132.316590
 20
301.671206
 30
0.0
  0
SPLINE
  5
270
100
AcDbEntity
  8
Layer_1
 62
7
100
AcDbSpline
 70
8
 71
3
 72
8
 73
4
 74
0
 40
0
 40
0
 40
0
 40
0
 40
1
 40
1
 40
1
 40
1
 10
144.529313
 20
289.916231
 30
0.0
 10
145.928430
 20
289.497199
 30
0.0
 10
147.612975
 20
289.251911
 30
0.0
 10
150.384832
 20
289.063211
 30
0.0
  0
SPLINE
  5
271
100
AcDbEntity
  8
Layer_1
 62
7
100
AcDbSpline
 70
8
 71
3
 72
8
 73
4
 74
0
 40
0
 40
0
 40
0
 40
0
 40
1
 40
1
 40
1
 40
1
 10
150.384833
 20
289.063211
 30
0.0
 10
152.952098
 20
288.888491
 30
0.0
 10
153.731790
 20
288.748774
 30
0.0
 10
153.730230
 20
288.463406
 30
0.0
  0
SPLINE
  5
272
100
AcDbEntity
  8
Layer_1
 62
7
100
AcDbSpline
 70
8
 71
3
 72
8
 73
4
 74
0
 40
0
 40
0
 40
0
 40
0
 40
1
 40
1
 40
1
 40
1
 10
153.730230
 20
288.463406
 30
0.0
 10
153.727980
 20
288.107419
 30
0.0
 10
152.965035
 20
287.256326
 30
0.0
 10
152.213662
 20
286.772884
 30
0.0
  0
SPLINE
  5
273
100
AcDbEntity
  8
Layer_1
 62
7
100
AcDbSpline
 70
8
 71
3
 72
8
 73
4
 74
0
 40
0
 40
0
 40
0
 40
0
 40
1
 40
1
 40
1
 40
1
 10
152.213662
 20
286.772884
 30
0.0
 10
151.348965
 20
286.216481
 30
0.0
 10
151.348643
 20
286.215896
 30
0.0
 10
151.828643
 20
286.138429
 30
0.0
  0
SPLINE
  5
274
100
AcDbEntity
  8
Layer_1
 62
7
100
AcDbSpline
 70
8
 71
3
 72
8
 73
4
 74
0
 40
0
 40
0
 40
0
 40
0
 40
1
 40
1
 40
1
 40
1
 10
151.828643
 20
286.138429
 30
0.0
 10
152.092897
 20
286.097704
 30
0.0
 10
154.002855
 20
286.081204
 30
0.0
 10
156.073207
 20
286.106104
 30
0.0
  0
SPLINE
  5
275
100
AcDbEntity
  8
Layer_1
 62
7
100
AcDbSpline
 70
8
 71
3
 72
8
 73
4
 74
0
 40
0
 40
0
 40
0
 40
0
 40
1
 40
1
 40
1
 40
1
 10
156.073207
 20
286.106126
 30
0.0
 10
159.067267
 20
286.142276
 30
0.0
 10
160.265355
 20
286.223584
 30
0.0
 10
161.928720
 20
286.506604
 30
0.0
  0
LWPOLYLINE
  5
276
100
AcDbEntity
  8
Layer_1
 62
7
100
AcDbPolyline
 90
3
 70
0
 10
137.453655
 20
296.628289
 30
0.0
 10
136.316895
 20
296.534509
 30
0.0
 10
136.752577
 20
296.099659
 30
0.0
  0
SPLINE
  5
277
100
AcDbEntity
  8
Layer_1
 62
7
100
AcDbSpline
 70
8
 71
3
 72
8
 73
4
 74
0
 40
0
 40
0
 40
0
 40
0
 40
1
 40
1
 40
1
 40
1
 10
236.713365
 20
286.694186
 30
0.0
 10
235.433782
 20
287.774704
 30
0.0
 10
234.873030
 20
288.301226
 30
0.0
 10
234.873030
 20
288.422209
 30
0.0
  0
SPLINE
  5
278
100
AcDbEntity
  8
Layer_1
 62
7
100
AcDbSpline
 70
8
 71
3
 72
8
 73
4
 74
0
 40
0
 40
0
 40
0
 40
0
 40
1
 40
1
 40
1
 40
1
 10
234.873030
 20
288.422209
 30
0.0
 10
234.873030
 20
288.632801
 30
0.0
 10
235.309177
 20
288.911861
 30
0.0
 10
235.902472
 20
289.081181
 30
0.0
  0
SPLINE
  5
279
100
AcDbEntity
  8
Layer_1
 62
7
100
AcDbSpline
 70
8
 71
3
 72
8
 73
4
 74
0
 40
0
 40
0
 40
0
 40
0
 40
1
 40
1
 40
1
 40
1
 10
235.902472
 20
289.081181
 30
0.0
 10
236.210295
 20
289.168909
 30
0.0
 10
237.855187
 20
289.344064
 30
0.0
 10
239.557440
 20
289.469914
 30
0.0
  0
SPLINE
  5
27a
100
AcDbEntity
  8
Layer_1
 62
7
100
AcDbSpline
 70
8
 71
3
 72
8
 73
4
 74
0
 40
0
 40
0
 40
0
 40
0
 40
1
 40
1
 40
1
 40
1
 10
239.557440
 20
289.469914
 30
0.0
 10
242.711647
 20
289.703411
 30
0.0
 10
244.709738
 20
290.074856
 30
0.0
 10
245.861985
 20
290.642524
 30
0.0
  0
LWPOLYLINE
  5
27b
100
AcDbEntity
  8
Layer_1
 62
7
100
AcDbPolyline
 90
3
 70
0
 10
144.278370
 20
290.256199
 30
0.0
 10
143.776432
 20
290.141494
 30
0.0
 10
144.529313
 20
289.916231
 30
0.0
  0
SPLINE
  5
27c
100
AcDbEntity
  8
Layer_1
 62
7
100
AcDbSpline
 70
8
 71
3
 72
8
 73
4
 74
0
 40
0
 40
0
 40
0
 40
0
 40
1
 40
1
 40
1
 40
1
 10
245.998545
 20
291.063056
 30
0.0
 10
245.109525
 20
291.250729
 30
0.0
 10
244.277850
 20
291.651941
 30
0.0
 10
243.809280
 20
292.119236
 30
0.0
  0
SPLINE
  5
27d
100
AcDbEntity
  8
Layer_1
 62
7
100
AcDbSpline
 70
8
 71
3
 72
8
 73
4
 74
0
 40
0
 40
0
 40
0
 40
0
 40
1
 40
1
 40
1
 40
1
 10
243.809280
 20
292.119236
 30
0.0
 10
243.467730
 20
292.459826
 30
0.0
 10
243.411983
 20
292.593604
 30
0.0
 10
243.588293
 20
292.648331
 30
0.0
  0
SPLINE
  5
27e
100
AcDbEntity
  8
Layer_1
 62
7
100
AcDbSpline
 70
8
 71
3
 72
8
 73
4
 74
0
 40
0
 40
0
 40
0
 40
0
 40
1
 40
1
 40
1
 40
1
 10
243.588292
 20
292.648331
 30
0.0
 10
247.987245
 20
294.014951
 30
0.0
 10
250.776765
 20
295.109711
 30
0.0
 10
252.516802
 20
296.152534
 30
0.0
  0
LWPOLYLINE
  5
27f
100
AcDbEntity
  8
Layer_1
 62
7
100
AcDbPolyline
 90
2
 70
0
 10
161.928720
 20
286.506604
 30
0.0
 10
161.930220
 20
286.505104
 30
0.0
  0
SPLINE
  5
280
100
AcDbEntity
  8
Layer_1
 62
7
100
AcDbSpline
 70
8
 71
3
 72
8
 73
4
 74
0
 40
0
 40
0
 40
0
 40
0
 40
1
 40
1
 40
1
 40
1
 10
252.082673
 20
296.465156
 30
0.0
 10
251.044470
 20
296.385686
 30
0.0
 10
250.956457
 20
296.406431
 30
0.0
 10
250.427925
 20
296.857459
 30
0.0
  0
LWPOLYLINE
  5
281
100
AcDbEntity
  8
Layer_1
 62
7
100
AcDbPolyline
 90
3
 70
0
 10
245.861985
 20
290.642524
 30
0.0
 10
246.500415
 20
290.956976
 30
0.0
 10
245.998545
 20
291.063056
 30
0.0
  0
SPLINE
  5
282
100
AcDbEntity
  8
Layer_1
 62
7
100
AcDbSpline
 70
8
 71
3
 72
8
 73
4
 74
0
 40
0
 40
0
 40
0
 40
0
 40
1
 40
1
 40
1
 40
1
 10
252.953258
 20
298.776191
 30
0.0
 10
256.008788
 20
300.205166
 30
0.0
 10
258.693900
 20
301.760711
 30
0.0
 10
259.430273
 20
302.528404
 30
0.0
  0
LWPOLYLINE
  5
283
100
AcDbEntity
  8
Layer_1
 62
7
100
AcDbPolyline
 90
3
 70
0
 10
252.516803
 20
296.152534
 30
0.0
 10
253.179210
 20
296.549389
 30
0.0
 10
252.082673
 20
296.465156
 30
0.0
  0
SPLINE
  5
284
100
AcDbEntity
  8
Layer_1
 62
7
100
AcDbSpline
 70
8
 71
3
 72
8
 73
4
 74
0
 40
0
 40
0
 40
0
 40
0
 40
1
 40
1
 40
1
 40
1
 10
258.476670
 20
303.024814
 30
0.0
 10
257.175067
 20
303.120799
 30
0.0
 10
255.952928
 20
303.462821
 30
0.0
 10
255.952928
 20
303.731246
 30
0.0
  0
SPLINE
  5
285
100
AcDbEntity
  8
Layer_1
 62
7
100
AcDbSpline
 70
8
 71
3
 72
8
 73
4
 74
0
 40
0
 40
0
 40
0
 40
0
 40
1
 40
1
 40
1
 40
1
 10
255.952928
 20
303.731246
 30
0.0
 10
255.952928
 20
303.931804
 30
0.0
 10
257.442817
 20
305.265116
 30
0.0
 10
259.968135
 20
307.325134
 30
0.0
  0
SPLINE
  5
286
100
AcDbEntity
  8
Layer_1
 62
7
100
AcDbSpline
 70
8
 71
3
 72
8
 73
4
 74
0
 40
0
 40
0
 40
0
 40
0
 40
1
 40
1
 40
1
 40
1
 10
259.968135
 20
307.325134
 30
0.0
 10
261.210323
 20
308.338444
 30
0.0
 10
262.452533
 20
309.397601
 30
0.0
 10
262.728570
 20
309.678821
 30
0.0
  0
LWPOLYLINE
  5
287
100
AcDbEntity
  8
Layer_1
 62
7
100
AcDbPolyline
 90
3
 70
0
 10
250.427925
 20
296.857459
 30
0.0
 10
249.869678
 20
297.334099
 30
0.0
 10
252.953258
 20
298.776191
 30
0.0
  0
SPLINE
  5
288
100
AcDbEntity
  8
Layer_1
 62
7
100
AcDbSpline
 70
8
 71
3
 72
8
 73
4
 74
0
 40
0
 40
0
 40
0
 40
0
 40
1
 40
1
 40
1
 40
1
 10
262.792425
 20
310.031524
 30
0.0
 10
261.727072
 20
309.645094
 30
0.0
 10
260.459243
 20
309.528896
 30
0.0
 10
259.871130
 20
309.763631
 30
0.0
  0
SPLINE
  5
289
100
AcDbEntity
  8
Layer_1
 62
7
100
AcDbSpline
 70
8
 71
3
 72
8
 73
4
 74
0
 40
0
 40
0
 40
0
 40
0
 40
1
 40
1
 40
1
 40
1
 10
259.871130
 20
309.763631
 30
0.0
 10
259.556310
 20
309.889346
 30
0.0
 10
259.297650
 20
310.049419
 30
0.0
 10
259.296322
 20
310.120331
 30
0.0
  0
SPLINE
  5
28a
100
AcDbEntity
  8
Layer_1
 62
7
100
AcDbSpline
 70
8
 71
3
 72
8
 73
4
 74
0
 40
0
 40
0
 40
0
 40
0
 40
1
 40
1
 40
1
 40
1
 10
259.296322
 20
310.120331
 30
0.0
 10
259.294823
 20
310.190831
 30
0.0
 10
260.376870
 20
311.255486
 30
0.0
 10
261.700455
 20
312.486386
 30
0.0
  0
SPLINE
  5
28b
100
AcDbEntity
  8
Layer_1
 62
7
100
AcDbSpline
 70
8
 71
3
 72
8
 73
4
 74
0
 40
0
 40
0
 40
0
 40
0
 40
1
 40
1
 40
1
 40
1
 10
261.700455
 20
312.486386
 30
0.0
 10
263.312302
 20
313.985366
 30
0.0
 10
264.391192
 20
315.141446
 30
0.0
 10
264.967710
 20
315.987506
 30
0.0
  0
SPLINE
  5
28c
100
AcDbEntity
  8
Layer_1
 62
7
100
AcDbSpline
 70
8
 71
3
 72
8
 73
4
 74
0
 40
0
 40
0
 40
0
 40
0
 40
1
 40
1
 40
1
 40
1
 10
264.967710
 20
315.987506
 30
0.0
 10
265.441282
 20
316.682231
 30
0.0
 10
265.802543
 20
317.275444
 30
0.0
 10
265.770787
 20
317.305744
 30
0.0
  0
SPLINE
  5
28d
100
AcDbEntity
  8
Layer_1
 62
7
100
AcDbSpline
 70
8
 71
3
 72
8
 73
4
 74
0
 40
0
 40
0
 40
0
 40
0
 40
1
 40
1
 40
1
 40
1
 10
265.770787
 20
317.305744
 30
0.0
 10
265.735838
 20
317.338069
 30
0.0
 10
265.312380
 20
317.247394
 30
0.0
 10
264.823042
 20
317.108419
 30
0.0
  0
SPLINE
  5
28e
100
AcDbEntity
  8
Layer_1
 62
7
100
AcDbSpline
 70
8
 71
3
 72
8
 73
4
 74
0
 40
0
 40
0
 40
0
 40
0
 40
1
 40
1
 40
1
 40
1
 10
264.823043
 20
317.108419
 30
0.0
 10
263.509650
 20
316.735564
 30
0.0
 10
261.824505
 20
316.731049
 30
0.0
 10
261.237338
 20
317.100919
 30
0.0
  0
LWPOLYLINE
  5
28f
100
AcDbEntity
  8
Layer_1
 62
7
100
AcDbPolyline
 90
3
 70
0
 10
259.430273
 20
302.528404
 30
0.0
 10
259.811775
 20
302.926624
 30
0.0
 10
258.476670
 20
303.024814
 30
0.0
  0
SPLINE
  5
290
100
AcDbEntity
  8
Layer_1
 62
7
100
AcDbSpline
 70
8
 71
3
 72
8
 73
4
 74
0
 40
0
 40
0
 40
0
 40
0
 40
1
 40
1
 40
1
 40
1
 10
262.931408
 20
319.418884
 30
0.0
 10
265.061692
 20
321.406414
 30
0.0
 10
265.662892
 20
322.179281
 30
0.0
 10
266.338245
 20
323.798711
 30
0.0
  0
LWPOLYLINE
  5
291
100
AcDbEntity
  8
Layer_1
 62
7
100
AcDbPolyline
 90
3
 70
0
 10
262.728570
 20
309.678821
 30
0.0
 10
263.230462
 20
310.190089
 30
0.0
 10
262.792425
 20
310.031524
 30
0.0
  0
SPLINE
  5
292
100
AcDbEntity
  8
Layer_1
 62
7
100
AcDbSpline
 70
8
 71
3
 72
8
 73
4
 74
0
 40
0
 40
0
 40
0
 40
0
 40
1
 40
1
 40
1
 40
1
 10
264.566182
 20
324.558079
 30
0.0
 10
263.417295
 20
324.558079
 30
0.0
 10
262.477380
 20
324.594229
 30
0.0
 10
262.477380
 20
324.634421
 30
0.0
  0
SPLINE
  5
293
100
AcDbEntity
  8
Layer_1
 62
7
100
AcDbSpline
 70
8
 71
3
 72
8
 73
4
 74
0
 40
0
 40
0
 40
0
 40
0
 40
1
 40
1
 40
1
 40
1
 10
262.477380
 20
324.634421
 30
0.0
 10
262.477380
 20
324.675146
 30
0.0
 10
262.663155
 20
325.181516
 30
0.0
 10
262.889385
 20
325.757006
 30
0.0
  0
SPLINE
  5
294
100
AcDbEntity
  8
Layer_1
 62
7
100
AcDbSpline
 70
8
 71
3
 72
8
 73
4
 74
0
 40
0
 40
0
 40
0
 40
0
 40
1
 40
1
 40
1
 40
1
 10
262.889385
 20
325.757006
 30
0.0
 10
263.407567
 20
327.072416
 30
0.0
 10
264.188573
 20
328.385629
 30
0.0
 10
265.575157
 20
330.272989
 30
0.0
  0
LWPOLYLINE
  5
295
100
AcDbEntity
  8
Layer_1
 62
7
100
AcDbPolyline
 90
3
 70
0
 10
261.237337
 20
317.101076
 30
0.0
 10
260.764237
 20
317.396906
 30
0.0
 10
262.931407
 20
319.418884
 30
0.0
  0
SPLINE
  5
296
100
AcDbEntity
  8
Layer_1
 62
7
100
AcDbSpline
 70
8
 71
3
 72
8
 73
4
 74
0
 40
0
 40
0
 40
0
 40
0
 40
1
 40
1
 40
1
 40
1
 10
257.953485
 20
332.944234
 30
0.0
 10
258.813728
 20
333.771724
 30
0.0
 10
259.119742
 20
334.162121
 30
0.0
 10
258.953115
 20
334.219564
 30
0.0
  0
SPLINE
  5
297
100
AcDbEntity
  8
Layer_1
 62
7
100
AcDbSpline
 70
8
 71
3
 72
8
 73
4
 74
0
 40
0
 40
0
 40
0
 40
0
 40
1
 40
1
 40
1
 40
1
 10
258.953115
 20
334.219564
 30
0.0
 10
256.453343
 20
335.081434
 30
0.0
 10
254.136375
 20
334.977394
 30
0.0
 10
249.963510
 20
333.815951
 30
0.0
  0
SPLINE
  5
298
100
AcDbEntity
  8
Layer_1
 62
7
100
AcDbSpline
 70
8
 71
3
 72
8
 73
4
 74
0
 40
0
 40
0
 40
0
 40
0
 40
1
 40
1
 40
1
 40
1
 10
249.963510
 20
333.815951
 30
0.0
 10
248.311275
 20
333.356036
 30
0.0
 10
248.205210
 20
333.345191
 30
0.0
 10
247.904520
 20
333.605006
 30
0.0
  0
SPLINE
  5
299
100
AcDbEntity
  8
Layer_1
 62
7
100
AcDbSpline
 70
8
 71
3
 72
8
 73
4
 74
0
 40
0
 40
0
 40
0
 40
0
 40
1
 40
1
 40
1
 40
1
 10
247.904520
 20
333.605006
 30
0.0
 10
247.730070
 20
333.755869
 30
0.0
 10
247.587758
 20
333.982856
 30
0.0
 10
247.587758
 20
334.109689
 30
0.0
  0
SPLINE
  5
29a
100
AcDbEntity
  8
Layer_1
 62
7
100
AcDbSpline
 70
8
 71
3
 72
8
 73
4
 74
0
 40
0
 40
0
 40
0
 40
0
 40
1
 40
1
 40
1
 40
1
 10
247.587758
 20
334.109689
 30
0.0
 10
247.587758
 20
334.236506
 30
0.0
 10
248.084662
 20
334.832074
 30
0.0
 10
248.691998
 20
335.433161
 30
0.0
  0
LWPOLYLINE
  5
29b
100
AcDbEntity
  8
Layer_1
 62
7
100
AcDbPolyline
 90
3
 70
0
 10
266.338245
 20
323.798711
 30
0.0
 10
266.654985
 20
324.558079
 30
0.0
 10
264.566182
 20
324.558079
 30
0.0
  0
SPLINE
  5
29c
100
AcDbEntity
  8
Layer_1
 62
7
100
AcDbSpline
 70
8
 71
3
 72
8
 73
4
 74
0
 40
0
 40
0
 40
0
 40
0
 40
1
 40
1
 40
1
 40
1
 10
246.977122
 20
335.830429
 30
0.0
 10
245.426662
 20
335.447606
 30
0.0
 10
243.406507
 20
334.917949
 30
0.0
 10
242.487908
 20
334.652966
 30
0.0
  0
SPLINE
  5
29d
100
AcDbEntity
  8
Layer_1
 62
7
100
AcDbSpline
 70
8
 71
3
 72
8
 73
4
 74
0
 40
0
 40
0
 40
0
 40
0
 40
1
 40
1
 40
1
 40
1
 10
242.487908
 20
334.652966
 30
0.0
 10
241.256062
 20
334.297676
 30
0.0
 10
240.784695
 20
334.220831
 30
0.0
 10
240.692017
 20
334.360354
 30
0.0
  0
SPLINE
  5
29e
100
AcDbEntity
  8
Layer_1
 62
7
100
AcDbSpline
 70
8
 71
3
 72
8
 73
4
 74
0
 40
0
 40
0
 40
0
 40
0
 40
1
 40
1
 40
1
 40
1
 10
240.692017
 20
334.360354
 30
0.0
 10
240.353550
 20
334.868779
 30
0.0
 10
240.624967
 20
335.345306
 30
0.0
 10
242.104447
 20
336.841091
 30
0.0
  0
SPLINE
  5
29f
100
AcDbEntity
  8
Layer_1
 62
7
100
AcDbSpline
 70
8
 71
3
 72
8
 73
4
 74
0
 40
0
 40
0
 40
0
 40
0
 40
1
 40
1
 40
1
 40
1
 10
242.104447
 20
336.841091
 30
0.0
 10
242.742555
 20
337.486174
 30
0.0
 10
243.230700
 20
338.046371
 30
0.0
 10
243.189203
 20
338.086016
 30
0.0
  0
SPLINE
  5
2a0
100
AcDbEntity
  8
Layer_1
 62
7
100
AcDbSpline
 70
8
 71
3
 72
8
 73
4
 74
0
 40
0
 40
0
 40
0
 40
0
 40
1
 40
1
 40
1
 40
1
 10
243.189203
 20
338.086016
 30
0.0
 10
243.058935
 20
338.210629
 30
0.0
 10
237.132690
 20
336.273296
 30
0.0
 10
236.059020
 20
335.755421
 30
0.0
  0
SPLINE
  5
2a1
100
AcDbEntity
  8
Layer_1
 62
7
100
AcDbSpline
 70
8
 71
3
 72
8
 73
4
 74
0
 40
0
 40
0
 40
0
 40
0
 40
1
 40
1
 40
1
 40
1
 10
236.059020
 20
335.755421
 30
0.0
 10
235.495980
 20
335.483944
 30
0.0
 10
234.627240
 20
335.012171
 30
0.0
 10
234.128348
 20
334.707296
 30
0.0
  0
LWPOLYLINE
  5
2a2
100
AcDbEntity
  8
Layer_1
 62
7
100
AcDbPolyline
 90
5
 70
0
 10
265.575157
 20
330.272989
 30
0.0
 10
266.661465
 20
331.751674
 30
0.0
 10
261.687615
 20
331.751674
 30
0.0
 10
256.713728
 20
331.751674
 30
0.0
 10
257.953485
 20
332.944234
 30
0.0
  0
SPLINE
  5
2a3
100
AcDbEntity
  8
Layer_1
 62
7
100
AcDbSpline
 70
8
 71
3
 72
8
 73
4
 74
0
 40
0
 40
0
 40
0
 40
0
 40
1
 40
1
 40
1
 40
1
 10
232.875982
 20
334.572491
 30
0.0
 10
232.363027
 20
335.195606
 30
0.0
 10
232.449285
 20
335.711336
 30
0.0
 10
233.278995
 20
336.985676
 30
0.0
  0
SPLINE
  5
2a4
100
AcDbEntity
  8
Layer_1
 62
7
100
AcDbSpline
 70
8
 71
3
 72
8
 73
4
 74
0
 40
0
 40
0
 40
0
 40
0
 40
1
 40
1
 40
1
 40
1
 10
233.278995
 20
336.985676
 30
0.0
 10
234.126022
 20
338.286206
 30
0.0
 10
234.141600
 20
338.281234
 30
0.0
 10
232.167945
 20
337.338086
 30
0.0
  0
SPLINE
  5
2a5
100
AcDbEntity
  8
Layer_1
 62
7
100
AcDbSpline
 70
8
 71
3
 72
8
 73
4
 74
0
 40
0
 40
0
 40
0
 40
0
 40
1
 40
1
 40
1
 40
1
 10
232.167945
 20
337.338086
 30
0.0
 10
230.633347
 20
336.604676
 30
0.0
 10
229.328715
 20
335.834756
 30
0.0
 10
227.392777
 20
334.520059
 30
0.0
  0
LWPOLYLINE
  5
2a6
100
AcDbEntity
  8
Layer_1
 62
7
100
AcDbPolyline
 90
3
 70
0
 10
248.691998
 20
335.433161
 30
0.0
 10
249.796185
 20
336.526031
 30
0.0
 10
246.977122
 20
335.830429
 30
0.0
  0
SPLINE
  5
2a7
100
AcDbEntity
  8
Layer_1
 62
7
100
AcDbSpline
 70
8
 71
3
 72
8
 73
4
 74
0
 40
0
 40
0
 40
0
 40
0
 40
1
 40
1
 40
1
 40
1
 10
225.170025
 20
333.774206
 30
0.0
 10
224.187450
 20
334.564181
 30
0.0
 10
223.949790
 20
335.425511
 30
0.0
 10
224.418570
 20
336.497569
 30
0.0
  0
SPLINE
  5
2a8
100
AcDbEntity
  8
Layer_1
 62
7
100
AcDbSpline
 70
8
 71
3
 72
8
 73
4
 74
0
 40
0
 40
0
 40
0
 40
0
 40
1
 40
1
 40
1
 40
1
 10
224.418570
 20
336.497569
 30
0.0
 10
224.557710
 20
336.816296
 30
0.0
 10
224.642648
 20
337.104364
 30
0.0
 10
224.606603
 20
337.138519
 30
0.0
  0
SPLINE
  5
2a9
100
AcDbEntity
  8
Layer_1
 62
7
100
AcDbSpline
 70
8
 71
3
 72
8
 73
4
 74
0
 40
0
 40
0
 40
0
 40
0
 40
1
 40
1
 40
1
 40
1
 10
224.606602
 20
337.138519
 30
0.0
 10
224.503147
 20
337.237624
 30
0.0
 10
222.486045
 20
336.075784
 30
0.0
 10
221.572110
 20
335.389976
 30
0.0
  0
SPLINE
  5
2aa
100
AcDbEntity
  8
Layer_1
 62
7
100
AcDbSpline
 70
8
 71
3
 72
8
 73
4
 74
0
 40
0
 40
0
 40
0
 40
0
 40
1
 40
1
 40
1
 40
1
 10
221.572110
 20
335.389976
 30
0.0
 10
220.765335
 20
334.784576
 30
0.0
 10
219.272220
 20
333.260509
 30
0.0
 10
218.543377
 20
332.298476
 30
0.0
  0
SPLINE
  5
2ab
100
AcDbEntity
  8
Layer_1
 62
7
100
AcDbSpline
 70
8
 71
3
 72
8
 73
4
 74
0
 40
0
 40
0
 40
0
 40
0
 40
1
 40
1
 40
1
 40
1
 10
218.543377
 20
332.298476
 30
0.0
 10
218.230358
 20
331.885339
 30
0.0
 10
218.159797
 20
331.859074
 30
0.0
 10
217.904970
 20
332.061394
 30
0.0
  0
SPLINE
  5
2ac
100
AcDbEntity
  8
Layer_1
 62
7
100
AcDbSpline
 70
8
 71
3
 72
8
 73
4
 74
0
 40
0
 40
0
 40
0
 40
0
 40
1
 40
1
 40
1
 40
1
 10
217.904970
 20
332.061394
 30
0.0
 10
217.276643
 20
332.559671
 30
0.0
 10
217.089810
 20
333.194254
 30
0.0
 10
217.201140
 20
334.452536
 30
0.0
  0
LWPOLYLINE
  5
2ad
100
AcDbEntity
  8
Layer_1
 62
7
100
AcDbPolyline
 90
3
 70
0
 10
234.128348
 20
334.707296
 30
0.0
 10
233.221417
 20
334.153039
 30
0.0
 10
232.875982
 20
334.572491
 30
0.0
  0
SPLINE
  5
2ae
100
AcDbEntity
  8
Layer_1
 62
7
100
AcDbSpline
 70
8
 71
3
 72
8
 73
4
 74
0
 40
0
 40
0
 40
0
 40
0
 40
1
 40
1
 40
1
 40
1
 10
216.782677
 20
335.179714
 30
0.0
 10
216.494272
 20
334.921489
 30
0.0
 10
215.186933
 20
333.522784
 30
0.0
 10
213.877695
 20
332.072059
 30
0.0
  0
SPLINE
  5
2af
100
AcDbEntity
  8
Layer_1
 62
7
100
AcDbSpline
 70
8
 71
3
 72
8
 73
4
 74
0
 40
0
 40
0
 40
0
 40
0
 40
1
 40
1
 40
1
 40
1
 10
213.877695
 20
332.072059
 30
0.0
 10
212.568502
 20
330.621349
 30
0.0
 10
211.308997
 20
329.269376
 30
0.0
 10
211.078890
 20
329.067679
 30
0.0
  0
LWPOLYLINE
  5
2b0
100
AcDbEntity
  8
Layer_1
 62
7
100
AcDbPolyline
 90
3
 70
0
 10
227.392777
 20
334.520059
 30
0.0
 10
225.684780
 20
333.360146
 30
0.0
 10
225.170025
 20
333.774206
 30
0.0
  0
SPLINE
  5
2b1
100
AcDbEntity
  8
Layer_1
 62
7
100
AcDbSpline
 70
8
 71
3
 72
8
 73
4
 74
0
 40
0
 40
0
 40
0
 40
0
 40
1
 40
1
 40
1
 40
1
 10
210.308385
 20
329.626939
 30
0.0
 10
210.114698
 20
330.136391
 30
0.0
 10
209.906797
 20
330.828971
 30
0.0
 10
209.845702
 20
331.166021
 30
0.0
  0
LWPOLYLINE
  5
2b2
100
AcDbEntity
  8
Layer_1
 62
7
100
AcDbPolyline
 90
3
 70
0
 10
217.201140
 20
334.452536
 30
0.0
 10
217.307243
 20
335.649724
 30
0.0
 10
216.782678
 20
335.179714
 30
0.0
  0
SPLINE
  5
2b3
100
AcDbEntity
  8
Layer_1
 62
7
100
AcDbSpline
 70
8
 71
3
 72
8
 73
4
 74
0
 40
0
 40
0
 40
0
 40
0
 40
1
 40
1
 40
1
 40
1
 10
208.987065
 20
331.086109
 30
0.0
 10
205.929128
 20
328.253344
 30
0.0
 10
202.632315
 20
323.493484
 30
0.0
 10
201.033450
 20
319.603069
 30
0.0
  0
SPLINE
  5
2b4
100
AcDbEntity
  8
Layer_1
 62
7
100
AcDbSpline
 70
8
 71
3
 72
8
 73
4
 74
0
 40
0
 40
0
 40
0
 40
0
 40
1
 40
1
 40
1
 40
1
 10
201.033450
 20
319.603069
 30
0.0
 10
200.445037
 20
318.171334
 30
0.0
 10
199.791892
 20
315.463226
 30
0.0
 10
199.664730
 20
313.928141
 30
0.0
  0
SPLINE
  5
2b5
100
AcDbEntity
  8
Layer_1
 62
7
100
AcDbSpline
 70
8
 71
3
 72
8
 73
4
 74
0
 40
0
 40
0
 40
0
 40
0
 40
1
 40
1
 40
1
 40
1
 10
199.664730
 20
313.928141
 30
0.0
 10
199.308600
 20
309.628151
 30
0.0
 10
201.374895
 20
305.830121
 30
0.0
 10
205.286160
 20
303.595691
 30
0.0
  0
LWPOLYLINE
  5
2b6
100
AcDbEntity
  8
Layer_1
 62
7
100
AcDbPolyline
 90
3
 70
0
 10
211.078890
 20
329.067679
 30
0.0
 10
210.660262
 20
328.700734
 30
0.0
 10
210.308385
 20
329.626939
 30
0.0
  0
SPLINE
  5
2b7
100
AcDbEntity
  8
Layer_1
 62
7
100
AcDbSpline
 70
8
 71
3
 72
8
 73
4
 74
0
 40
0
 40
0
 40
0
 40
0
 40
1
 40
1
 40
1
 40
1
 10
208.715805
 20
304.734994
 30
0.0
 10
216.286507
 20
310.537526
 30
0.0
 10
226.383412
 20
315.857531
 30
0.0
 10
239.724165
 20
321.073219
 30
0.0
  0
SPLINE
  5
2b8
100
AcDbEntity
  8
Layer_1
 62
7
100
AcDbSpline
 70
8
 71
3
 72
8
 73
4
 74
0
 40
0
 40
0
 40
0
 40
0
 40
1
 40
1
 40
1
 40
1
 10
239.724165
 20
321.073219
 30
0.0
 10
243.561998
 20
322.573609
 30
0.0
 10
247.783800
 20
324.104374
 30
0.0
 10
247.866457
 20
324.025406
 30
0.0
  0
SPLINE
  5
2b9
100
AcDbEntity
  8
Layer_1
 62
7
100
AcDbSpline
 70
8
 71
3
 72
8
 73
4
 74
0
 40
0
 40
0
 40
0
 40
0
 40
1
 40
1
 40
1
 40
1
 10
247.866457
 20
324.025406
 30
0.0
 10
247.901408
 20
323.993081
 30
0.0
 10
246.474758
 20
323.228104
 30
0.0
 10
244.702770
 20
322.321586
 30
0.0
  0
SPLINE
  5
2ba
100
AcDbEntity
  8
Layer_1
 62
7
100
AcDbSpline
 70
8
 71
3
 72
8
 73
4
 74
0
 40
0
 40
0
 40
0
 40
0
 40
1
 40
1
 40
1
 40
1
 10
244.702770
 20
322.321586
 30
0.0
 10
229.596960
 20
314.593984
 30
0.0
 10
219.406567
 20
308.024464
 30
0.0
 10
212.279378
 20
301.418944
 30
0.0
  0
LWPOLYLINE
  5
2bb
100
AcDbEntity
  8
Layer_1
 62
7
100
AcDbPolyline
 90
3
 70
0
 10
209.845702
 20
331.166021
 30
0.0
 10
209.734882
 20
331.778816
 30
0.0
 10
208.987065
 20
331.086109
 30
0.0
  0
SPLINE
  5
2bc
100
AcDbEntity
  8
Layer_1
 62
7
100
AcDbSpline
 70
8
 71
3
 72
8
 73
4
 74
0
 40
0
 40
0
 40
0
 40
0
 40
1
 40
1
 40
1
 40
1
 10
210.109132
 20
297.937781
 30
0.0
 10
211.270275
 20
294.566434
 30
0.0
 10
213.716895
 20
291.786484
 30
0.0
 10
217.243148
 20
289.831714
 30
0.0
  0
SPLINE
  5
2bd
100
AcDbEntity
  8
Layer_1
 62
7
100
AcDbSpline
 70
8
 71
3
 72
8
 73
4
 74
0
 40
0
 40
0
 40
0
 40
0
 40
1
 40
1
 40
1
 40
1
 10
217.243148
 20
289.831714
 30
0.0
 10
221.362215
 20
287.548414
 30
0.0
 10
227.638103
 20
286.286861
 30
0.0
 10
235.206930
 20
286.220681
 30
0.0
  0
LWPOLYLINE
  5
2be
100
AcDbEntity
  8
Layer_1
 62
7
100
AcDbPolyline
 90
3
 70
0
 10
205.286160
 20
303.595691
 30
0.0
 10
206.399475
 20
302.959586
 30
0.0
 10
208.715805
 20
304.734994
 30
0.0
  0
LWPOLYLINE
  5
2bf
100
AcDbEntity
  8
Layer_1
 62
7
100
AcDbPolyline
 90
3
 70
0
 10
212.279378
 20
301.418944
 30
0.0
 10
209.725552
 20
299.052011
 30
0.0
 10
210.109132
 20
297.937781
 30
0.0
  0
LWPOLYLINE
  5
2c0
100
AcDbEntity
  8
Layer_1
 62
7
100
AcDbPolyline
 90
3
 70
0
 10
235.206930
 20
286.220681
 30
0.0
 10
237.298170
 20
286.202306
 30
0.0
 10
236.713365
 20
286.694164
 30
0.0
  0
ENDSEC
  0
SECTION
  2
OBJECTS
  0
DICTIONARY
  5
C
330
0
100
AcDbDictionary
  3
ACAD_GROUP
350
D
  3
ACAD_MLINESTYLE
350
17
  0
DICTIONARY
  5
D
330
C
100
AcDbDictionary
  0
DICTIONARY
  5
1A
330
C
100
AcDbDictionary
  0
DICTIONARY
  5
17
330
C
100
AcDbDictionary
  3
STANDARD
350
18
  0
DICTIONARY
  5
19
330
C
100
AcDbDictionary
  0
ENDSEC
  0
EOF
